<svg width="1792px" height="1792px" viewBox="0 0 1792 1792" xmlns="http://www.w3.org/2000/svg">
    <g id="Page-1" stroke="none" stroke-width="1" fill="none" fill-rule="evenodd">
        <g id="Artboard" fill="#000000">
            <g id="Instagram_simple_icon" transform="translate(128.000000, 128.000000)">
                <g id="Group">
                    <path d="M768,138.578286 C973.001143,138.578286 997.281524,139.361524 1078.24762,143.055238 C1153.10324,146.471619 1193.75238,158.976 1220.80914,169.490286 C1254.15647,181.798156 1284.32147,201.423215 1309.08648,226.922667 C1334.58593,251.687675 1354.21099,281.852676 1366.51886,315.2 C1377.03314,342.253714 1389.54057,382.905905 1392.9539,457.761524 C1396.64762,538.721524 1397.43086,563.001905 1397.43086,768.009143 C1397.43086,973.016381 1396.64762,997.290667 1392.9539,1078.25676 C1389.53752,1153.11238 1377.0301,1193.76152 1366.51886,1220.81829 C1340.68992,1287.77575 1287.76661,1340.69906 1220.80914,1366.528 C1193.75543,1377.04229 1153.10324,1389.54971 1078.24762,1392.96305 C997.302857,1396.65676 973.022476,1397.44 768,1397.44 C562.977524,1397.44 538.706286,1396.65676 457.752381,1392.96305 C382.896762,1389.54667 342.247619,1377.03924 315.190857,1366.528 C281.843487,1354.22022 251.678466,1334.59515 226.913524,1309.09562 C201.414152,1284.33054 181.789106,1254.16556 169.481143,1220.81829 C158.966857,1193.76457 146.459429,1153.11238 143.046095,1078.25676 C139.352381,997.29981 138.569143,973.016381 138.569143,768.009143 C138.569143,563.001905 139.352381,538.727619 143.046095,457.761524 C146.462476,382.905905 158.966857,342.256762 169.481143,315.2 C181.790387,281.851014 201.417583,251.684887 226.919619,226.919619 C251.684693,201.420247 281.849675,181.795201 315.196952,169.487238 C342.250667,158.972952 382.902857,146.465524 457.758476,143.05219 C538.718476,139.358476 562.998857,138.575238 768.006095,138.575238 L768,138.578286 Z M768.006095,0.240761905 C559.494095,0.240761905 533.339429,1.12457143 451.462095,4.86095238 C369.74019,8.5912381 313.93219,21.568 265.097143,40.5485714 C213.868491,59.8266856 167.46155,90.0473598 129.112381,129.103238 C90.047701,167.450003 59.8185884,213.857125 40.5333333,265.088 C21.568,313.926095 8.5912381,369.734095 4.87619048,451.456 C1.12457143,533.333333 0.240761905,559.488 0.240761905,768 C0.240761905,976.512 1.12457143,1002.66667 4.87619048,1084.544 C8.60647619,1166.2659 21.5832381,1222.0739 40.5638095,1270.90895 C59.8420115,1322.13756 90.062674,1368.54448 129.118476,1406.89371 C167.467521,1445.94974 213.874498,1476.17044 265.103238,1495.44838 C313.941333,1514.42895 369.749333,1527.40571 451.46819,1531.136 C533.357714,1534.87238 559.503238,1535.75619 768.01219,1535.75619 C976.521143,1535.75619 1002.67886,1534.87238 1084.55619,1531.136 C1166.2781,1527.40571 1222.0861,1514.42895 1270.92114,1495.44838 C1374.04874,1455.56257 1455.57476,1374.03655 1495.46057,1270.90895 C1514.44114,1222.07086 1527.4179,1166.26286 1531.14819,1084.544 C1534.88457,1002.65448 1535.76838,976.508952 1535.76838,768 C1535.76838,559.491048 1534.88457,533.333333 1531.14819,451.456 C1527.4179,369.734095 1514.44114,313.926095 1495.46057,265.091048 C1476.18263,213.862307 1445.96194,167.45533 1406.9059,129.106286 C1368.55595,90.0426209 1322.14563,59.8155383 1270.912,40.5333333 C1222.0739,21.568 1166.2659,8.5912381 1084.544,4.87619048 C1002.66667,1.12457143 976.512,0.240761905 768,0.240761905 L768,0.240761905 L768.006095,0.240761905 Z" id="Shape"></path>
                    <path d="M768,373.744762 C550.258844,373.744762 373.744762,550.258844 373.744762,768 C373.744762,985.741156 550.258844,1162.25524 768,1162.25524 C985.741156,1162.25524 1162.25524,985.741156 1162.25524,768 C1162.25524,550.258844 985.741156,373.744762 768,373.744762 L768,373.744762 Z M768,1023.91771 C626.660946,1023.91603 512.084211,909.337022 512.085333,767.997968 C512.086455,626.658914 626.665009,512.081725 768.004063,512.082286 C909.343118,512.082847 1023.92076,626.660946 1023.92076,768 C1023.91908,909.339944 909.339944,1023.91771 768,1023.91771 L768,1023.91771 Z" id="Shape"></path>
                    <circle id="Oval" cx="1177.83162" cy="358.168381" r="92.1295238"></circle>
                </g>
            </g>
        </g>
    </g>
</svg>