<svg width="1000.0" height="1000" xmlns="http://www.w3.org/2000/svg"><path d="m1000 750v71.4q0 14.5-10.6 25.1t-25.1 10.6h-928.6q-14.5 0-25.1-10.6t-10.6-25.1v-71.4q0-14.5 10.6-25.1t25.1-10.6h928.6q14.5 0 25.1 10.6t10.6 25.1z m-214.3-214.3v71.4q0 14.6-10.6 25.2t-25.1 10.6h-714.3q-14.5 0-25.1-10.6t-10.6-25.2v-71.4q0-14.5 10.6-25.1t25.1-10.6h714.3q14.5 0 25.1 10.6t10.6 25.1z m142.9-214.3v71.5q0 14.5-10.6 25.1t-25.1 10.6h-857.2q-14.5 0-25.1-10.6t-10.6-25.1v-71.5q0-14.5 10.6-25.1t25.1-10.6h857.2q14.5 0 25.1 10.6t10.6 25.1z m-214.3-214.3v71.5q0 14.5-10.6 25.1t-25.1 10.6h-642.9q-14.5 0-25.1-10.6t-10.6-25.1v-71.5q0-14.5 10.6-25.1t25.1-10.6h642.9q14.5 0 25.1 10.6t10.6 25.1z" /></svg>