<svg width="1071.4" height="1000" xmlns="http://www.w3.org/2000/svg"><path d="m357.1 785.7q0-29.6-20.9-50.5t-50.5-20.9-50.5 20.9-20.9 50.5 20.9 50.5 50.5 20.9 50.5-20.9 20.9-50.5z m-214.2-285.7h214.2v-142.9h-88.1q-7.8 1.2-12.3 5.1l-108.8 108.8q-3.9 6.7-5 12.3v16.7z m714.2 285.7q0-29.6-20.9-50.5t-50.5-20.9-50.5 20.9-20.9 50.5 20.9 50.5 50.5 20.9 50.5-20.9 20.9-50.5z m71.5-375v-107.1q0-7.8-5.1-12.9t-12.8-5h-125v-125q0-7.8-5-12.8t-12.8-5h-107.2q-7.8 0-12.8 5t-5 12.8v125h-125q-7.9 0-12.9 5t-5 12.9v107.1q0 7.8 5 12.8t12.9 5.1h125v125q0 7.8 5 12.8t12.8 5h107.2q7.8 0 12.8-5t5-12.8v-125h125q7.8 0 12.8-5.1t5.1-12.8z m142.8-303.6v642.9q0 14.5-10.6 25.1t-25.1 10.6h-107.1q0 59.2-41.9 101t-101 41.9-101-41.9-41.8-101h-214.3q0 59.2-41.9 101t-101 41.9-101-41.9-41.8-101h-71.5q-14.5 0-25.1-10.6t-10.6-25.1 10.6-25.1 25.1-10.6v-232.2q0-14.5 7.3-32.3t17.8-28.5l110.5-110.5q10.6-10.6 28.5-17.8t32.4-7.3h89.2v-178.6q0-14.5 10.6-25.1t25.2-10.6h642.8q14.5 0 25.1 10.6t10.6 25.1z" /></svg>