<svg width="642.9" height="1000" xmlns="http://www.w3.org/2000/svg"><path d="m599.9 732.1q0 7.3-5.6 12.9l-27.9 27.9q-5.6 5.6-12.8 5.6t-12.9-5.6l-219.3-219.3-219.3 219.3q-5.6 5.6-12.8 5.6t-12.8-5.6l-28-27.9q-5.5-5.6-5.5-12.9t5.5-12.8l260.1-260q5.6-5.6 12.8-5.6t12.9 5.6l260 260q5.6 5.6 5.6 12.8z m0-214.2q0 7.2-5.6 12.8l-27.9 27.9q-5.6 5.6-12.8 5.6t-12.9-5.6l-219.3-219.3-219.3 219.3q-5.6 5.6-12.8 5.6t-12.8-5.6l-28-27.9q-5.5-5.6-5.5-12.8t5.5-12.9l260.1-260q5.6-5.6 12.8-5.6t12.9 5.6l260 260q5.6 5.6 5.6 12.9z" /></svg>