<svg width="571.4" height="1000" xmlns="http://www.w3.org/2000/svg"><path d="m332 535.7q0 7.3-5.5 12.8l-260.1 260.1q-5.6 5.6-12.8 5.6t-12.9-5.6l-27.9-27.9q-5.5-5.6-5.5-12.8t5.5-12.9l219.3-219.3-219.3-219.3q-5.5-5.6-5.5-12.8t5.5-12.9l27.9-27.9q5.6-5.5 12.9-5.5t12.8 5.5l260.1 260.1q5.5 5.6 5.5 12.8z m214.3 0q0 7.3-5.6 12.8l-260 260.1q-5.6 5.6-12.8 5.6t-12.9-5.6l-27.9-27.9q-5.6-5.6-5.6-12.8t5.6-12.9l219.3-219.3-219.3-219.3q-5.6-5.6-5.6-12.8t5.6-12.9l27.9-27.9q5.6-5.5 12.9-5.5t12.8 5.5l260 260.1q5.6 5.6 5.6 12.8z" /></svg>