<svg width="785.7" height="1000" xmlns="http://www.w3.org/2000/svg"><path d="m777.3 678q-21.7 69.8-68.6 139.5-72 109.4-143.4 109.4-27.4 0-78.1-17.9-48-17.8-84.3-17.8-34 0-79.2 18.4-45.2 19-73.7 19-84.8 0-168-144.6-82-145.6-82-280.7 0-127.2 63.1-208.7 62.5-80.3 158.4-80.3 40.2 0 98.8 16.7 58 16.8 77 16.8 25.1 0 79.8-19 56.9-19 96.6-19 66.4 0 118.8 36.3 29 20.1 58.1 55.8-44.1 37.4-63.7 65.8-36.2 52.5-36.2 115.6 0 69.2 38.5 124.4t88.1 70.3z m-209.8-654.6q0 34.1-16.2 75.9-16.7 41.9-51.9 77-30.1 30.2-60.2 40.2-20.7 6.2-58.1 9.5 1.7-83.1 43.6-143.4 41.3-59.7 139.5-82.6 0.5 1.7 1.4 6.1t1.4 6.2q0 2.2 0.2 5.6t0.3 5.5z" /></svg>