<svg width="1000.0" height="1000" xmlns="http://www.w3.org/2000/svg"><path d="m607.1 464.3q0-14.5-10.6-25.1t-25.1-10.6h-142.8q-14.5 0-25.1 10.6t-10.6 25.1 10.6 25.1 25.1 10.6h142.8q14.5 0 25.1-10.6t10.6-25.1z m321.5-107.2v535.8q0 14.5-10.6 25.1t-25.1 10.6h-785.8q-14.5 0-25.1-10.6t-10.6-25.1v-535.8q0-14.5 10.6-25.1t25.1-10.6h785.8q14.5 0 25.1 10.6t10.6 25.1z m35.7-250v142.9q0 14.5-10.6 25.1t-25.1 10.6h-857.2q-14.5 0-25.1-10.6t-10.6-25.1v-142.9q0-14.5 10.6-25.1t25.1-10.6h857.2q14.5 0 25.1 10.6t10.6 25.1z" /></svg>