<svg width="857.1" height="1000" xmlns="http://www.w3.org/2000/svg"><path d="m714.3 535.7v-71.4q0-14.5-10.6-25.1t-25.1-10.6h-280.2l105.5-105.5q10.6-10.6 10.6-25.1t-10.6-25.1l-50.8-50.8q-10-10-25.1-10t-25.1 10l-202 202-50.8 50.8q-10 10-10 25.1t10 25.1l50.8 50.8 202 202q10 10 25.1 10t25.1-10l50.8-50.8q10.1-10 10.1-25.1t-10.1-25.1l-105.5-105.5h280.2q14.5 0 25.1-10.6t10.6-25.1z m142.8-35.7q0 116.6-57.4 215.1t-156 156-215.1 57.5-215.2-57.5-155.9-156-57.5-215.1 57.5-215.1 155.9-156 215.2-57.5 215.1 57.5 156 156 57.4 215.1z" /></svg>