<svg width="857.1" height="1000" xmlns="http://www.w3.org/2000/svg"><path d="m625 517.9q0 6.7-5.6 13.4l-178 178q-6.1 5-12.8 5t-12.9-5l-178.5-178.6q-8.4-8.9-3.9-19.5 4.4-11.2 16.7-11.2h107.1v-196.4q0-7.8 5.1-12.9t12.8-5h107.1q7.9 0 12.9 5t5 12.9v196.4h107.1q7.9 0 12.9 5t5 12.9z m-196.4-321.5q-82.6 0-152.4 40.8t-110.5 110.5-40.7 152.3 40.7 152.3 110.5 110.5 152.4 40.8 152.3-40.8 110.5-110.5 40.7-152.3-40.7-152.3-110.5-110.5-152.3-40.8z m428.5 303.6q0 116.6-57.4 215.1t-156 156-215.1 57.5-215.2-57.5-155.9-156-57.5-215.1 57.5-215.1 155.9-156 215.2-57.5 215.1 57.5 156 156 57.4 215.1z" /></svg>