<svg width="857.1" height="1000" xmlns="http://www.w3.org/2000/svg"><path d="m716.5 499.4q0-15-10-25.1l-202-202-50.8-50.8q-10.1-10-25.1-10t-25.1 10l-50.8 50.8-202 202q-10.1 10.1-10.1 25.1t10.1 25.2l50.8 50.7q10 10.1 25.1 10.1t25.1-10.1l105.4-105.4v280.1q0 14.5 10.6 25.1t25.2 10.6h71.4q14.5 0 25.1-10.6t10.6-25.1v-280.1l105.5 105.4q10.6 10.6 25.1 10.6t25.1-10.6l50.8-50.7q10-10.1 10-25.2z m140.6 0.6q0 116.6-57.4 215.1t-156 156-215.1 57.5-215.2-57.5-155.9-156-57.5-215.1 57.5-215.1 155.9-156 215.2-57.5 215.1 57.5 156 156 57.4 215.1z" /></svg>