<svg width="1000.0" height="1000" xmlns="http://www.w3.org/2000/svg"><path d="m1000 500q0 14.5-10.6 25.1l-142.9 142.9q-10.6 10.6-25.1 10.6t-25.1-10.6-10.6-25.1v-71.5h-214.3v214.3h71.5q14.5 0 25.1 10.6t10.6 25.1-10.6 25.1l-142.9 142.9q-10.6 10.6-25.1 10.6t-25.1-10.6l-142.9-142.9q-10.6-10.6-10.6-25.1t10.6-25.1 25.1-10.6h71.5v-214.3h-214.3v71.5q0 14.5-10.6 25.1t-25.1 10.6-25.1-10.6l-142.9-142.9q-10.6-10.6-10.6-25.1t10.6-25.1l142.9-142.9q10.6-10.6 25.1-10.6t25.1 10.6 10.6 25.1v71.5h214.3v-214.3h-71.5q-14.5 0-25.1-10.6t-10.6-25.1 10.6-25.1l142.9-142.9q10.6-10.6 25.1-10.6t25.1 10.6l142.9 142.9q10.6 10.6 10.6 25.1t-10.6 25.1-25.1 10.6h-71.5v214.3h214.3v-71.5q0-14.5 10.6-25.1t25.1-10.6 25.1 10.6l142.9 142.9q10.6 10.6 10.6 25.1z" /></svg>