<svg width="857.1" height="1000" xmlns="http://www.w3.org/2000/svg"><path d="m623.9 488.8q-4.5 11.2-16.8 11.2h-107.1v196.4q0 7.8-5 12.9t-12.9 5h-107.1q-7.8 0-12.8-5t-5.1-12.9v-196.4h-107.1q-7.8 0-12.8-5t-5.1-12.9q0-6.7 5.6-13.4l178-178q6.2-5 12.9-5t12.8 5l178.6 178.6q8.3 8.9 3.9 19.5z m-195.3-292.4q-82.6 0-152.4 40.8t-110.5 110.5-40.7 152.3 40.7 152.3 110.5 110.5 152.4 40.8 152.3-40.8 110.5-110.5 40.7-152.3-40.7-152.3-110.5-110.5-152.3-40.8z m428.5 303.6q0 116.6-57.4 215.1t-156 156-215.1 57.5-215.2-57.5-155.9-156-57.5-215.1 57.5-215.1 155.9-156 215.2-57.5 215.1 57.5 156 156 57.4 215.1z" /></svg>