<svg width="857.1" height="1000" xmlns="http://www.w3.org/2000/svg"><path d="m642.9 500q0 7.8-5.1 12.8l-178.5 178.6q-5.1 5-12.9 5-7.2 0-12.5-5.3t-5.3-12.5v-107.2h-196.5q-7.2 0-12.5-5.3t-5.3-12.5v-107.2q0-7.2 5.3-12.5t12.5-5.3h196.5v-107.2q0-7.8 5-12.8t12.8-5q6.7 0 13.4 5.6l178 178q5.1 5 5.1 12.8z m89.2 0q0-82.6-40.7-152.3t-110.5-110.5-152.3-40.8-152.4 40.8-110.5 110.5-40.7 152.3 40.7 152.3 110.5 110.5 152.4 40.8 152.3-40.8 110.5-110.5 40.7-152.3z m125 0q0 116.6-57.4 215.1t-156 156-215.1 57.5-215.2-57.5-155.9-156-57.5-215.1 57.5-215.1 155.9-156 215.2-57.5 215.1 57.5 156 156 57.4 215.1z" /></svg>