<svg width="857.1" height="1000" xmlns="http://www.w3.org/2000/svg"><path d="m716 301.9l-198.1 198.1 198.1 198.1 80.3-80.4q16.2-17.3 39.1-7.8 21.7 9.5 21.7 33v250q0 14.5-10.6 25.1t-25.1 10.6h-250q-23.4 0-32.9-22.4-9.5-21.7 7.8-38.5l80.4-80.3-198.1-198.1-198.1 198.1 80.3 80.3q17.3 16.8 7.8 38.5-9.4 22.4-32.9 22.4h-250q-14.5 0-25.1-10.6t-10.6-25.1v-250q0-23.5 22.3-33 21.8-9.5 38.5 7.8l80.4 80.4 198.1-198.1-198.1-198.1-80.4 80.4q-10.6 10.6-25.1 10.6-6.7 0-13.4-2.8-22.3-9.5-22.3-33v-250q0-14.5 10.6-25.1t25.1-10.6h250q23.5 0 32.9 22.4 9.5 21.7-7.8 38.5l-80.3 80.3 198.1 198.1 198.1-198.1-80.4-80.3q-17.3-16.8-7.8-38.5 9.5-22.4 32.9-22.4h250q14.5 0 25.1 10.6t10.6 25.1v250q0 23.5-21.7 33-7.3 2.8-14 2.8-14.5 0-25.1-10.6z" /></svg>