<svg width="857.1" height="1000" xmlns="http://www.w3.org/2000/svg"><path d="m716.5 500.6q0-15.1-10-25.2l-50.8-50.7q-10.1-10.1-25.1-10.1t-25.1 10.1l-105.5 105.4v-280.1q0-14.5-10.6-25.1t-25.1-10.6h-71.4q-14.6 0-25.2 10.6t-10.6 25.1v280.1l-105.4-105.4q-10.6-10.6-25.1-10.6t-25.1 10.6l-50.8 50.7q-10.1 10.1-10.1 25.2t10.1 25.1l202 202 50.8 50.8q10 10 25.1 10t25.1-10l50.8-50.8 202-202q10-10.1 10-25.1z m140.6-0.6q0 116.6-57.4 215.1t-156 156-215.1 57.5-215.2-57.5-155.9-156-57.5-215.1 57.5-215.1 155.9-156 215.2-57.5 215.1 57.5 156 156 57.4 215.1z" /></svg>