<svg width="928.6" height="1000" xmlns="http://www.w3.org/2000/svg"><path d="m827 585.9q25.7 14.5 33.2 43.3t-7 54.4l-35.7 61.4q-14.5 25.6-43.2 33.2t-54.4-7l-148.5-85.4v171.3q0 29.1-21.2 50.3t-50.2 21.2h-71.4q-29 0-50.3-21.2t-21.2-50.3v-171.3l-148.4 85.4q-25.7 14.5-54.4 7t-43.3-33.2l-35.7-61.4q-14.5-25.7-6.9-54.4t33.2-43.3l148.4-85.9-148.4-85.9q-25.7-14.5-33.2-43.3t6.9-54.4l35.7-61.4q14.6-25.6 43.3-33.2t54.4 7l148.4 85.4v-171.3q0-29.1 21.2-50.3t50.3-21.2h71.4q29 0 50.2 21.2t21.2 50.3v171.3l148.5-85.4q25.6-14.5 54.4-7t43.2 33.2l35.7 61.4q14.5 25.7 7 54.4t-33.2 43.3l-148.4 85.9z" /></svg>