<svg width="1142.9" height="1000" xmlns="http://www.w3.org/2000/svg"><path d="m267.9 607.1q0-36.8-26.3-63t-63-26.2-63.1 26.2-26.2 63 26.2 63.1 63.1 26.2 63-26.2 26.3-63.1z m20-178.5h567l-49.7-199.2q-1.1-4.5-7.8-9.8t-11.7-5.3h-428.6q-5 0-11.7 5.3t-7.8 9.8z m765.7 178.5q0-36.8-26.3-63t-63-26.2-63.1 26.2-26.2 63 26.2 63.1 63.1 26.2 63-26.2 26.3-63.1z m89.3-53.5v214.3q0 7.8-5.1 12.8t-12.8 5h-53.6v71.4q0 44.7-31.2 75.9t-75.9 31.3-75.9-31.3-31.3-75.9v-71.4h-571.4v71.4q0 44.7-31.2 75.9t-75.9 31.3-75.9-31.3-31.3-75.9v-71.4h-53.5q-7.9 0-12.9-5t-5-12.8v-214.3q0-51.9 36.6-88.5t88.4-36.5h15.6l58.6-233.8q12.9-52.5 58.1-87.9t99.8-35.5h428.6q54.7 0 99.9 35.5t58 87.9l58.6 233.8h15.7q51.9 0 88.4 36.5t36.6 88.5z" /></svg>