<svg width="1000.0" height="1000" xmlns="http://www.w3.org/2000/svg"><path d="m35.2 857.1h-35.2v-785.7h35.2v785.7z m35.1-0.5h-17.8v-785.2h17.8v785.2z m52.5 0h-17.3v-785.2h17.3v785.2z m87.6 0h-17.3v-785.2h17.3v785.2z m87.6 0h-34.6v-785.2h34.6v785.2z m70.3 0h-17.3v-785.2h17.3v785.2z m35.2 0h-17.3v-785.2h17.3v785.2z m35.1 0h-17.3v-785.2h17.3v785.2z m87.6 0h-35.1v-785.2h35.1v785.2z m87.6 0h-35.1v-785.2h35.1v785.2z m70.4 0h-35.2v-785.2h35.2v785.2z m70.3 0h-35.2v-785.2h35.2v785.2z m52.4 0h-35.1v-785.2h35.1v785.2z m105.5 0h-52.5v-785.2h52.5v785.2z m35.1 0h-17.8v-785.2h17.8v785.2z m52.5 0.5h-35.2v-785.7h35.2v785.7z" /></svg>