<svg width="1000.0" height="1000" xmlns="http://www.w3.org/2000/svg"><path d="m508.9 946.4q0-8.9-8.9-8.9-32.9 0-56.6-23.7t-23.8-56.7q0-8.9-8.9-8.9t-8.9 8.9q0 40.8 28.7 69.5t69.5 28.8q8.9 0 8.9-9z m455.4-160.7q0 29-21.2 50.2t-50.2 21.2h-250q0 59.2-41.9 101t-101 41.9-101-41.9-41.9-101h-250q-29 0-50.2-21.2t-21.2-50.2q27.9-23.4 50.8-49.1t47.4-66.7 41.6-88.4 27.9-115 10.9-145.1q0-84.8 65.3-157.6t171.3-88.5q-4.5-10.6-4.5-21.7 0-22.4 15.7-38t37.9-15.6 37.9 15.6 15.7 38q0 11.1-4.5 21.7 106 15.7 171.3 88.5t65.3 157.6q0 77.6 10.9 145.1t27.9 115 41.6 88.4 47.4 66.7 50.8 49.1z" /></svg>