<svg width="1285.7" height="1000" xmlns="http://www.w3.org/2000/svg"><path d="m425.2 642.9h-175.2q-22.3 0-32.1-19.6t3.6-37.4l105-140q-36.3-17.3-76.5-17.3-73.7 0-126.1 52.4t-52.5 126.1 52.5 126.2 126.1 52.4q64.2 0 113.3-40.4t61.9-102.4z m-103.8-71.5h103.8q-10-47.4-41.8-82.6z m267.9 0l160.7-214.3h-267.9l-55.2 73.7q58.6 57.5 70.3 140.6h92.1z m625 35.7q0-73.6-52.5-126.1t-126.1-52.4q-33.5 0-67.5 13.4l97.1 145.1q8.4 12.8 5.6 27.3t-15.1 22.3q-8.4 6.2-20.1 6.2-19.5 0-29.6-16.2l-97.1-145.1q-51.9 53-51.9 125.5 0 73.7 52.5 126.2t126.1 52.4 126.1-52.4 52.5-126.2z m71.4 0q0 103.3-73.4 176.7t-176.6 73.3-176.6-73.3-73.4-176.7q0-54.1 22.1-102.4t61.1-83.4l-36.3-54.7-197 261.7q-10 14.6-28.5 14.6h-109.9q-12.8 91.5-83.1 152.9t-164.1 61.3q-103.2 0-176.6-73.3t-73.4-176.7 73.4-176.6 176.6-73.4q63.6 0 120 30.7l76.4-102.1h-125q-14.5 0-25.1-10.6t-10.6-25.1 10.6-25.1 25.1-10.6h214.3v71.4h242.8l-47.5-71.4h-123.9q-14.5 0-25.1-10.6t-10.6-25.1 10.6-25.1 25.1-10.6h142.9q18.4 0 29.6 15.6l149 223.2q50.8-24.6 107.1-24.6 103.3 0 176.6 73.4t73.4 176.6z" /></svg>