<svg width="1000.0" height="1000" xmlns="http://www.w3.org/2000/svg"><path d="m392.9 178.6v428.5q0 14.6-10.6 25.2t-25.2 10.6v321.4q0 14.5-10.6 25.1t-25.1 10.6h-285.7q-14.5 0-25.1-10.6t-10.6-25.1v-285.7l139-487.2q3.9-12.8 17.3-12.8h236.6z m178.5 0v392.8h-142.8v-392.8h142.8z m428.6 500v285.7q0 14.5-10.6 25.1t-25.1 10.6h-285.7q-14.5 0-25.1-10.6t-10.6-25.1v-321.4q-14.6 0-25.2-10.6t-10.6-25.2v-428.5h236.7q13.3 0 17.2 12.8z m-589.3-660.7v125h-196.4v-125q0-7.9 5-12.9t12.8-5h160.8q7.8 0 12.8 5t5 12.9z m375 0v125h-196.4v-125q0-7.9 5-12.9t12.8-5h160.8q7.8 0 12.8 5t5 12.9z" /></svg>