<svg width="1000.0" height="1000" xmlns="http://www.w3.org/2000/svg"><path d="m1000 785.7v214.3h-1000v-214.3q25.1 0 47.4-7.8t33-15.3 26.2-21q16.7-15 28.7-21.2t31.6-6.1 30.9 6.1 29.3 21.2q16.2 14 26.2 21.2t32.4 15.1 48 7.8q25.1 0 47.4-8.1t32.4-15 26.8-21q11.7-10.6 18.1-15t17.3-8.4 24.3-3.9q19.5 0 31.5 6.1t28.8 21.2q15.6 13.4 26.2 21t32.9 15.3 47.5 7.8 47.4-7.8 32.9-15.3 26.2-21q16.8-15 28.8-21.2t31.5-6.1q19 0 31 6.1t28.7 21.2q15.6 13.4 26.2 21t33 15.3 47.4 7.8z m0-178.6v107.2q-19.5 0-31-6.2t-29.3-21.2q-16.2-13.9-26.2-21.2t-32.4-15-47.4-7.8q-25.7 0-48 7.8t-32.4 15-26.2 21.2q-12.3 10.6-18.4 15.1t-17.3 8.4-24.5 3.9q-19.6 0-31.6-6.2t-28.7-21.2q-16.2-13.9-26.2-21.2t-32.4-15-48-7.8q-25.1 0-47.4 8t-32.4 15.1-26.8 20.9q-11.7 10.6-18.1 15.1t-17.3 8.4-24.3 3.9q-19.5 0-31.5-6.2t-28.8-21.2q-15.6-13.4-26.2-20.9t-32.9-15.3-47.4-7.8q-25.7 0-48 7.8t-32.4 15-26.2 21.2q-16.8 15.1-28.8 21.2t-31.5 6.2v-107.2q0-44.6 31.2-75.8t75.9-31.3h35.8v-250h142.8v250h142.9v-250h142.8v250h142.9v-250h142.8v250h35.8q44.6 0 75.9 31.3t31.2 75.8z m-714.3-482.1q0 43-20.1 66.1t-51.3 23.2q-29.6 0-50.5-20.9t-20.9-50.5q0-16.2 5.3-28.5t13.1-19 17.3-15.6 17.3-17.6 13.1-24.8 5.3-37.4q21.2 0 46.3 41.3t25.1 83.7z m285.7 0q0 43-20.1 66.1t-51.3 23.2q-29.6 0-50.5-20.9t-20.9-50.5q0-16.2 5.3-28.5t13.1-19 17.3-15.6 17.3-17.6 13.1-24.8 5.3-37.4q21.2 0 46.3 41.3t25.1 83.7z m285.7 0q0 43-20 66.1t-51.4 23.2q-29.6 0-50.5-20.9t-20.9-50.5q0-16.2 5.3-28.5t13.1-19 17.3-15.6 17.3-17.6 13.1-24.8 5.3-37.4q21.2 0 46.3 41.3t25.1 83.7z" /></svg>