<svg width="785.7" height="1000" xmlns="http://www.w3.org/2000/svg"><path d="m454.8 479.4q4.5 35.1-28.2 56.3t-62.2 3.4q-21.8-9.5-29.9-32.4t-0.2-45.8 29-32.3q20.1-10.1 40.4-6.7t35.8 19.8 15.3 37.7z m61.9-11.8q-7.8-59.7-63-91.5t-109.9-7.2q-35.2 15.6-56.1 49.3t-19.3 72.3q2.2 50.8 43.3 86.5t92.3 31.3q50.8-4.5 84.8-46.9t27.9-93.8z m133.4-302.4q-11.1-15.1-31.2-24.9t-32.4-12.2-39.6-7q-162.4-26.2-315.9 1.1-24 3.9-36.8 6.7t-30.7 12.3-27.9 24q16.7 15.6 42.4 25.4t41 12.2 48.9 6.5q127.2 16.1 250 0.5 35.1-4.4 49.9-6.7t40.5-12 41.8-25.9z m31.8 577.5q-4.4 14.6-8.6 42.7t-7.8 46.9-15.9 39.1-32.4 31.5q-48 26.8-105.8 39.9t-112.7 12.3-112.4-10.3q-25.7-4.5-45.5-10.1t-42.7-15.1-40.7-24.2-29.1-34.4q-13.9-53.5-31.8-162.9l3.4-8.9 10-5q124.5 82.5 282.7 82.5t283.2-82.5q11.7 3.3 13.4 12.8t-2.8 25.1-4.5 20.6z m101-536.2q-14.5 93.2-61.9 365.5-2.8 16.7-15.1 31.2t-24.3 22.4-30.4 17.3q-140.6 70.3-340.4 49.1-138.4-15.1-219.8-77.6-8.4-6.7-14.3-14.8t-9.5-19.5-5-19-3.3-22-3.1-19.6q-5-27.9-14.8-83.7t-15.6-90.1-13.1-82.3-12.3-88.2q1.7-14.5 9.8-27t17.5-21 25.2-16.7 25.6-12.6 26.8-10.3q69.8-25.7 174.7-35.7 211.5-20.7 377.2 27.9 86.5 25.7 120 68.1 8.9 11.1 9.2 28.4t-3.1 30.2z" /></svg>