<svg width="857.1" height="1000" xmlns="http://www.w3.org/2000/svg"><path d="m473.2 485.5q0-24-22.9-36.8t-42.9-0.6q-24 11.2-23.8 40.5t24.3 39.3q21.8 12.8 45.2-2.2t20.1-40.2z m44.7-8.9q4.4 36.8-20.1 67.5t-61.4 34-66.4-22.3-31.3-63.1q-1.1-27.3 14.3-51.9t40.4-35.7q39.1-17.3 79 5.6t45.5 65.9z m95.9-218.2q-11.1 11.7-29.8 18.9t-29.6 9-35.4 4.4q-86.5 11.2-180.8 0-24.6-3.3-35.2-5.3t-29.3-8.9-30.4-18.1q7.3-10.6 20.1-17.3t22.3-8.7 26.2-4.7q110.5-19.6 227.7-0.6 18.4 2.8 28.5 4.8t24 8.9 21.7 17.6z m23.5 416.3q0-3.9 3-14.8t1.7-17.9-9.7-9.2q-89.9 59.2-203.7 59.2t-204.3-59.2l-6.7 3.4-2.8 6.7q14.6 85.9 22.9 117.1 26.3 45.2 113.9 60.3 138.9 25.7 238.8-29.6 19-10.6 27.3-28.7t12.6-47.7 7-39.6z m72.5-386.8q5-29.5-4.4-41.8-24-30.7-86.5-49.1-120.6-35.2-271.8-20.1-73.7 6.7-126.1 25.7-21.2 8.3-33.2 13.9t-26.2 19-16.5 30.1q4.5 38 10.6 77t16.2 95.5 13.4 76.4q0.5 2.8 2.8 17.3t3.9 20.1 6.7 15.1 12.2 15.6q58.6 44.6 158.5 55.8 144.6 15.6 245.6-35.2 13.3-7.2 22-12.8t17.3-16.2 10.9-22.3q26.8-149 44.6-264z m147.3-55.8v535.8q0 66.4-47.1 113.5t-113.6 47.2h-535.7q-66.4 0-113.5-47.2t-47.2-113.5v-535.8q0-66.4 47.2-113.5t113.5-47.2h535.7q66.4 0 113.6 47.2t47.1 113.5z" /></svg>