<svg width="714.3" height="1000" xmlns="http://www.w3.org/2000/svg"><path d="m651.2 357.1q10.1 101.6-73.1 144 65.3 15.6 97.7 57.5t25.1 119.4q-3.9 39.6-18.1 69.8t-36 49.6-54.2 32.7-67.8 19.2-81.2 8.4v142.3h-85.9v-140.1q-44.6 0-68.1-0.5v140.6h-85.9v-142.3q-10.1 0-30.2-0.3t-30.6-0.3h-111.7l17.3-102.1h62q27.9 0 32.4-28.4v-224.4h8.9q-3.4-0.5-8.9-0.5v-160.2q-7.3-37.9-49.7-37.9h-62v-91.5l118.4 0.5q35.7 0 54.1-0.5v-140.7h85.9v137.9q45.8-1.2 68.1-1.2v-136.7h85.9v140.7q44.1 3.9 78.2 12.5t63 25.1 46.1 43.5 20.3 63.9z m-119.9 304.2q0-20.1-8.4-35.7t-20.7-25.7-32.1-17-36.5-10.4-41.3-5-38.5-1.7-36 0.6-26.5 0.6v188.6q4.5 0 20.6 0.3t26.8 0.2 29.6-0.8 32.6-2.2 31.9-4.8 30.9-7.8 26.5-11.7 22.1-16.7 13.6-22.4 5.4-28.4z m-39.7-265.7q0-18.4-6.9-32.6t-17.1-23.4-26.8-15.7-30.6-9.2-34.4-4.4-32.3-1.4-30.2 0.5-22 0.3v171.3q2.8 0 19.2 0.3t26 0 27.9-1.1 30.7-3.1 28.7-6.1 27.1-10.3 20.6-15.1 15.1-21.5 5-28.5z" /></svg>