<svg width="785.7" height="1000" xmlns="http://www.w3.org/2000/svg"><path d="m309.7 848.8q41.3 17.8 78.1 17.8 209.9 0 209.9-186.9 0-63.6-22.9-100.5-15.1-24.5-34.3-41.3t-37.7-25.9-44.9-14-46.9-5.8-52.7-1.1q-40.8 0-56.4 5.6 0 29.5-0.3 88.7t-0.3 88.1q0 4.5-0.5 37.7t-0.3 53.9 2.5 46.6 6.7 37.1z m-7.8-416.3q23.4 3.9 60.8 3.9 45.8 0 79.8-7.3t61.4-24.8 41.6-49.9 14.2-79.3q0-39.1-16.2-68.3t-44.1-45.8-60.2-24.3-69.2-7.8q-27.9 0-72.6 7.3 0 27.9 2.3 84.2t2.2 84.8q0 15.1-0.3 44.7t-0.3 44.1q0 25.6 0.6 38.5z m-301.9 496.1l1.1-52.5q8.4-2.2 47.4-8.9t59.2-15.1q3.9-6.7 7-15t4.7-18.7 3.1-18.2 1.7-20.9 0.2-19v-19.8-16.7q0-548-12.2-572-2.3-4.5-12.3-8.1t-24.8-6.1-27.7-4-27-2.5-17.1-1.6l-2.2-46.4q54.7-1.1 189.7-6.4t208.2-5.3q12.8 0 38.2 0.3t37.7 0.3q39.1 0 76.2 7.2t71.7 23.5 60.2 39.6 41.3 58.3 15.7 76.7q0 29.1-9.3 53.3t-21.7 40.2-36 32.1-40.7 25.1-46.9 22.3q85.9 19.6 143.1 74.8t57.2 138.4q0 55.8-19.5 100.2t-52.2 72.8-77 47.7-91.2 27.1-98.3 7.8q-24.5 0-73.6-1.7t-73.7-1.7q-59.1 0-171.3 6.2t-128.9 6.7z" /></svg>