<svg width="1000.0" height="1000" xmlns="http://www.w3.org/2000/svg"><path d="m318.6 328.7q-5.5-14-18.9-19.5t-27.4 0q-60.2 24.5-106.6 70.8t-70.8 106.6q-5.6 14 0 27.4t19.5 18.9q7.3 2.8 13.4 2.8 23.4 0 33.5-22.3 18.9-46.9 54.9-82.9t82.9-54.9q14-6.2 19.5-19.6t0-27.3z m525.7-198.7l25.7 25.7-136.2 135.6 38 37.9q10.6 10.6 10.6 25.4t-10.6 25.4l-35.8 35.7q49.7 89.9 49.7 191.4 0 79.8-31 152.7t-83.7 125.5-125.5 83.7-152.6 31-152.7-31-125.5-83.7-83.7-125.5-31-152.7 31-152.6 83.7-125.5 125.5-83.7 152.7-31q101.5 0 191.4 49.7l35.7-35.8q10.6-10.6 25.4-10.6t25.4 10.6l37.9 38z m4.5-31.2q-5.6 5.6-12.3 5.6-7.3 0-12.8-5.6l-50.8-50.3q-5-5.5-5-12.8t5-12.8q5.6-5 12.8-5t12.8 5l50.3 50.8q5.6 5 5.6 12.5t-5.6 12.6z m128.3 128.3q-6.1 5-12.8 5t-12.8-5l-50.3-50.8q-5.6-5-5.6-12.5t5.6-12.6q5.1-5.6 12.6-5.6t12.5 5.6l50.8 50.3q5 5.5 5 12.8t-5 12.8z m22.9-102.1q0 7.8-5 12.8t-12.9 5.1h-53.5q-7.8 0-12.9-5.1t-5-12.8 5-12.8 12.9-5.1h53.5q7.9 0 12.9 5.1t5 12.8z m-107.1-107.1v53.5q0 7.8-5.1 12.9t-12.8 5-12.8-5-5.1-12.9v-53.5q0-7.9 5.1-12.9t12.8-5 12.8 5 5.1 12.9z m84.2 30.6l-50.8 50.3q-5.5 5.6-12.2 5.6-7.3 0-12.9-5.6-5.6-5-5.6-12.6t5.6-12.5l50.3-50.8q5.5-5 12.8-5t12.8 5q5 5.6 5 12.8t-5 12.8z" /></svg>