<svg width="928.6" height="1000" xmlns="http://www.w3.org/2000/svg"><path d="m914.6 266.7q22.3 31.8 10.1 72l-153.5 505.6q-10.6 35.7-42.7 60t-68.3 24.3h-515.1q-43 0-82.9-29.9t-55.5-73.4q-13.4-37.4-1.1-70.8 0-2.3 1.7-15.1t2.2-20.6q0.5-4.5-1.7-12t-1.7-10.9q1.2-6.2 4.5-11.7t9.2-13.2 9.2-13.1q12.9-21.2 25.1-51t16.8-51.1q1.6-5.6 0.2-16.7t-0.2-15.7q1.6-6.1 9.5-15.6t9.4-12.8q11.8-20.1 23.5-51.4t13.9-50.2q0.6-5-1.4-17.8t0.3-15.7q2.2-7.2 12.3-17t12.3-12.5q10.6-14.6 23.7-47.2t15.3-53.8q0.6-4.5-1.6-14.3t-1.2-14.8q1.2-4.4 5.1-10t10-12.8 9.5-11.8q4.5-6.7 9.2-17t8.4-19.5 8.9-20.1 10.9-17.9 14.8-13.1 20.1-6.4 26.5 3.1l-0.6 1.7q21.2-5.1 28.5-5.1h424.6q41.3 0 63.7 31.3t10 72.5l-152.9 505.6q-20.1 66.4-39.9 85.7t-71.7 19.2h-484.9q-15.1 0-21.3 8.4-6.1 8.9-0.5 24 13.4 39 80.3 39h515.1q16.2 0 31.3-8.6t19.5-23.2l167.4-550.7q3.9-12.3 2.8-31.9 21.2 8.4 32.9 24z m-593.7 1.2q-2.3 7.2 1.1 12.5t11.1 5.3h339.3q7.3 0 14.3-5.3t9.2-12.5l11.7-35.8q2.2-7.2-1.1-12.5t-11.2-5.3h-339.3q-7.2 0-14.2 5.3t-9.2 12.5z m-46.3 142.8q-2.3 7.3 1.1 12.6t11.1 5.3h339.3q7.3 0 14.2-5.3t9.3-12.6l11.7-35.7q2.2-7.3-1.1-12.6t-11.2-5.3h-339.3q-7.2 0-14.2 5.3t-9.2 12.6z" /></svg>