<svg width="928.6" height="1000" xmlns="http://www.w3.org/2000/svg"><path d="m910.7 535.7q0 14.5-10.6 25.1t-25.1 10.6h-125q0 95.5-37.4 161.9l116.1 116.6q10.6 10.6 10.6 25.1t-10.6 25.1q-10.1 10.6-25.1 10.6t-25.1-10.6l-110.5-109.9q-2.8 2.8-8.4 7.2t-23.4 15.9-36.3 20.4-45.8 16.2-54.1 7.2v-500h-71.4v500q-28.5 0-56.7-7.5t-48.5-18.4-36.8-21.8-24.3-18.1l-8.4-7.8-102.1 115.5q-11.2 11.7-26.8 11.7-13.4 0-24-8.9-10.6-10.1-11.4-24.8t8.6-26l112.7-126.7q-32.3-63.6-32.3-152.9h-125q-14.5 0-25.1-10.6t-10.6-25.1 10.6-25.1 25.1-10.6h125v-164.1l-96.6-96.5q-10.6-10.6-10.6-25.1t10.6-25.1 25.1-10.6 25.2 10.6l96.5 96.5h471l96.5-96.5q10.6-10.6 25.1-10.6t25.1 10.6 10.6 25.1-10.6 25.1l-96.5 96.5v164.1h125q14.5 0 25.1 10.6t10.6 25.1z m-267.8-321.4h-357.2q0-74.2 52.2-126.4t126.4-52.2 126.4 52.2 52.2 126.4z" /></svg>