<svg width="857.1" height="1000" xmlns="http://www.w3.org/2000/svg"><path d="m750 0q14.5 0 25.1 10.6t10.6 25.1v928.6q0 14.5-10.6 25.1t-25.1 10.6h-714.3q-14.5 0-25.1-10.6t-10.6-25.1v-928.6q0-14.5 10.6-25.1t25.1-10.6h714.3z m-464.3 160.7v35.7q0 7.8 5 12.9t12.9 5h35.7q7.8 0 12.8-5t5-12.9v-35.7q0-7.8-5-12.8t-12.8-5h-35.7q-7.8 0-12.9 5t-5 12.8z m0 142.9v35.7q0 7.8 5 12.8t12.9 5h35.7q7.8 0 12.8-5t5-12.8v-35.7q0-7.8-5-12.9t-12.8-5h-35.7q-7.8 0-12.9 5t-5 12.9z m0 142.8v35.7q0 7.9 5 12.9t12.9 5h35.7q7.8 0 12.8-5t5-12.9v-35.7q0-7.8-5-12.8t-12.8-5h-35.7q-7.8 0-12.9 5t-5 12.8z m0 142.9v35.7q0 7.8 5 12.8t12.9 5.1h35.7q7.8 0 12.8-5.1t5-12.8v-35.7q0-7.8-5-12.8t-12.8-5.1h-35.7q-7.8 0-12.9 5.1t-5 12.8z m-71.4 178.6v-35.8q0-7.8-5-12.8t-12.9-5h-35.7q-7.8 0-12.8 5t-5 12.8v35.8q0 7.8 5 12.8t12.8 5h35.7q7.8 0 12.9-5t5-12.8z m0-142.9v-35.7q0-7.8-5-12.8t-12.9-5.1h-35.7q-7.8 0-12.8 5.1t-5 12.8v35.7q0 7.8 5 12.8t12.8 5.1h35.7q7.8 0 12.9-5.1t5-12.8z m0-142.9v-35.7q0-7.8-5-12.8t-12.9-5h-35.7q-7.8 0-12.8 5t-5 12.8v35.7q0 7.9 5 12.9t12.8 5h35.7q7.8 0 12.9-5t5-12.9z m0-142.8v-35.7q0-7.8-5-12.9t-12.9-5h-35.7q-7.8 0-12.8 5t-5 12.9v35.7q0 7.8 5 12.8t12.8 5h35.7q7.8 0 12.9-5t5-12.8z m0-142.9v-35.7q0-7.8-5-12.8t-12.9-5h-35.7q-7.8 0-12.8 5t-5 12.8v35.7q0 7.8 5 12.9t12.8 5h35.7q7.8 0 12.9-5t5-12.9z m285.7 714.3v-107.1q0-7.8-5-12.9t-12.9-5h-178.5q-7.8 0-12.9 5t-5 12.9v107.1q0 7.8 5 12.8t12.9 5.1h178.5q7.9 0 12.9-5.1t5-12.8z m0-285.7v-35.7q0-7.8-5-12.8t-12.9-5.1h-35.7q-7.8 0-12.8 5.1t-5 12.8v35.7q0 7.8 5 12.8t12.8 5.1h35.7q7.9 0 12.9-5.1t5-12.8z m0-142.9v-35.7q0-7.8-5-12.8t-12.9-5h-35.7q-7.8 0-12.8 5t-5 12.8v35.7q0 7.9 5 12.9t12.8 5h35.7q7.9 0 12.9-5t5-12.9z m0-142.8v-35.7q0-7.8-5-12.9t-12.9-5h-35.7q-7.8 0-12.8 5t-5 12.9v35.7q0 7.8 5 12.8t12.8 5h35.7q7.9 0 12.9-5t5-12.8z m0-142.9v-35.7q0-7.8-5-12.8t-12.9-5h-35.7q-7.8 0-12.8 5t-5 12.8v35.7q0 7.8 5 12.9t12.8 5h35.7q7.9 0 12.9-5t5-12.9z m142.9 571.5v-35.8q0-7.8-5.1-12.8t-12.8-5h-35.7q-7.8 0-12.8 5t-5.1 12.8v35.8q0 7.8 5.1 12.8t12.8 5h35.7q7.8 0 12.8-5t5.1-12.8z m0-142.9v-35.7q0-7.8-5.1-12.8t-12.8-5.1h-35.7q-7.8 0-12.8 5.1t-5.1 12.8v35.7q0 7.8 5.1 12.8t12.8 5.1h35.7q7.8 0 12.8-5.1t5.1-12.8z m0-142.9v-35.7q0-7.8-5.1-12.8t-12.8-5h-35.7q-7.8 0-12.8 5t-5.1 12.8v35.7q0 7.9 5.1 12.9t12.8 5h35.7q7.8 0 12.8-5t5.1-12.9z m0-142.8v-35.7q0-7.8-5.1-12.9t-12.8-5h-35.7q-7.8 0-12.8 5t-5.1 12.9v35.7q0 7.8 5.1 12.8t12.8 5h35.7q7.8 0 12.8-5t5.1-12.8z m0-142.9v-35.7q0-7.8-5.1-12.8t-12.8-5h-35.7q-7.8 0-12.8 5t-5.1 12.8v35.7q0 7.8 5.1 12.9t12.8 5h35.7q7.8 0 12.8-5t5.1-12.9z" /></svg>