<svg width="785.7" height="1000" xmlns="http://www.w3.org/2000/svg"><path d="m214.3 732.1v35.8q0 7.2-5.3 12.5t-12.6 5.3h-35.7q-7.2 0-12.5-5.3t-5.3-12.5v-35.8q0-7.2 5.3-12.5t12.5-5.3h35.7q7.3 0 12.6 5.3t5.3 12.5z m0-142.8v35.7q0 7.3-5.3 12.6t-12.6 5.3h-35.7q-7.2 0-12.5-5.3t-5.3-12.6v-35.7q0-7.3 5.3-12.6t12.5-5.3h35.7q7.3 0 12.6 5.3t5.3 12.6z m142.8 0v35.7q0 7.3-5.3 12.6t-12.5 5.3h-35.7q-7.3 0-12.6-5.3t-5.3-12.6v-35.7q0-7.3 5.3-12.6t12.6-5.3h35.7q7.2 0 12.5 5.3t5.3 12.6z m-142.8-142.9v35.7q0 7.3-5.3 12.6t-12.6 5.3h-35.7q-7.2 0-12.5-5.3t-5.3-12.6v-35.7q0-7.2 5.3-12.5t12.5-5.3h35.7q7.3 0 12.6 5.3t5.3 12.5z m428.6 285.7v35.8q0 7.2-5.3 12.5t-12.6 5.3h-35.7q-7.3 0-12.6-5.3t-5.3-12.5v-35.8q0-7.2 5.3-12.5t12.6-5.3h35.7q7.3 0 12.6 5.3t5.3 12.5z m-142.9-142.8v35.7q0 7.3-5.3 12.6t-12.6 5.3h-35.7q-7.2 0-12.5-5.3t-5.3-12.6v-35.7q0-7.3 5.3-12.6t12.5-5.3h35.7q7.3 0 12.6 5.3t5.3 12.6z m-142.9-142.9v35.7q0 7.3-5.3 12.6t-12.5 5.3h-35.7q-7.3 0-12.6-5.3t-5.3-12.6v-35.7q0-7.2 5.3-12.5t12.6-5.3h35.7q7.2 0 12.5 5.3t5.3 12.5z m-142.8-142.8v35.7q0 7.2-5.3 12.5t-12.6 5.3h-35.7q-7.2 0-12.5-5.3t-5.3-12.5v-35.7q0-7.3 5.3-12.6t12.5-5.3h35.7q7.3 0 12.6 5.3t5.3 12.6z m428.6 285.7v35.7q0 7.3-5.3 12.6t-12.6 5.3h-35.7q-7.3 0-12.6-5.3t-5.3-12.6v-35.7q0-7.3 5.3-12.6t12.6-5.3h35.7q7.3 0 12.6 5.3t5.3 12.6z m-142.9-142.9v35.7q0 7.3-5.3 12.6t-12.6 5.3h-35.7q-7.2 0-12.5-5.3t-5.3-12.6v-35.7q0-7.2 5.3-12.5t12.5-5.3h35.7q7.3 0 12.6 5.3t5.3 12.5z m-142.9-142.8v35.7q0 7.2-5.3 12.5t-12.5 5.3h-35.7q-7.3 0-12.6-5.3t-5.3-12.5v-35.7q0-7.3 5.3-12.6t12.6-5.3h35.7q7.2 0 12.5 5.3t5.3 12.6z m-142.8-142.9v35.7q0 7.3-5.3 12.6t-12.6 5.3h-35.7q-7.2 0-12.5-5.3t-5.3-12.6v-35.7q0-7.2 5.3-12.5t12.5-5.3h35.7q7.3 0 12.6 5.3t5.3 12.5z m428.6 285.7v35.7q0 7.3-5.3 12.6t-12.6 5.3h-35.7q-7.3 0-12.6-5.3t-5.3-12.6v-35.7q0-7.2 5.3-12.5t12.6-5.3h35.7q7.3 0 12.6 5.3t5.3 12.5z m-142.9-142.8v35.7q0 7.2-5.3 12.5t-12.6 5.3h-35.7q-7.2 0-12.5-5.3t-5.3-12.5v-35.7q0-7.3 5.3-12.6t12.5-5.3h35.7q7.3 0 12.6 5.3t5.3 12.6z m-142.9-142.9v35.7q0 7.3-5.3 12.6t-12.5 5.3h-35.7q-7.3 0-12.6-5.3t-5.3-12.6v-35.7q0-7.2 5.3-12.5t12.6-5.3h35.7q7.2 0 12.5 5.3t5.3 12.5z m285.8 142.9v35.7q0 7.2-5.3 12.5t-12.6 5.3h-35.7q-7.3 0-12.6-5.3t-5.3-12.5v-35.7q0-7.3 5.3-12.6t12.6-5.3h35.7q7.3 0 12.6 5.3t5.3 12.6z m-142.9-142.9v35.7q0 7.3-5.3 12.6t-12.6 5.3h-35.7q-7.2 0-12.5-5.3t-5.3-12.6v-35.7q0-7.2 5.3-12.5t12.5-5.3h35.7q7.3 0 12.6 5.3t5.3 12.5z m142.9 0v35.7q0 7.3-5.3 12.6t-12.6 5.3h-35.7q-7.3 0-12.6-5.3t-5.3-12.6v-35.7q0-7.2 5.3-12.5t12.6-5.3h35.7q7.3 0 12.6 5.3t5.3 12.5z m-142.9 767.9h214.3v-857.2h-642.9v857.2h214.3v-125q0-7.3 5.3-12.6t12.6-5.3h178.5q7.3 0 12.6 5.3t5.3 12.6v125z m285.7-892.9v928.6q0 14.5-10.6 25.1t-25.1 10.6h-714.3q-14.5 0-25.1-10.6t-10.6-25.1v-928.6q0-14.5 10.6-25.1t25.1-10.6h714.3q14.5 0 25.1 10.6t10.6 25.1z" /></svg>