<svg width="1000.0" height="1000" xmlns="http://www.w3.org/2000/svg"><path d="m928.6 357.1q29.5 0 50.5 21t20.9 50.5-20.9 50.5-50.5 20.9v214.3q0 29-21.2 50.2t-50.3 21.2q-232.7-193.6-453.1-212-32.3 10.6-50.8 36.8t-17.3 56.1 22.4 51.6q-11.2 18.4-12.9 36.5t3.4 32.4 18.7 30.7 26.8 27.9 34.3 28.2q-16.2 32.4-62.2 46.3t-94.1 6.4-73.6-31q-3.9-12.8-16.5-48.8t-17.9-52.7-12.8-49.7-8.4-56.3 2-55 12.3-61.7h-68.1q-36.8 0-63.1-26.2t-26.2-63.1v-107.1q0-36.8 26.2-63.1t63.1-26.2h267.8q242.8 0 500-214.3 29.1 0 50.3 21.2t21.2 50.3v214.2z m-71.5 337.1v-532.4q-219.8 168.6-428.5 191.4v150.7q210.4 23.4 428.5 190.3z" /></svg>