<svg width="857.1" height="1000" xmlns="http://www.w3.org/2000/svg"><path d="m571.4 500q0 59.2-41.8 101t-101 41.9-101-41.9-41.9-101 41.9-101 101-41.9 101 41.9 41.8 101z m71.5 0q0-88.7-62.8-151.5t-151.5-62.8-151.5 62.8-62.8 151.5 62.8 151.5 151.5 62.8 151.5-62.8 62.8-151.5z m71.4 0q0 118.3-83.7 202t-202 83.7-202-83.7-83.7-202 83.7-202 202-83.7 202 83.7 83.7 202z m71.4 0q0-72.5-28.4-138.7t-76.2-113.8-113.9-76.2-138.6-28.4-138.7 28.4-113.8 76.2-76.2 113.8-28.5 138.7 28.5 138.7 76.2 113.8 113.8 76.2 138.7 28.4 138.6-28.4 113.9-76.2 76.2-113.8 28.4-138.7z m71.4 0q0 116.6-57.4 215.1t-156 156-215.1 57.5-215.2-57.5-155.9-156-57.5-215.1 57.5-215.1 155.9-156 215.2-57.5 215.1 57.5 156 156 57.4 215.1z" /></svg>