<svg width="857.1" height="1000" xmlns="http://www.w3.org/2000/svg"><path d="m214.3 678.6q0-29.6-20.9-50.5t-50.5-21-50.5 21-21 50.5 21 50.5 50.5 20.9 50.5-20.9 20.9-50.5z m571.4 0q0-29.6-20.9-50.5t-50.5-21-50.5 21-20.9 50.5 20.9 50.5 50.5 20.9 50.5-20.9 20.9-50.5z m-25.7-221l-40.1-214.3q-2.8-12.8-12.6-20.9t-22.6-8.1h-512.3q-12.8 0-22.6 8.1t-12.5 20.9l-40.2 214.3q-2.8 16.7 7.8 29.6t27.4 12.8h592.6q16.7 0 27.3-12.8t7.8-29.6z m-126.1-341.5q0-11.2-7.8-19t-19-7.8h-357.1q-11.2 0-19 7.8t-7.8 19 7.8 18.9 19 7.9h357.1q11.2 0 19-7.9t7.8-18.9z m223.2 404.5v336.5h-71.4v71.5q0 29.5-20.9 50.5t-50.5 20.9-50.5-20.9-20.9-50.5v-71.5h-428.6v71.5q0 29.5-20.9 50.5t-50.5 20.9-50.5-20.9-21-50.5v-71.5h-71.4v-336.5q0-62.5 14-124.4l57.4-253.3q5.1-43.6 54.4-76.5t128.4-49.7 174.4-16.7 174.4 16.7 128.3 49.7 54.4 76.5l58.6 253.3q12.8 56.9 12.8 124.4z" /></svg>