<svg width="1142.9" height="1000" xmlns="http://www.w3.org/2000/svg"><path d="m1017.9 500q51.9 0 88.4 36.6t36.6 88.4v214.3q0 7.8-5.1 12.8t-12.8 5h-53.6v35.8q0 44.6-31.2 75.8t-75.9 31.3-75.9-31.3-31.3-75.8v-35.8h-571.4v35.8q0 44.6-31.2 75.8t-75.9 31.3-75.9-31.3-31.3-75.8v-35.8h-53.5q-7.9 0-12.9-5t-5-12.8v-214.3q0-51.9 36.6-88.4t88.4-36.6h15.6l58.6-233.8q12.9-52.5 58.1-87.9t99.8-35.4h71.5v-125q0-7.9 5-12.9t12.8-5h250q7.8 0 12.9 5t5 12.9v125h71.4q54.7 0 99.9 35.4t58 87.9l58.6 233.8h15.7z m-839.3 267.9q36.8 0 63-26.3t26.3-63-26.3-63.1-63-26.2-63.1 26.2-26.2 63.1 26.2 63 63.1 26.3z m109.3-267.9h567l-49.7-199.2q-1.1-4.5-7.8-9.8t-11.7-5.3h-428.6q-5 0-11.7 5.3t-7.8 9.8z m676.4 267.9q36.8 0 63-26.3t26.3-63-26.3-63.1-63-26.2-63.1 26.2-26.2 63.1 26.2 63 63.1 26.3z" /></svg>