<svg width="1000.0" height="1000" xmlns="http://www.w3.org/2000/svg"><path d="m214.3 857.1q0-29.5-20.9-50.5t-50.5-20.9-50.5 20.9-21 50.5 21 50.5 50.5 21 50.5-21 20.9-50.5z m214.3 0q0-29.5-21-50.5t-50.5-20.9-50.5 20.9-20.9 50.5 20.9 50.5 50.5 21 50.5-21 21-50.5z m-214.3-214.2q0-29.6-20.9-50.5t-50.5-21-50.5 21-21 50.5 21 50.5 50.5 20.9 50.5-20.9 20.9-50.5z m428.6 214.2q0-29.5-21-50.5t-50.5-20.9-50.5 20.9-20.9 50.5 20.9 50.5 50.5 21 50.5-21 21-50.5z m-214.3-214.2q0-29.6-21-50.5t-50.5-21-50.5 21-20.9 50.5 20.9 50.5 50.5 20.9 50.5-20.9 21-50.5z m-214.3-214.3q0-29.6-20.9-50.5t-50.5-21-50.5 21-21 50.5 21 50.5 50.5 20.9 50.5-20.9 20.9-50.5z m428.6 214.3q0-29.6-21-50.5t-50.5-21-50.5 21-20.9 50.5 20.9 50.5 50.5 20.9 50.5-20.9 21-50.5z m-214.3-214.3q0-29.6-21-50.5t-50.5-21-50.5 21-20.9 50.5 20.9 50.5 50.5 20.9 50.5-20.9 21-50.5z m428.5 428.5v-214.2q0-29.1-21.2-50.3t-50.2-21.2-50.2 21.2-21.2 50.3v214.2q0 29.1 21.2 50.3t50.2 21.2 50.2-21.2 21.2-50.3z m-214.2-428.5q0-29.6-21-50.5t-50.5-21-50.5 21-20.9 50.5 20.9 50.5 50.5 20.9 50.5-20.9 21-50.5z m214.2-178.6v-142.9q0-14.5-10.6-25.1t-25.1-10.6h-714.3q-14.5 0-25.1 10.6t-10.6 25.1v142.9q0 14.5 10.6 25.1t25.1 10.6h714.3q14.5 0 25.1-10.6t10.6-25.1z m0 178.6q0-29.6-20.9-50.5t-50.5-21-50.5 21-20.9 50.5 20.9 50.5 50.5 20.9 50.5-20.9 20.9-50.5z m71.5-357.2v857.2q0 29-21.2 50.2t-50.3 21.2h-785.7q-29 0-50.2-21.2t-21.2-50.2v-857.2q0-29 21.2-50.2t50.2-21.2h785.7q29.1 0 50.3 21.2t21.2 50.2z" /></svg>