<svg width="928.6" height="1000" xmlns="http://www.w3.org/2000/svg"><path d="m71.4 928.6h160.7v-160.7h-160.7v160.7z m196.5 0h178.5v-160.7h-178.5v160.7z m-196.5-196.5h160.7v-178.5h-160.7v178.5z m196.5 0h178.5v-178.5h-178.5v178.5z m-196.5-214.2h160.7v-160.8h-160.7v160.8z m410.7 410.7h178.6v-160.7h-178.6v160.7z m-214.2-410.7h178.5v-160.8h-178.5v160.8z m428.5 410.7h160.7v-160.7h-160.7v160.7z m-214.3-196.5h178.6v-178.5h-178.6v178.5z m-196.4-482.1v-160.7q0-7.3-5.3-12.6t-12.5-5.3h-35.8q-7.2 0-12.5 5.3t-5.3 12.6v160.7q0 7.3 5.3 12.6t12.5 5.3h35.8q7.2 0 12.5-5.3t5.3-12.6z m410.7 482.1h160.7v-178.5h-160.7v178.5z m-214.3-214.2h178.6v-160.8h-178.6v160.8z m214.3 0h160.7v-160.8h-160.7v160.8z m17.9-267.9v-160.7q0-7.3-5.3-12.6t-12.6-5.3h-35.7q-7.2 0-12.5 5.3t-5.3 12.6v160.7q0 7.3 5.3 12.6t12.5 5.3h35.7q7.3 0 12.6-5.3t5.3-12.6z m214.3-35.7v714.3q0 29-21.2 50.2t-50.3 21.2h-785.7q-29 0-50.2-21.2t-21.2-50.2v-714.3q0-29 21.2-50.2t50.2-21.2h71.5v-53.6q0-36.8 26.2-63.1t63-26.2h35.8q36.8 0 63 26.2t26.2 63.1v53.6h214.3v-53.6q0-36.8 26.3-63.1t63-26.2h35.7q36.9 0 63.1 26.2t26.2 63.1v53.6h71.4q29.1 0 50.3 21.2t21.2 50.2z" /></svg>