<svg width="928.6" height="1000" xmlns="http://www.w3.org/2000/svg"><path d="m71.4 928.6h785.7v-571.5h-785.7v571.5z m214.3-678.6v-160.7q0-7.8-5-12.8t-12.8-5.1h-35.8q-7.8 0-12.8 5.1t-5 12.8v160.7q0 7.8 5 12.8t12.8 5.1h35.8q7.8 0 12.8-5.1t5-12.8z m428.6 0v-160.7q0-7.8-5-12.8t-12.9-5.1h-35.7q-7.8 0-12.8 5.1t-5 12.8v160.7q0 7.8 5 12.8t12.8 5.1h35.7q7.8 0 12.9-5.1t5-12.8z m214.3-35.7v714.3q0 29-21.2 50.2t-50.3 21.2h-785.7q-29 0-50.2-21.2t-21.2-50.2v-714.3q0-29 21.2-50.2t50.2-21.2h71.5v-53.6q0-36.8 26.2-63.1t63-26.2h35.8q36.8 0 63 26.2t26.2 63.1v53.6h214.3v-53.6q0-36.8 26.3-63.1t63-26.2h35.7q36.9 0 63.1 26.2t26.2 63.1v53.6h71.4q29.1 0 50.3 21.2t21.2 50.2z" /></svg>