<svg width="1071.4" height="1000" xmlns="http://www.w3.org/2000/svg"><path d="m535.7 375q66.4 0 113.6 47.2t47.1 113.5-47.1 113.6-113.6 47.1-113.5-47.1-47.2-113.6 47.2-113.5 113.5-47.2z m392.9-232.1q59.1 0 101 41.8t41.8 101v500q0 59.2-41.8 101t-101 41.9h-785.7q-59.2 0-101-41.9t-41.9-101v-500q0-59.1 41.9-101t101-41.8h125l28.4-75.9q10.6-27.4 38.8-47.2t57.8-19.8h285.7q29.5 0 57.7 19.8t38.8 47.2l28.5 75.9h125z m-392.9 642.8q103.3 0 176.6-73.4t73.4-176.6-73.4-176.6-176.6-73.4-176.6 73.4-73.4 176.6 73.4 176.6 176.6 73.4z" /></svg>