<svg width="1000.0" height="1000" xmlns="http://www.w3.org/2000/svg"><path d="m517.9 464.3q0-7.8-5.1-12.8t-12.8-5.1q-36.8 0-63.1 26.3t-26.2 63q0 7.8 5 12.8t12.9 5.1 12.8-5.1 5-12.8q0-22.3 15.7-37.9t37.9-15.7q7.8 0 12.8-5t5.1-12.8z m125 72.5q0 59.2-41.9 101t-101 41.9-101-41.9-41.9-101 41.9-101 101-41.8 101 41.8 41.9 101z m-571.5 320.3h857.2v-71.4h-857.2v71.4z m642.9-320.3q0-88.7-62.8-151.5t-151.5-62.8-151.5 62.8-62.8 151.5 62.8 151.5 151.5 62.8 151.5-62.8 62.8-151.5z m-571.4-358.2h214.2v-71.5h-214.2v71.5z m-71.5 107.1h857.2v-65.8-77h-462.1l-35.7 71.4h-359.4v71.4z m928.6-142.8v714.2q0 29.6-20.9 50.5t-50.5 21h-857.2q-29.5 0-50.5-21t-20.9-50.5v-714.2q0-29.6 20.9-50.5t50.5-21h857.2q29.5 0 50.5 21t20.9 50.5z" /></svg>