<svg width="1285.7" height="1000" xmlns="http://www.w3.org/2000/svg"><path d="m179.7 472.7h-8.4q-10.6 0-10.6-10.1 0-15.6 10.6-47.4 2.8-8.4 8.4-10.9t15.6-2.5q43 0 43 27.3 0 22.9-17 33.2t-41.6 10.4z m190.8 89.8q-26.2 0-26.2-16.2 0-34.6 68.6-34.6l1.7 1.7q-2.8 49.1-44.1 49.1z m432-88.7h-8.4q-10.6 0-10.6-10.6 0-15.7 10.6-47.5 2.8-8.3 8.1-10.6t15.9-2.2q42.9 0 42.9 27.3 0 22.9-17 33.2t-41.5 10.4z m190.8 89.3q-26.2 0-26.2-16.8 0-34.6 68.6-34.6l1.7 1.7q-2.8 49.7-44.1 49.7z m-785.2-204.8h-71.4q-4.4 0-8.1 2.2t-4.7 4.2-3.9 7q-1.7 3.9-25.1 106t-23.5 107.1q0 3.9 3.1 7t7.5 3.1h34.6q14 0 18.2-19.3l8.3-38.5t18.2-19.2q26.2 0 48.8-4.2t44.9-13.7 35.5-29.3 13.1-47.2q0-20-8.1-34t-22.9-20.4-29.9-8.6-34.6-2.2z m193.1 53.5q-21.2 0-41.3 3.4-1.1 0-4.7 0.5t-5 0.9l-4.2 0.8t-4.2 1.1-3.6 1.7-3.7 2.2-2.7 2.8-2.6 3.9-2.2 5.1q-5 16.1-5 21.7t5 5.6q2.8 0 12-2.8t10.9-3.3q16.7-4.5 32.4-4.5 41.2 0 41.2 20.1 0 6.1-5.5 7.8-4.5 1.1-10.1 1.7t-12 0.8-9.7 0.8q-21.2 2.3-36 5.6t-31.6 10.9-25.4 21.8-8.6 34.8q0 21.3 14.5 33.2t35.7 12q13.4 0 25.4-3.6t18.4-7.2 21.5-13.1q-1.7 3.9-1.7 8.3t3.1 7.6 7 3h31.2q0.6-0.5 3.9-1.9t4.2-2 2.8-1.9 2.8-3.1 1.4-4.5l25.1-108.2q2.2-7.3 2.2-16.8 0-45.2-80.9-45.2z m294.7 2.8h-41.3q-12.3 0-21.8 12.9-2.8 3.9-16.4 28.4t-26 45.5-14.5 21.5l-2.8-2.3q0-42.9-15.1-92.6-0.5-2.8-1.9-4.7t-3.4-3.7-3.6-2.7-4.7-1.7-4.8-0.9-5.3-0.5-5-0.3h-5.6-4.7q-21.2 0-21.2 11.7l0.5 2.8q2.8 29.6 14 84.3t13.9 79.8q1.1 8.9 1.1 13.4 0 10.6-17 34.3t-17 32.6q0 7.3 22.3 7.3 34.1 0 42.4-14l136.8-231.5q5.5-11.2 5.5-14.6 0-5-4.4-5z m135-55.2h-72q-10 0-16.2 12.8-3.3 7.3-25.9 106.9t-22.6 106.3q0 11.1 24 11.1h4.2 5 5t5.3-0.5 4.8-1.1 4.7-1.7 3.6-2.5 3.1-3.4 1.7-4.7l11.7-50.8q1.1-5.6 5.9-9.5t10.8-3.9q26.3 0 48.9-3.9t44.9-13.7 35.4-29.3 13.1-46.8q0-20.1-8.1-34.1t-22.8-20.3-29.9-8.7-34.6-2.2z m193.1 52.4q-14.5 0-41.3 3.4-21.2 3.3-26.8 8.9-3.9 4.5-6.1 10.6-4.5 13.4-4.5 21.8 0 5.6 4.5 5.6 0.5 0 22.9-6.7 16.7-4.5 32.3-4.5 41.3 0 41.3 20.1 0 6.7-5.6 7.8-2.2 0.6-31.8 3.9-21.2 2.2-36 5.6t-31.5 10.9-25.4 21.7-8.6 34.9 14.5 32.6 35.7 12q13.4 0 25.1-3.3t19-7.3 21.2-13.3q-1.7 8.3-1.7 8.9 0 2.8 1.1 4.7t3.6 3.1 4.5 1.9 5.9 1.2 5.3 0.2h5.3 4.4q23.5 0 26.8-13.9l25.1-108.3q1.7-8.3 1.7-17.3 0-45.2-80.9-45.2z m179.7-50.8h-30.7q-14 0-18.4 22.4-5.6 24.5-20.4 93.2t-23.7 106v2.8q0 8.9 8.9 10h0.6 31.8q5.6 0 10.3-3.6t5.9-9.2l46.3-208.7h-0.6l0.6-2.8q0-3.9-3.1-7t-7.5-3.1z m82-218.1v714.2q0 29.1-21.2 50.3t-50.2 21.2h-1142.9q-29 0-50.2-21.2t-21.2-50.3v-714.2q0-29.1 21.2-50.3t50.2-21.2h1142.9q29 0 50.2 21.2t21.2 50.3z" /></svg>