<svg width="1142.9" height="1000" xmlns="http://www.w3.org/2000/svg"><path d="m438.1 562.5h115.5q-7.8 88.2-55 138.7t-119.7 50.5q-90.4 0-142-64.8t-51.6-176.3q0-108.3 51.9-173.8t130-65.6q82.6 0 129.5 48.6t54.1 137.8h-113.3q-2.8-35.7-19.8-55.3t-45.5-19.5q-31.8 0-49.4 33.8t-17.6 99q0 26.8 2.8 46.9t10.1 38.8 22.3 28.7 36.8 10.1q53 0 60.9-77.6z m397.3 0h114.9q-7.8 88.2-54.7 138.7t-119.4 50.5q-90.4 0-142-64.8t-51.6-176.3q0-108.3 51.9-173.8t130-65.6q82.6 0 129.5 48.6t54.1 137.8h-113.8q-2.3-35.7-19.6-55.3t-45.2-19.5q-31.8 0-49.4 33.8t-17.5 99q0 26.8 2.8 46.9t10 38.8 22 28.7 36.6 10.1q27.3 0 42.7-21.2t18.7-56.4z m200.3-66.4q0-115.5-8.6-171.3t-33.8-89.9q-3.3-4.4-7.5-7.8t-12-8.3-9-6.2q-47.9-35.1-388.9-35.1-348.8 0-396.2 35.1-2.8 2.2-9.8 6.4t-11.7 7.8-8.1 8.1q-25.1 33.5-33.5 89t-8.3 172.2q0 116.1 8.3 171.6t33.5 89.6q3.4 4.4 8.4 8.3t11.4 7.8 9.8 6.7q24.5 18.4 133.6 27.4t262.6 8.9q340.4 0 388.9-36.3 2.8-2.2 9.5-6.1t11.5-7.8 7.5-8.9q25.7-33.5 34-88.8t8.4-172.4z m107.2-424.7v857.2h-1142.9v-857.2h1142.9z" /></svg>