<svg width="928.6" height="1000" xmlns="http://www.w3.org/2000/svg"><path d="m812.5 678.6q0-22.3-15.6-38l-116.1-116q-15.6-15.7-37.9-15.7-23.5 0-40.2 17.9 1.7 1.7 10.6 10.3t12 12 8.3 10.6 7.3 14.2 2 15.4q0 22.3-15.7 37.9t-37.9 15.7q-8.4 0-15.4-2t-14.2-7.3-10.6-8.3-12-12-10.3-10.6q-18.4 17.3-18.4 40.7 0 22.3 15.6 38l115 115.5q15 15 37.9 15 22.3 0 37.9-14.5l82.1-81.4q15.6-15.7 15.6-37.4z m-392.3-393.4q0-22.4-15.6-38l-115-115.5q-15.6-15.6-37.9-15.6-21.8 0-38 15l-82 81.5q-15.6 15.6-15.6 37.4 0 22.3 15.6 37.9l116.1 116.1q15 15.1 37.9 15.1 23.5 0 40.2-17.3-1.7-1.7-10.6-10.3t-12-12-8.4-10.6-7.2-14.3-2-15.3q0-22.3 15.6-38t38-15.6q8.4 0 15.3 2t14.3 7.2 10.6 8.4 12 12 10.3 10.6q18.4-17.3 18.4-40.7z m499.4 393.4q0 66.9-47.4 113.3l-82 81.4q-46.3 46.3-113.3 46.3-67.5 0-113.8-47.4l-115-115.5q-46.3-46.3-46.3-113.3 0-68.6 49.1-116.6l-49.1-49.1q-48 49.1-116.1 49.1-66.9 0-113.8-46.9l-116.1-116.1q-46.9-46.8-46.9-113.8t47.5-113.3l82-81.5q46.3-46.3 113.3-46.3 67.5 0 113.8 47.5l115 115.5q46.3 46.3 46.3 113.3 0 68.6-49.1 116.6l49.1 49.1q48-49.1 116.1-49.1 66.9 0 113.8 46.9l116.1 116q46.8 46.9 46.8 113.9z" /></svg>