<svg width="857.1" height="1000" xmlns="http://www.w3.org/2000/svg"><path d="m653.5 453.7l-235.5 235.5q-10.6 10.6-25.1 10.6t-25.2-10.6l-164-164.1q-10.6-10.6-10.6-25.1t10.6-25.1l56.9-56.9q10.6-10.6 25.1-10.6t25.1 10.6l82.1 82 153.4-153.5q10.6-10.6 25.1-10.6t25.1 10.6l57 57q10.6 10.6 10.6 25.1t-10.6 25.1z m78.6 46.3q0-82.6-40.7-152.3t-110.5-110.5-152.3-40.8-152.4 40.8-110.5 110.5-40.7 152.3 40.7 152.3 110.5 110.5 152.4 40.8 152.3-40.8 110.5-110.5 40.7-152.3z m125 0q0 116.6-57.4 215.1t-156 156-215.1 57.5-215.2-57.5-155.9-156-57.5-215.1 57.5-215.1 155.9-156 215.2-57.5 215.1 57.5 156 156 57.4 215.1z" /></svg>