<svg width="857.1" height="1000" xmlns="http://www.w3.org/2000/svg"><path d="m500 303.6v250q0 7.8-5 12.8t-12.9 5h-178.5q-7.8 0-12.9-5t-5-12.8v-35.7q0-7.9 5-12.9t12.9-5h125v-196.4q0-7.8 5-12.9t12.8-5h35.7q7.9 0 12.9 5t5 12.9z m232.1 196.4q0-82.6-40.7-152.3t-110.5-110.5-152.3-40.8-152.4 40.8-110.5 110.5-40.7 152.3 40.7 152.3 110.5 110.5 152.4 40.8 152.3-40.8 110.5-110.5 40.7-152.3z m125 0q0 116.6-57.4 215.1t-156 156-215.1 57.5-215.2-57.5-155.9-156-57.5-215.1 57.5-215.1 155.9-156 215.2-57.5 215.1 57.5 156 156 57.4 215.1z" /></svg>