<svg width="1071.4" height="1000" xmlns="http://www.w3.org/2000/svg"><path d="m714.3 517.9q0-7.9-5-12.9t-12.9-5h-125v-196.4q0-7.3-5.3-12.6t-12.5-5.3h-107.2q-7.2 0-12.5 5.3t-5.3 12.6v196.4h-125q-7.3 0-12.6 5.3t-5.3 12.6q0 7.8 5 12.8l196.5 196.4q5 5 12.8 5t12.8-5l195.9-195.8q5.6-6.7 5.6-13.4z m357.1 125q0 88.7-62.8 151.5t-151.5 62.7h-607.1q-103.2 0-176.6-73.3t-73.4-176.7q0-72.5 39.1-133.9t104.9-92.1q-1.1-16.7-1.1-24 0-118.3 83.7-202t202-83.7q87 0 159.3 48.6t105.2 128.9q39.6-34.6 92.6-34.6 59.2 0 101 41.8t41.9 101q0 42.5-22.9 77.1 72.5 17.3 119.1 75.6t46.6 133.1z" /></svg>