<svg width="571.4" height="1000" xmlns="http://www.w3.org/2000/svg"><path d="m160.7 821.4q0-22.3-15.6-37.9t-38-15.6-37.9 15.6-15.6 37.9 15.6 38 37.9 15.6 38-15.6 15.6-38z m0-642.8q0-22.3-15.6-38t-38-15.6-37.9 15.6-15.6 38 15.6 37.9 37.9 15.6 38-15.6 15.6-37.9z m357.2 71.4q0-22.3-15.7-37.9t-37.9-15.7-38 15.7-15.6 37.9 15.6 37.9 38 15.7 37.9-15.7 15.7-37.9z m53.5 0q0 29-14.5 53.9t-39 38.7q-1.2 160.2-126.2 231.1-37.9 21.2-113.2 45.2-71.5 22.3-94.6 39.6t-23.2 55.8v14.5q24.6 13.9 39.1 38.8t14.5 53.8q0 44.7-31.3 75.9t-75.9 31.3-75.8-31.3-31.3-75.9q0-29 14.5-53.8t39.1-38.8v-457.6q-24.6-13.9-39.1-38.8t-14.5-53.8q0-44.7 31.3-75.9t75.8-31.3 75.9 31.3 31.3 75.9q0 29-14.5 53.8t-39.1 38.8v277.3q30.1-14.5 86-31.8 30.6-9.4 48.8-16.4t39.3-17.3 32.9-22.1 22.6-28.4 15.7-38.8 4.7-51.1q-24.5-13.9-39-38.7t-14.6-53.9q0-44.6 31.3-75.9t75.9-31.2 75.9 31.2 31.2 75.9z" /></svg>