<svg width="1071.4" height="1000" xmlns="http://www.w3.org/2000/svg"><path d="m344.3 780.7l-27.9 27.9q-5.6 5.6-12.8 5.6t-12.9-5.6l-260-260.1q-5.6-5.5-5.6-12.8t5.6-12.8l260-260.1q5.6-5.5 12.9-5.5t12.8 5.5l27.9 27.9q5.6 5.6 5.6 12.9t-5.6 12.8l-219.3 219.3 219.3 219.3q5.6 5.6 5.6 12.9t-5.6 12.8z m329.8-595.4l-208.1 720.4q-2.3 7.2-8.7 10.9t-13.1 1.4l-34.6-9.5q-7.3-2.2-10.9-8.7t-1.4-13.6l208.2-720.5q2.2-7.2 8.6-10.8t13.1-1.4l34.6 9.4q7.3 2.3 10.9 8.7t1.4 13.7z m366.6 363.2l-260 260.1q-5.6 5.6-12.8 5.6t-12.9-5.6l-27.9-27.9q-5.6-5.6-5.6-12.8t5.6-12.9l219.3-219.3-219.3-219.3q-5.6-5.6-5.6-12.8t5.6-12.9l27.9-27.9q5.6-5.5 12.9-5.5t12.8 5.5l260 260.1q5.6 5.6 5.6 12.8t-5.6 12.8z" /></svg>