<svg width="1000.0" height="1000" xmlns="http://www.w3.org/2000/svg"><path d="m120.5 652.3l336.5 224.4v-200.4l-186.4-124.4z m-34.6-80.3l107.7-72-107.7-72v144z m457.1 304.7l336.5-224.4-150.1-100.4-186.4 124.4v200.4z m-43-275.1l151.8-101.6-151.8-101.6-151.8 101.6z m-229.4-153.5l186.4-124.4v-200.4l-336.5 224.4z m535.8 51.9l107.7 72v-144z m-77-51.9l150.1-100.4-336.5-224.4v200.4z m270.6-100.4v304.6q0 22.9-19 35.8l-457 304.6q-11.7 7.3-24 7.3t-24-7.3l-457-304.6q-19-12.9-19-35.8v-304.6q0-22.9 19-35.8l457-304.6q11.7-7.3 24-7.3t24 7.3l457 304.6q19 12.9 19 35.8z" /></svg>