<svg width="1000.0" height="1000" xmlns="http://www.w3.org/2000/svg"><path d="m500 214.3q-113.8 0-212.9 38.8t-157.4 104.6-58.3 142.3q0 62.5 39.9 119.1t112.5 98l48.5 27.9-15 53.5q-13.4 50.8-39.1 96 84.8-35.1 153.5-95.4l23.9-21.2 31.9 3.4q38.5 4.4 72.5 4.4 113.8 0 212.9-38.8t157.4-104.6 58.3-142.3-58.3-142.3-157.4-104.6-212.9-38.8z m500 285.7q0 97.1-67 179.4t-181.9 130-251.1 47.7q-39.1 0-80.9-4.4-110.5 97.6-256.7 135-27.4 7.8-63.6 12.3h-2.8q-8.4 0-15.1-5.9t-8.9-15.3v-0.6q-1.7-2.2-0.3-6.7t1.1-5.5 2.5-5.3l3.4-5.1t3.9-4.7 4.5-5q3.9-4.5 17.3-19.3t19.2-21.2 17.3-22 18.1-28.5 15.1-32.9 14.5-42.4q-87.6-49.7-138.1-122.8t-50.5-156.8q0-97.1 67-179.4t181.9-130 251.1-47.7 251.1 47.7 181.9 130 67 179.4z" /></svg>