<svg width="1000.0" height="1000" xmlns="http://www.w3.org/2000/svg"><path d="m946.4 214.3q22.4 0 38 15.6t15.6 38v678.5q0 22.3-15.6 38t-38 15.6h-535.7q-22.3 0-37.9-15.6t-15.7-38v-160.7h-303.5q-22.4 0-38-15.6t-15.6-38v-375q0-22.3 11.2-49.1t26.7-42.4l227.7-227.7q15.7-15.6 42.4-26.7t49.1-11.2h232.2q22.3 0 37.9 15.6t15.7 38v183q37.9-22.3 71.4-22.3h232.1z m-303.5 118.8l-166.9 166.9h166.9v-166.9z m-357.2-214.2l-166.8 166.8h166.8v-166.8z m109.4 361l176.3-176.3v-232.2h-214.3v232.2q0 22.3-15.6 37.9t-37.9 15.6h-232.2v357.2h285.7v-142.9q0-22.3 11.2-49.1t26.8-42.4z m533.5 448.7v-642.9h-214.3v232.2q0 22.3-15.6 37.9t-38 15.6h-232.1v357.2h500z" /></svg>