<svg width="928.6" height="1000" xmlns="http://www.w3.org/2000/svg"><path d="m310.8 714.3h332.1v-332z m-25.1-25.1l332-332.1h-332v332.1z m642.9 42.9v107.2q0 7.8-5.1 12.8t-12.8 5h-125v125q0 7.9-5 12.9t-12.8 5h-107.2q-7.8 0-12.8-5t-5-12.9v-125h-482.2q-7.8 0-12.8-5t-5-12.8v-482.2h-125q-7.9 0-12.9-5t-5-12.8v-107.2q0-7.8 5-12.8t12.9-5h125v-125q0-7.8 5-12.8t12.8-5.1h107.2q7.8 0 12.8 5.1t5 12.8v125h474.9l137.3-137.8q5.6-5.1 12.8-5.1t12.8 5.1q5.1 5.5 5.1 12.8t-5.1 12.8l-137.8 137.3v474.9h125q7.8 0 12.8 5t5.1 12.8z" /></svg>