<svg width="1285.7" height="1000" xmlns="http://www.w3.org/2000/svg"><path d="m357.1 910.7l214.3-107.1v-175.3l-214.3 91.6v190.8z m-35.7-253.3l225.5-96.6-225.5-96.5-225.4 96.5z m607.2 253.3l214.3-107.1v-175.3l-214.3 91.6v190.8z m-35.7-253.3l225.4-96.6-225.4-96.5-225.5 96.5z m-250-163.5l214.2-92.1v-148.5l-214.2 91.6v149z m-35.8-211.5l246.1-105.5-246.1-105.5-246.1 105.5z m607.2 289v232.2q0 20.1-10.6 37.4t-29 26.2l-250 125q-14 7.8-31.8 7.8t-31.9-7.8l-250-125q-2.7-1.1-3.9-2.2-1.1 1.1-3.9 2.2l-250 125q-13.9 7.8-31.8 7.8t-31.8-7.8l-250-125q-18.4-8.9-29-26.2t-10.6-37.4v-232.2q0-21.2 12-39t31.5-26.8l242.2-103.8v-223.2q0-21.2 12-39.1t31.5-26.8l250-107.1q12.9-5.6 27.9-5.6t27.9 5.6l250 107.1q19.6 9 31.6 26.8t12 39.1v223.2l242.2 103.8q20 8.9 31.8 26.8t11.7 39z" /></svg>