<svg width="1000.0" height="1000" xmlns="http://www.w3.org/2000/svg"><path d="m535.7 500q14.5 0 25.1 10.6t10.6 25.1-10.6 25.1-25.1 10.6-25.1-10.6-10.6-25.1 10.6-25.1 25.1-10.6z m167.4 35.7l282.9 222.1q15.7 11.2 14 31.3-2.8 19.5-19.5 28.4l-71.5 35.7q-7.2 3.9-16.1 3.9-9.5 0-17.3-4.4l-385.1-216-61.4 36.8q-4.4 2.3-6.7 2.8 7.8 27.4 5.6 54.2-3.9 42.9-31.2 82.3t-73.7 68.9q-73.7 46.9-154.6 46.9-75.9 0-123.9-43.6-50.2-46.8-44-115.5 3.9-42.4 31.2-82t73.1-69.2q73.7-46.9 155.1-46.9 46.4 0 84.3 17.3 5-7.2 12.3-12.2l68.1-40.8-68.1-40.7q-7.3-5-12.3-12.3-37.9 17.3-84.3 17.3-81.4 0-155.1-46.9-45.7-29.6-73.1-69.2t-31.2-82q-2.8-32.9 8.6-63.1t35.4-51.9q47.5-44 123.9-44 80.9 0 154.6 46.8 46.3 29.1 73.7 68.7t31.2 82.6q2.2 26.7-5.6 54.1 2.3 0.5 6.7 2.8l61.4 36.8 385.1-215.9q7.8-4.5 17.3-4.5 8.9 0 16.1 3.9l71.5 35.7q16.7 8.9 19.5 28.5 1.7 20.1-14 31.2z m-380-145.1q25.7-23.4 11.7-60.2t-59.1-65.3q-51.4-33-107.2-33-41.3 0-63 20.1-25.7 23.5-11.8 60.3t59.2 65.3q51.3 32.9 107.1 32.9 41.3 0 63.1-20.1z m-47.4 415.8q45.2-28.5 59.1-65.3t-11.7-60.3q-21.8-20.1-63.1-20.1-55.8 0-107.1 32.9-45.2 28.5-59.1 65.3t11.7 60.3q21.7 20.1 63 20.1 55.8 0 107.2-32.9z m99.3-342.1l53.6 32.4v-6.2q0-20.1 18.4-31.2l7.8-4.5-44.1-26.2-14.5 14.5q-1.7 1.7-5.6 6.1t-6.7 6.7q-1.1 1.1-2.2 2t-1.7 1.4z m125 125l53.6 17.8 410.7-321.4-71.4-35.7-428.6 240.5v63.1l-89.3 53.5 5 4.5q1.1 1.1 3.9 3.4 2.3 2.2 6.2 6.7t6.1 6.6l14.5 14.6z m392.9 232.1l71.4-35.7-290.2-227.7-98.8 77q-1.1 1.7-7.2 4z" /></svg>