<svg width="785.7" height="1000" xmlns="http://www.w3.org/2000/svg"><path d="m357.1 35.7v357.2q0 34-19.8 61.9t-51.6 39.1v434.7q0 29-21.2 50.2t-50.2 21.2h-71.4q-29.1 0-50.3-21.2t-21.2-50.2v-434.7q-31.8-11.2-51.6-39.1t-19.8-61.9v-357.2q0-14.5 10.6-25.1t25.1-10.6 25.1 10.6 10.6 25.1v232.2q0 14.5 10.6 25.1t25.1 10.6 25.2-10.6 10.6-25.1v-232.2q0-14.5 10.6-25.1t25.1-10.6 25.1 10.6 10.6 25.1v232.2q0 14.5 10.6 25.1t25.1 10.6 25.1-10.6 10.6-25.1v-232.2q0-14.5 10.6-25.1t25.1-10.6 25.1 10.6 10.6 25.1z m428.6 0v892.9q0 29-21.2 50.2t-50.2 21.2h-71.4q-29.1 0-50.3-21.2t-21.2-50.2v-285.7h-125q-7.2 0-12.5-5.3t-5.3-12.6v-446.4q0-73.7 52.4-126.1t126.1-52.5h142.9q14.5 0 25.1 10.6t10.6 25.1z" /></svg>