<svg width="857.1" height="1000" xmlns="http://www.w3.org/2000/svg"><path d="m428.6 428.6q132.2 0 247.2-24t181.3-70.9v94.9q0 38.5-57.4 71.4t-156.3 52.2-214.8 19.2-214.9-19.2-156.2-52.2-57.5-71.4v-94.9q66.4 46.9 181.4 70.9t247.2 24z m0 428.5q132.2 0 247.2-24t181.3-70.8v94.8q0 38.5-57.4 71.5t-156.3 52.1-214.8 19.3-214.9-19.3-156.2-52.1-57.5-71.5v-94.8q66.4 46.9 181.4 70.8t247.2 24z m0-214.2q132.2 0 247.2-24t181.3-70.9v94.9q0 38.5-57.4 71.4t-156.3 52.2-214.8 19.2-214.9-19.2-156.2-52.2-57.5-71.4v-94.9q66.4 46.9 181.4 70.9t247.2 24z m0-642.9q116 0 214.8 19.3t156.3 52.1 57.4 71.5v71.4q0 38.5-57.4 71.4t-156.3 52.2-214.8 19.2-214.9-19.2-156.2-52.2-57.5-71.4v-71.4q0-38.5 57.5-71.5t156.2-52.1 214.9-19.3z" /></svg>