<svg width="3840" height="3840" viewBox="0 0 3840 3840" xmlns="http://www.w3.org/2000/svg"><path d="M1920 1792q237 0 443-43t325-127v170q0 69-103 128t-280 93.5-385 34.5-385-34.5-280-93.5-103-128v-170q119 84 325 127t443 43zm0 768q237 0 443-43t325-127v170q0 69-103 128t-280 93.5-385 34.5-385-34.5-280-93.5-103-128v-170q119 84 325 127t443 43zm0-384q237 0 443-43t325-127v170q0 69-103 128t-280 93.5-385 34.5-385-34.5-280-93.5-103-128v-170q119 84 325 127t443 43zm0-1152q208 0 385 34.5t280 93.5 103 128v128q0 69-103 128t-280 93.5-385 34.5-385-34.5-280-93.5-103-128v-128q0-69 103-128t280-93.5 385-34.5z"/></svg>