<svg width="1000.0" height="1000" xmlns="http://www.w3.org/2000/svg"><path d="m214.3 303.6v321.4q0 7.3-5.3 12.6t-12.6 5.3q-7.8 0-12.8-5.1l-160.7-160.7q-5-5-5-12.8t5-12.8l160.7-160.8q5-5 12.8-5 7.3 0 12.6 5.3t5.3 12.6z m785.7 428.5v107.2q0 7.2-5.3 12.5t-12.6 5.3h-964.2q-7.3 0-12.6-5.3t-5.3-12.5v-107.2q0-7.2 5.3-12.5t12.6-5.3h964.2q7.3 0 12.6 5.3t5.3 12.5z m0-214.2v107.1q0 7.3-5.3 12.6t-12.6 5.3h-607.1q-7.3 0-12.6-5.3t-5.3-12.6v-107.1q0-7.3 5.3-12.6t12.6-5.3h607.1q7.3 0 12.6 5.3t5.3 12.6z m0-214.3v107.1q0 7.3-5.3 12.6t-12.6 5.3h-607.1q-7.3 0-12.6-5.3t-5.3-12.6v-107.1q0-7.3 5.3-12.6t12.6-5.3h607.1q7.3 0 12.6 5.3t5.3 12.6z m0-214.3v107.1q0 7.3-5.3 12.6t-12.6 5.3h-964.2q-7.3 0-12.6-5.3t-5.3-12.6v-107.1q0-7.3 5.3-12.6t12.6-5.3h964.2q7.3 0 12.6 5.3t5.3 12.6z" /></svg>