<svg width="1071.4" height="1000" xmlns="http://www.w3.org/2000/svg"><path d="m1000 553.6v-464.3q0-7.3-5.3-12.6t-12.6-5.3h-892.8q-7.3 0-12.6 5.3t-5.3 12.6v464.3q0 7.2 5.3 12.5t12.6 5.3h892.8q7.3 0 12.6-5.3t5.3-12.5z m71.4-464.3v607.1q0 36.9-26.2 63.1t-63.1 26.2h-303.5q0 20.7 8.9 43.3t17.9 39.6 8.9 24.3q0 14.5-10.6 25.1t-25.1 10.6h-285.7q-14.6 0-25.2-10.6t-10.6-25.1q0-7.9 9-24.6t17.8-39.1 9-43.5h-303.6q-36.8 0-63.1-26.2t-26.2-63.1v-607.1q0-36.8 26.2-63.1t63.1-26.2h892.8q36.9 0 63.1 26.2t26.2 63.1z" /></svg>