<svg width="857.1" height="1000" xmlns="http://www.w3.org/2000/svg"><path d="m779.6 71.4q32.3 0 54.9 22.6t22.6 55v702q0 32.4-22.6 55t-54.9 22.6h-702q-32.4 0-55-22.6t-22.6-55v-702q0-32.4 22.6-55t55-22.6h702z m37.9 779.6v-702q0-15.6-11.1-26.8t-26.8-11.2h-702q-15.7 0-26.8 11.2t-11.2 26.8v702q0 15.6 11.2 26.8t26.8 11.2h702q15.6 0 26.8-11.2t11.1-26.8z m-430.2-411.8l104.9 215.9 297.4-80.9v276.8q0 3.9-3 7t-7 3h-702q-3.9 0-7-3t-3.1-7v-78.7l396.8-108.8-118.3-245q2.2-0.5 6.7-1.4t6.7-0.8q94.8-17.9 169.3-12t123.4 25.7 80 52.7q15.1 15.6-13.9 23.4-35.7 9-142.9 34.6l-54.1-110.5q-61.9-3.9-133.9 9z m392.3-300.2q3.9 0 7 3t3 7v238.8q-47.4-16.7-104.9-29-164.1-35.7-359.9-6.7l-10.1 1.7-36.2-74.8h-130.1l47.5 106q-73.7 28.5-128.4 76.5v-312.5q0-3.9 3.1-7t7-3h702z m-620 502.2q-7.8 1.7-14.5-2.5t-7.8-12q-13.4-113.3 92.6-170.2l72 150.6z" /></svg>