<svg width="571.4" height="1000" xmlns="http://www.w3.org/2000/svg"><path d="m545.8 661.3q0 85.4-55.6 147t-144.2 76.2v97.6q0 7.9-5 12.9t-12.9 5h-75.3q-7.3 0-12.6-5.3t-5.3-12.6v-97.6q-36.8-5-71.1-17.3t-56.7-24.8-41.3-26.8-25.9-21-9.8-10q-9.5-11.7-1.1-22.9l57.5-75.3q3.9-5.6 12.8-6.7 8.4-1.1 13.4 5l1.1 1.1q63.1 55.3 135.6 69.8 20.7 4.4 41.3 4.4 45.2 0 79.6-24t34.3-68q0-15.7-8.4-29.6t-18.7-23.4-32.6-21-36.9-17.8-44.6-18.2q-21.8-8.9-34.3-13.9t-34.3-14.8-34.9-17.3-31.6-19.8-29.8-23.7-24.3-27.4-19.8-32.3-11.7-37.1-4.8-43.6q0-77 54.7-135t142.3-74.8v-100.4q0-7.3 5.3-12.6t12.6-5.3h75.3q7.8 0 12.9 5t5 12.9v98.2q31.8 3.3 61.6 12.8t48.6 18.7 35.4 20.9 21.8 16.2 8.4 7.8q9.4 10.1 2.8 21.2l-45.2 81.5q-4.5 8.4-12.9 8.9-7.8 1.7-15-3.9-1.7-1.7-8.1-6.7t-21.8-14.8-32.6-17.8-41.6-14.5-47.7-6.4q-53 0-86.5 24t-33.5 61.9q0 14.5 4.7 26.8t16.5 23.1 22 18.5 31.3 17.3 33.7 15 39.1 15.4q29.6 11.1 45.2 17.5t42.4 19.6 42.2 23.7 34.6 27.9 29.5 35.4 17.6 42.7 7.3 52.5z" /></svg>