<svg width="928.6" height="1000" xmlns="http://www.w3.org/2000/svg"><path d="m714.3 750q0-14.5-10.6-25.1t-25.1-10.6-25.1 10.6-10.6 25.1 10.6 25.1 25.1 10.6 25.1-10.6 10.6-25.1z m142.8 0q0-14.5-10.6-25.1t-25.1-10.6-25.1 10.6-10.6 25.1 10.6 25.1 25.1 10.6 25.1-10.6 10.6-25.1z m71.5-125v178.6q0 22.3-15.7 37.9t-37.9 15.6h-821.4q-22.4 0-38-15.6t-15.6-37.9v-178.6q0-22.3 15.6-37.9t38-15.7h259.5l75.3 75.9q32.4 31.3 75.9 31.3t75.9-31.3l75.9-75.9h258.9q22.3 0 37.9 15.7t15.7 37.9z m-181.4-317.5q9.5 22.9-7.8 39l-250 250q-10 10.6-25.1 10.6t-25.1-10.6l-250-250q-17.3-16.1-7.8-39 9.4-21.8 32.9-21.8h142.8v-250q0-14.5 10.6-25.1t25.2-10.6h142.8q14.5 0 25.1 10.6t10.6 25.1v250h142.9q23.4 0 32.9 21.8z" /></svg>