<svg width="857.1" height="1000" xmlns="http://www.w3.org/2000/svg"><path d="m571.4 837.1q-23.4-134.5-78.1-277.9h-1.1l-1.1 0.5q-9 3.4-24 9.2t-56.4 27.4-76.4 45.7-73.1 63.9-57.5 82.6l-8.4-6.1q102.7 83.7 233.3 83.7 73.6 0 142.8-29z m-103.2-338.8q-11.7-27.3-29.6-61.9-173.5 51.9-375.5 51.9-0.6 3.9-0.6 11.7 0 69.2 24.6 132t69.2 112.4q27.9-49.6 68.9-92.9t79.5-69.5 72.8-45.2 55.5-26.8l20.7-7.2q2.2-0.6 7.2-2t7.3-2.5z m-59.7-118.3q-67-118.8-136.2-210.9-77 36.3-130.6 103.8t-71.4 151.8q168.5 0 338.2-44.7z m381.7 178q-117.2-33.4-228.3-16.1 48.6 133.3 71.5 261.7 61.9-41.9 103.2-105.8t53.6-139.8z m-449.2-413.5q-0.6 0-1.2 0.6 0.6-0.6 1.2-0.6z m329.2 80.9q-103.2-91.5-241.6-91.5-42.4 0-86.5 10.6 73.1 94.9 137.3 213.2 38.5-14.5 72.5-33.8t53.8-34.3 36.6-31.8 20.9-22.6z m124.4 270.7q-1.6-129.5-83.1-228.8l-0.6 0.6q-5 6.7-10.6 13.6t-24.2 24.9-39.7 33.7-55.8 36.3-73.3 36q13.9 29.6 24.5 53 1.1 3.3 3.6 9.8t4.2 9.2q20.1-2.8 41.6-3.9t41-1.1 38.5 0.8 35.7 2.2 31.6 3.1 26.7 3.6 20.4 3.4 14 2.5z m62.5 3.9q0 116.6-57.4 215.1t-156 156-215.1 57.5-215.2-57.5-155.9-156-57.5-215.1 57.5-215.1 155.9-156 215.2-57.5 215.1 57.5 156 156 57.4 215.1z" /></svg>