<svg width="1000.0" height="1000" xmlns="http://www.w3.org/2000/svg"><path d="m495.5 660.7l64.8-64.7-84.9-84.8-64.7 64.7v31.2h53.6v53.6h31.2z m245.6-401.8q-9-8.9-18.4 0.6l-195.4 195.3q-9.4 9.5-0.5 18.4t18.4-0.5l195.3-195.4q9.5-9.4 0.6-18.4z m44.6 331.5v106q0 66.4-47.1 113.6t-113.6 47.1h-464.3q-66.4 0-113.5-47.1t-47.2-113.6v-464.3q0-66.4 47.2-113.5t113.5-47.2h464.3q35.2 0 65.3 14 8.4 3.9 10 12.8 1.7 9.5-5 16.2l-27.3 27.3q-7.8 7.9-17.9 4.5-12.8-3.3-25.1-3.3h-464.3q-36.8 0-63 26.2t-26.3 63v464.3q0 36.9 26.3 63.1t63 26.2h464.3q36.8 0 63.1-26.2t26.2-63.1v-70.3q0-7.2 5-12.3l35.7-35.7q8.4-8.3 19.6-3.9t11.1 16.2z m-53.6-411.8l160.8 160.7-375 375h-160.8v-160.7z m247.8 73.6l-51.3 51.4-160.7-160.7 51.3-51.4q15.6-15.6 37.9-15.6t38 15.6l84.8 84.8q15.6 15.7 15.6 38t-15.6 37.9z" /></svg>