<svg width="785.7" height="1000" xmlns="http://www.w3.org/2000/svg"><path d="m214.3 410.7v107.2q0 22.3-15.6 37.9t-38 15.6h-107.1q-22.3 0-38-15.6t-15.6-37.9v-107.2q0-22.3 15.6-37.9t38-15.7h107.1q22.3 0 38 15.7t15.6 37.9z m285.7 0v107.2q0 22.3-15.6 37.9t-38 15.6h-107.1q-22.3 0-38-15.6t-15.6-37.9v-107.2q0-22.3 15.6-37.9t38-15.7h107.1q22.4 0 38 15.7t15.6 37.9z m285.7 0v107.2q0 22.3-15.6 37.9t-38 15.6h-107.1q-22.3 0-37.9-15.6t-15.7-37.9v-107.2q0-22.3 15.7-37.9t37.9-15.7h107.1q22.4 0 38 15.7t15.6 37.9z" /></svg>