<svg width="214.3" height="1000" xmlns="http://www.w3.org/2000/svg"><path d="m214.3 696.4v107.2q0 22.3-15.6 37.9t-38 15.6h-107.1q-22.3 0-38-15.6t-15.6-37.9v-107.2q0-22.3 15.6-37.9t38-15.6h107.1q22.3 0 38 15.6t15.6 37.9z m0-285.7v107.2q0 22.3-15.6 37.9t-38 15.6h-107.1q-22.3 0-38-15.6t-15.6-37.9v-107.2q0-22.3 15.6-37.9t38-15.7h107.1q22.3 0 38 15.7t15.6 37.9z m0-285.7v107.1q0 22.4-15.6 38t-38 15.6h-107.1q-22.3 0-38-15.6t-15.6-38v-107.1q0-22.3 15.6-37.9t38-15.7h107.1q22.3 0 38 15.7t15.6 37.9z" /></svg>