<svg width="1000.0" height="1000" xmlns="http://www.w3.org/2000/svg"><path d="m1000 396.2v443.1q0 36.8-26.2 63t-63.1 26.3h-821.4q-36.8 0-63.1-26.3t-26.2-63v-443.1q24.6 27.3 56.4 48.6 202 137.2 277.3 192.5 31.8 23.4 51.6 36.5t52.8 26.8 61.3 13.7h0.6 0.6q28.4 0 61.3-13.7t52.8-26.8 51.6-36.5q94.9-68.7 277.9-192.5 31.8-21.8 55.8-48.6z m0-164.1q0 44.1-27.3 84.3t-68.1 68.6q-209.8 145.7-261.2 181.4-5.6 3.9-23.7 17t-30.1 21.2-29.1 18.2-32 15-27.9 5.1h-0.6-0.6q-12.8 0-27.9-5.1t-32-15-29.1-18.2-30.1-21.2-23.7-17q-50.8-35.7-146.2-101.8t-114.4-79.6q-34.6-23.4-65.3-64.4t-30.7-76.2q0-43.5 23.2-72.5t66.1-29h821.4q36.3 0 62.8 26.2t26.5 63z" /></svg>