<svg width="1000.0" height="1000" xmlns="http://www.w3.org/2000/svg"><path d="m1000 660.7v107.2q0 7.2-5.3 12.5t-12.6 5.3h-767.8v107.2q0 7.2-5.3 12.5t-12.6 5.3q-6.7 0-13.4-5.6l-178-178.5q-5-5.1-5-12.3 0-7.8 5-12.8l178.6-178.6q5-5 12.8-5 7.3 0 12.6 5.3t5.3 12.5v107.2h767.8q7.3 0 12.6 5.3t5.3 12.5z m0-303.6q0 7.9-5 12.9l-178.6 178.5q-5 5.1-12.8 5.1-7.3 0-12.6-5.3t-5.3-12.6v-107.1h-767.8q-7.3 0-12.6-5.3t-5.3-12.6v-107.1q0-7.3 5.3-12.6t12.6-5.3h767.8v-107.1q0-7.8 5-12.9t12.9-5q6.7 0 13.4 5.6l178 178q5 5 5 12.8z" /></svg>