<svg width="857.1" height="1000" xmlns="http://www.w3.org/2000/svg"><path d="m421.3 589.3q0 7.2-5.6 12.8l-185.2 185.3 80.3 80.3q10.6 10.6 10.6 25.2t-10.6 25.1-25.1 10.6h-250q-14.5 0-25.1-10.6t-10.6-25.1v-250q0-14.6 10.6-25.2t25.1-10.6 25.1 10.6l80.4 80.4 185.3-185.3q5.5-5.5 12.8-5.5t12.8 5.5l63.6 63.7q5.6 5.5 5.6 12.8z m435.8-482.2v250q0 14.6-10.6 25.2t-25.1 10.6-25.1-10.6l-80.3-80.4-185.3 185.3q-5.6 5.5-12.8 5.5t-12.9-5.5l-63.6-63.7q-5.6-5.5-5.6-12.8t5.6-12.8l185.3-185.3-80.4-80.3q-10.6-10.6-10.6-25.2t10.6-25.1 25.1-10.6h250q14.5 0 25.1 10.6t10.6 25.1z" /></svg>