<svg width="1000.0" height="1000" xmlns="http://www.w3.org/2000/svg"><path d="m785.7 517.9v178.5q0 66.4-47.1 113.6t-113.6 47.1h-464.3q-66.4 0-113.5-47.1t-47.2-113.6v-464.3q0-66.4 47.2-113.5t113.5-47.2h392.9q7.8 0 12.8 5.1t5 12.8v35.7q0 7.8-5 12.8t-12.8 5.1h-392.9q-36.8 0-63 26.2t-26.3 63v464.3q0 36.9 26.3 63.1t63 26.2h464.3q36.8 0 63.1-26.2t26.2-63.1v-178.5q0-7.9 5-12.9t12.8-5h35.8q7.8 0 12.8 5t5 12.9z m214.3-482.2v285.7q0 14.5-10.6 25.1t-25.1 10.6-25.1-10.6l-98.2-98.2-363.9 363.9q-5.6 5.5-12.8 5.5t-12.8-5.5l-63.7-63.7q-5.5-5.5-5.5-12.8t5.5-12.8l363.9-363.9-98.2-98.2q-10.6-10.6-10.6-25.1t10.6-25.1 25.1-10.6h285.7q14.5 0 25.1 10.6t10.6 25.1z" /></svg>