<svg width="1000.0" height="1000" xmlns="http://www.w3.org/2000/svg"><path d="m309.7 745l43.5-78.7q-48.5-35.2-75.9-88.7t-27.3-113.3q0-67.5 34-125.6-127.7 65.3-212.6 197 93.2 144 238.3 209.3z m217.1-423.6q0-11.1-7.8-18.9t-19-7.9q-69.8 0-119.7 50t-49.9 119.7q0 11.1 7.8 19t18.9 7.8 19-7.8 7.8-19q0-48 34.1-82t82-34.1q11.2 0 19-7.8t7.8-19z m202.6-106.6q0 4-0.6 5.1-58.6 104.9-175.8 315.8t-176.3 316.4l-27.4 49.7q-5.5 8.9-15.6 8.9-6.7 0-74.8-39-8.9-5.6-8.9-15.7 0-6.7 24.6-48.5-79.8-36.3-147.1-96.6t-116.3-136.7q-11.2-17.3-11.2-38.5t11.2-38.5q85.3-131.1 212-207t276.8-75.9q49.7 0 100.4 9.5l30.2-54.2q5.6-8.9 15.6-8.9 2.8 0 10.1 3.4t17.2 8.6 18.5 10.3 17.5 10.4 10.9 6.4q9 5.6 9 15z m20.6 249.5q0 77.6-44.1 141.4t-116.6 91.8l156.2-280.1q4.5 25.1 4.5 46.9z m250 71.4q0 19.5-11.2 38.5-21.7 35.7-60.8 80.9-83.7 96-193.9 149t-234.1 53l41.3-73.6q118.3-10.1 219-76.5t168.3-171.3q-64.2-99.9-157.4-164l35.2-62.5q53 35.7 101.8 85.3t80.6 102.7q11.2 19 11.2 38.5z" /></svg>