<svg width="1000.0" height="1000" xmlns="http://www.w3.org/2000/svg"><path d="m928.6 535.7q-84.8-131.7-212.6-197 34 58.1 34 125.6 0 103.2-73.4 176.6t-176.6 73.4-176.6-73.4-73.4-176.6q0-67.5 34-125.6-127.7 65.3-212.6 197 74.2 114.4 186.1 182.2t242.5 67.8 242.5-67.8 186.1-182.2z m-401.8-214.3q0-11.1-7.8-18.9t-19-7.9q-69.8 0-119.7 50t-49.9 119.7q0 11.1 7.8 19t18.9 7.8 19-7.8 7.8-19q0-48 34.1-82t82-34.1q11.2 0 19-7.8t7.8-19z m473.2 214.3q0 19-11.2 38.5-78.1 128.4-210.1 205.7t-278.7 77.2-278.7-77.5-210.1-205.4q-11.2-19.5-11.2-38.5t11.2-38.5q78.1-127.8 210.1-205.3t278.7-77.6 278.7 77.6 210.1 205.3q11.2 19.5 11.2 38.5z" /></svg>