<svg width="1000.0" height="1000" xmlns="http://www.w3.org/2000/svg"><path d="m947.5 52.5q52.5 52.4 52.5 126.4t-52.5 125.8l-125.5 124.4 58 58.1q5.6 5.5 5.6 12.8t-5.6 12.8l-117.2 117.2q-5.5 5.6-12.8 5.6t-12.8-5.6l-58.6-58.6-336.5 336.5q-20.7 20.7-50.2 20.7h-113.3l-142.9 71.4-35.7-35.7 71.4-142.9v-113.3q0-29.5 20.7-50.2l336.5-336.5-58.6-58.6q-5.6-5.5-5.6-12.8t5.6-12.8l117.2-117.2q5.5-5.6 12.8-5.6t12.8 5.6l58.1 58 124.4-125.5q51.9-52.5 125.8-52.5t126.4 52.5z m-661.8 768.9l321.4-321.4-107.1-107.1-321.4 321.4v107.1h107.1z" /></svg>