<svg width="1000.0" height="1000" xmlns="http://www.w3.org/2000/svg"><path d="m160.7 214.3q36.8 0 63.1 26.2t26.2 63.1v607.1q0 36.8-26.2 63.1t-63.1 26.2h-71.4q-36.8 0-63.1-26.2t-26.2-63.1v-607.1q0-36.9 26.2-63.1t63.1-26.2h71.4z m767.9 90.9q32.3 19 51.9 51.9t19.5 71.5v428.5q0 59.2-41.9 101t-101 41.9h-482.1q-36.8 0-63.1-26.2t-26.2-63.1v-857.1q0-22.3 15.6-38t38-15.6h375q22.3 0 49.1 11.2t42.4 26.7l84.8 84.9q15.7 15.6 26.8 42.4t11.2 49.1v90.9z m-410.7 551.9v-71.4q0-7.8-5.1-12.8t-12.8-5h-71.4q-7.8 0-12.9 5t-5 12.8v71.4q0 7.9 5 12.9t12.9 5h71.4q7.8 0 12.8-5t5.1-12.9z m0-142.8v-71.4q0-7.9-5.1-12.9t-12.8-5h-71.4q-7.8 0-12.9 5t-5 12.9v71.4q0 7.8 5 12.8t12.9 5h71.4q7.8 0 12.8-5t5.1-12.8z m0-142.9v-71.4q0-7.8-5.1-12.8t-12.8-5.1h-71.4q-7.8 0-12.9 5.1t-5 12.8v71.4q0 7.8 5 12.9t12.9 5h71.4q7.8 0 12.8-5t5.1-12.9z m142.8 285.7v-71.4q0-7.8-5-12.8t-12.8-5h-71.5q-7.8 0-12.8 5t-5 12.8v71.4q0 7.9 5 12.9t12.8 5h71.5q7.8 0 12.8-5t5-12.9z m0-142.8v-71.4q0-7.9-5-12.9t-12.8-5h-71.5q-7.8 0-12.8 5t-5 12.9v71.4q0 7.8 5 12.8t12.8 5h71.5q7.8 0 12.8-5t5-12.8z m0-142.9v-71.4q0-7.8-5-12.8t-12.8-5.1h-71.5q-7.8 0-12.8 5.1t-5 12.8v71.4q0 7.8 5 12.9t12.8 5h71.5q7.8 0 12.8-5t5-12.9z m142.9 285.7v-71.4q0-7.8-5.1-12.8t-12.8-5h-71.4q-7.8 0-12.8 5t-5.1 12.8v71.4q0 7.9 5.1 12.9t12.8 5h71.4q7.8 0 12.8-5t5.1-12.9z m0-142.8v-71.4q0-7.9-5.1-12.9t-12.8-5h-71.4q-7.8 0-12.8 5t-5.1 12.9v71.4q0 7.8 5.1 12.8t12.8 5h71.4q7.8 0 12.8-5t5.1-12.8z m0-142.9v-71.4q0-7.8-5.1-12.8t-12.8-5.1h-71.4q-7.8 0-12.8 5.1t-5.1 12.8v71.4q0 7.8 5.1 12.9t12.8 5h71.4q7.8 0 12.8-5t5.1-12.9z m53.5-214.3v-142.8h-89.2q-22.4 0-38-15.6t-15.6-38v-89.3h-357.2v285.7h500z" /></svg>