<svg width="714.3" height="1000" xmlns="http://www.w3.org/2000/svg"><path d="m714.3 589.3q0 22.3-15.6 37.9t-38 15.7q-28.4 0-44.6-24l-126.7-190.3h-25.1v73.6l137.8 229.4q5 8.4 5 18.4 0 14.5-10.6 25.1t-25.1 10.6h-107.1v151.8q0 25.7-18.4 44.1t-44.1 18.4h-89.3q-25.7 0-44.1-18.4t-18.4-44.1v-151.8h-107.1q-14.6 0-25.2-10.6t-10.6-25.1q0-10 5.1-18.4l137.8-229.4v-73.6h-25.1l-126.7 190.3q-16.2 24-44.6 24-22.3 0-38-15.7t-15.6-37.9q0-16.2 8.9-29.6l142.9-214.3q40.7-59.7 98.2-59.7h214.3q57.5 0 98.2 59.7l142.9 214.3q8.9 13.4 8.9 29.6z m-232.2-446.4q0 51.9-36.5 88.4t-88.5 36.6-88.4-36.6-36.6-88.4 36.6-88.5 88.4-36.5 88.5 36.5 36.5 88.5z" /></svg>