<svg width="1071.4" height="1000" xmlns="http://www.w3.org/2000/svg"><path d="m1071.4 535.7q-0.5 17.9-160.7 53.6l-196.4 17.8-125 35.8h-35.7l-163.5 196.4h38.5q14.5 0 25.1 2.5t10.6 6.4-10.6 6.4-25.1 2.5h-53.6-89.3-35.7v-17.8h35.7v-232.2h-89.3l-107.1 125h-53.6l-17.8-17.8v-107.2h17.8v-17.8h71.4v-4.5l-107.1-13.4v-71.4l107.1-13.4v-4.5h-71.4v-17.8h-17.8v-107.2l17.8-17.8h53.6l107.1 125h89.3v-232.2h-35.7v-17.8h35.7 89.3 53.6q14.5 0 25.1 2.5t10.6 6.4-10.6 6.4-25.1 2.5h-38.5l163.5 196.5h35.7l125 35.7 196.4 17.8q145.7 32.4 160.2 51.9z" /></svg>