<svg width="857.1" height="1000" xmlns="http://www.w3.org/2000/svg"><path d="m819.2 212.1q15.6 15.6 26.8 42.4t11.1 49.1v642.8q0 22.4-15.6 38t-37.9 15.6h-750q-22.3 0-38-15.6t-15.6-38v-892.8q0-22.4 15.6-38t38-15.6h500q22.3 0 49.1 11.2t42.4 26.7z m-247.8-136.2v209.8h209.9q-5.6-16.2-12.3-22.9l-174.7-174.6q-6.7-6.7-22.9-12.3z m214.3 852.7v-571.5h-232.1q-22.3 0-38-15.6t-15.6-37.9v-232.2h-428.6v857.2h714.3z m-546.3-130.6v59.1h156.8v-59.1h-41.8l57.4-89.9q2.8-3.9 5.6-9.2t4.2-7.5 1.9-2.2h1.2q0.5 2.2 2.8 5.6 1.1 2.2 2.5 4.1t3.3 4.5 3.6 4.7l59.8 89.9h-42.5v59.1h162.4v-59.1h-37.9l-107.2-152.4 108.9-157.3h37.3v-59.7h-155.6v59.7h41.2l-57.4 88.7q-2.3 3.9-5.6 9.2t-5 7.5l-1.1 1.7h-1.2q-0.5-2.2-2.8-5.6-3.3-6.1-9.4-12.8l-59.2-88.7h42.4v-59.7h-161.8v59.7h37.9l105.5 151.8-108.3 157.9h-37.9z" /></svg>