<svg width="857.1" height="1000" xmlns="http://www.w3.org/2000/svg"><path d="m819.2 212.1q15.6 15.6 26.8 42.4t11.1 49.1v642.8q0 22.4-15.6 38t-37.9 15.6h-750q-22.3 0-38-15.6t-15.6-38v-892.8q0-22.4 15.6-38t38-15.6h500q22.3 0 49.1 11.2t42.4 26.7z m-247.8-136.2v209.8h209.9q-5.6-16.2-12.3-22.9l-174.7-174.6q-6.7-6.7-22.9-12.3z m214.3 852.7v-571.5h-232.1q-22.3 0-38-15.6t-15.6-37.9v-232.2h-428.6v857.2h714.3z m-357.1-500q29 0 50.2 21.2t21.2 50.2v214.3q0 29-21.2 50.2t-50.2 21.2h-214.3q-29 0-50.2-21.2t-21.2-50.2v-214.3q0-29 21.2-50.2t50.2-21.2h214.3z m274.5 1.1q11.2 4.5 11.2 16.7v321.5q0 12.2-11.2 16.7-4.4 1.1-6.7 1.1-7.8 0-12.8-5l-147.9-148.4v-50.3l147.9-148.4q5-5 12.8-5 2.3 0 6.7 1.1z" /></svg>