<svg width="857.1" height="1000" xmlns="http://www.w3.org/2000/svg"><path d="m819.2 212.1q15.6 15.6 26.8 42.4t11.1 49.1v642.8q0 22.4-15.6 38t-37.9 15.6h-750q-22.3 0-38-15.6t-15.6-38v-892.8q0-22.4 15.6-38t38-15.6h500q22.3 0 49.1 11.2t42.4 26.7z m-247.8-136.2v209.8h209.9q-5.6-16.2-12.3-22.9l-174.7-174.6q-6.7-6.7-22.9-12.3z m214.3 852.7v-571.5h-232.1q-22.3 0-38-15.6t-15.6-37.9v-232.2h-428.6v857.2h714.3z m-439.7-454.3q11.1 4.5 11.1 16.8v303.5q0 12.3-11.1 16.8-4.5 1.1-6.7 1.1-6.7 0-12.8-5l-92.7-93.2h-73.1q-7.8 0-12.8-5t-5-12.9v-107.1q0-7.8 5-12.8t12.8-5.1h73.1l92.7-93.2q8.9-8.3 19.5-3.9z m232.7 384.5q17.3 0 27.9-13.4 72-88.7 72-202.5t-72-202.6q-8.9-11.7-24-13.4t-26.2 7.8q-11.8 9.5-13.2 24.3t8.1 26.5q55.8 68.6 55.8 157.4t-55.8 157.3q-9.4 11.7-8.1 26.5t13.2 23.7q10 8.4 22.3 8.4z m-117.8-82.6q15.1 0 26.3-11.1 48.5-51.9 48.5-122.2t-48.5-122.3q-10.1-10.6-25.1-11.1t-25.7 9.5-11.2 24.8 10.1 26q29 31.8 29 73.1t-29 73.1q-10.6 11.1-10.1 25.9t11.2 24.8q11.1 9.5 24.5 9.5z" /></svg>