<svg width="857.1" height="1000" xmlns="http://www.w3.org/2000/svg"><path d="m819.2 212.1q15.6 15.6 26.8 42.4t11.1 49.1v642.8q0 22.4-15.6 38t-37.9 15.6h-750q-22.3 0-38-15.6t-15.6-38v-892.8q0-22.4 15.6-38t38-15.6h500q22.3 0 49.1 11.2t42.4 26.7z m-247.8-136.2v209.8h209.9q-5.6-16.2-12.3-22.9l-174.7-174.6q-6.7-6.7-22.9-12.3z m214.3 852.7v-571.5h-232.1q-22.3 0-38-15.6t-15.6-37.9v-232.2h-428.6v857.2h714.3z m-71.4-250v178.5h-571.4v-107.1l107.1-107.1 71.4 71.4 214.3-214.3z m-464.3-107.2q-44.6 0-75.9-31.2t-31.2-75.9 31.2-75.9 75.9-31.3 75.9 31.3 31.2 75.9-31.2 75.9-75.9 31.2z" /></svg>