<svg width="857.1" height="1000" xmlns="http://www.w3.org/2000/svg"><path d="m819.2 265.6q7.8 7.8 15.6 20.1h-263.4v-263.4q12.3 7.8 20.1 15.6z m-265.6 91.5h303.5v589.3q0 22.4-15.6 38t-37.9 15.6h-750q-22.4 0-38-15.6t-15.6-38v-892.8q0-22.3 15.6-38t38-15.6h446.4v303.6q0 22.3 15.6 37.9t38 15.6z m89.3 410.8v-35.8q0-7.8-5.1-12.8t-12.8-5h-392.9q-7.8 0-12.8 5t-5 12.8v35.8q0 7.8 5 12.8t12.8 5h392.9q7.8 0 12.8-5t5.1-12.8z m0-142.9v-35.7q0-7.8-5.1-12.8t-12.8-5.1h-392.9q-7.8 0-12.8 5.1t-5 12.8v35.7q0 7.8 5 12.8t12.8 5.1h392.9q7.8 0 12.8-5.1t5.1-12.8z m0-142.9v-35.7q0-7.8-5.1-12.8t-12.8-5h-392.9q-7.8 0-12.8 5t-5 12.8v35.7q0 7.9 5 12.9t12.8 5h392.9q7.8 0 12.8-5t5.1-12.9z" /></svg>