<svg width="857.1" height="1000" xmlns="http://www.w3.org/2000/svg"><path d="m819.2 212.1q15.6 15.6 26.8 42.4t11.1 49.1v642.8q0 22.4-15.6 38t-37.9 15.6h-750q-22.3 0-38-15.6t-15.6-38v-892.8q0-22.4 15.6-38t38-15.6h500q22.3 0 49.1 11.2t42.4 26.7z m-247.8-136.2v209.8h209.9q-5.6-16.2-12.3-22.9l-174.7-174.6q-6.7-6.7-22.9-12.3z m214.3 852.7v-571.5h-232.1q-22.3 0-38-15.6t-15.6-37.9v-232.2h-428.6v857.2h714.3z m-655.7-500v59.7h39.1l91.5 368.8h88.7l71.5-270.6q3.9-11.2 5.5-25.7 1.2-8.9 1.2-13.4h2.2l1.7 13.4q0.5 1.7 1.9 11.2t3.1 14.5l71.4 270.6h88.7l91.6-368.8h39v-59.7h-167.4v59.7h50.2l-55.2 244.4q-2.8 11.2-3.9 25.7l-1.1 11.7h-2.3l-1.6-11.7q-0.6-2.8-2.3-11.7t-2.8-14l-80.3-304.1h-63.6l-80.4 304.1q-1.1 5-2.5 13.7t-2 12l-2.2 11.7h-2.2l-1.1-11.7q-1.2-14.5-3.9-25.7l-55.3-244.4h50.2v-59.7h-167.4z" /></svg>