<svg width="857.1" height="1000" xmlns="http://www.w3.org/2000/svg"><path d="m357.1 214.3v-71.4h-71.4v71.4h71.4z m71.5 71.4v-71.4h-71.5v71.4h71.5z m-71.5 71.4v-71.4h-71.4v71.4h71.4z m71.5 71.5v-71.5h-71.5v71.5h71.5z m390.6-216.5q15.6 15.6 26.8 42.4t11.1 49.1v642.8q0 22.4-15.6 38t-37.9 15.6h-750q-22.3 0-38-15.6t-15.6-38v-892.8q0-22.4 15.6-38t38-15.6h500q22.3 0 49.1 11.2t42.4 26.7z m-247.8-136.2v209.8h209.9q-5.6-16.2-12.3-22.9l-174.7-174.6q-6.7-6.7-22.9-12.3z m214.3 852.7v-571.5h-232.1q-22.3 0-38-15.6t-15.6-37.9v-232.2h-71.4v71.5h-71.5v-71.5h-285.7v857.2h714.3z m-349.9-402.4l59.7 194.8q4.5 15 4.5 29 0 46.3-40.5 76.7t-102.4 30.4-102.4-30.4-40.4-76.7q0-14 4.5-29 11.7-35.2 66.9-221v-71.4h71.4v71.4h44.1q12.3 0 21.8 7.3t12.8 18.9z m-78.7 259.5q29.6 0 50.5-10.6t21-25.1-21-25.1-50.5-10.6-50.5 10.6-20.9 25.1 20.9 25.1 50.5 10.6z" /></svg>