<svg width="857.1" height="1000" xmlns="http://www.w3.org/2000/svg"><path d="m819.2 212.1q15.6 15.6 26.8 42.4t11.1 49.1v642.8q0 22.4-15.6 38t-37.9 15.6h-750q-22.3 0-38-15.6t-15.6-38v-892.8q0-22.4 15.6-38t38-15.6h500q22.3 0 49.1 11.2t42.4 26.7z m-247.8-136.2v209.8h209.9q-5.6-16.2-12.3-22.9l-174.7-174.6q-6.7-6.7-22.9-12.3z m214.3 852.7v-571.5h-232.1q-22.3 0-38-15.6t-15.6-37.9v-232.2h-428.6v857.2h714.3z m-571.4-482.2q0-7.8 5-12.8t12.8-5h392.9q7.8 0 12.8 5t5.1 12.8v35.7q0 7.9-5.1 12.9t-12.8 5h-392.9q-7.8 0-12.8-5t-5-12.9v-35.7z m410.7 125q7.8 0 12.8 5.1t5.1 12.8v35.7q0 7.8-5.1 12.8t-12.8 5.1h-392.9q-7.8 0-12.8-5.1t-5-12.8v-35.7q0-7.8 5-12.8t12.8-5.1h392.9z m0 142.9q7.8 0 12.8 5t5.1 12.8v35.8q0 7.8-5.1 12.8t-12.8 5h-392.9q-7.8 0-12.8-5t-5-12.8v-35.8q0-7.8 5-12.8t12.8-5h392.9z" /></svg>