<svg width="857.1" height="1000" xmlns="http://www.w3.org/2000/svg"><path d="m819.2 212.1q15.6 15.6 26.8 42.4t11.1 49.1v642.8q0 22.4-15.6 38t-37.9 15.6h-750q-22.3 0-38-15.6t-15.6-38v-892.8q0-22.4 15.6-38t38-15.6h500q22.3 0 49.1 11.2t42.4 26.7z m-247.8-136.2v209.8h209.9q-5.6-16.2-12.3-22.9l-174.7-174.6q-6.7-6.7-22.9-12.3z m214.3 852.7v-571.5h-232.1q-22.3 0-38-15.6t-15.6-37.9v-232.2h-428.6v857.2h714.3z m-553.6-130.6v59.1h182.5v-59.1h-51.9v-93.2h76.5q42.4 0 65.8-8.4 37.4-12.8 59.5-48.5t22-81.5q0-45.2-20.7-78.7t-55.8-48.5q-26.7-10.6-72.5-10.6h-205.4v59.7h51.4v309.7h-51.4z m197-156.3h-66.4v-149.5h67q29 0 46.3 10 31.3 18.4 31.3 64.2 0 49.7-34.6 67-17.3 8.3-43.6 8.3z" /></svg>