<svg width="1071.4" height="1000" xmlns="http://www.w3.org/2000/svg"><path d="m214.3 892.9v-71.5q0-14.5-10.6-25.1t-25.1-10.6h-71.5q-14.5 0-25.1 10.6t-10.6 25.1v71.5q0 14.5 10.6 25.1t25.1 10.6h71.5q14.5 0 25.1-10.6t10.6-25.1z m0-214.3v-71.5q0-14.5-10.6-25.1t-25.1-10.6h-71.5q-14.5 0-25.1 10.6t-10.6 25.1v71.5q0 14.5 10.6 25.1t25.1 10.6h71.5q14.5 0 25.1-10.6t10.6-25.1z m0-214.3v-71.4q0-14.6-10.6-25.2t-25.1-10.6h-71.5q-14.5 0-25.1 10.6t-10.6 25.2v71.4q0 14.5 10.6 25.1t25.1 10.6h71.5q14.5 0 25.1-10.6t10.6-25.1z m571.4 428.6v-285.8q0-14.5-10.6-25.1t-25.1-10.6h-428.6q-14.5 0-25.1 10.6t-10.6 25.1v285.8q0 14.5 10.6 25.1t25.1 10.6h428.6q14.5 0 25.1-10.6t10.6-25.1z m-571.4-642.9v-71.4q0-14.5-10.6-25.1t-25.1-10.6h-71.5q-14.5 0-25.1 10.6t-10.6 25.1v71.4q0 14.5 10.6 25.1t25.1 10.6h71.5q14.5 0 25.1-10.6t10.6-25.1z m785.7 642.9v-71.5q0-14.5-10.6-25.1t-25.1-10.6h-71.4q-14.6 0-25.2 10.6t-10.6 25.1v71.5q0 14.5 10.6 25.1t25.2 10.6h71.4q14.5 0 25.1-10.6t10.6-25.1z m-214.3-428.6v-285.7q0-14.5-10.6-25.1t-25.1-10.6h-428.6q-14.5 0-25.1 10.6t-10.6 25.1v285.7q0 14.5 10.6 25.1t25.1 10.6h428.6q14.5 0 25.1-10.6t10.6-25.1z m214.3 214.3v-71.5q0-14.5-10.6-25.1t-25.1-10.6h-71.4q-14.6 0-25.2 10.6t-10.6 25.1v71.5q0 14.5 10.6 25.1t25.2 10.6h71.4q14.5 0 25.1-10.6t10.6-25.1z m0-214.3v-71.4q0-14.6-10.6-25.2t-25.1-10.6h-71.4q-14.6 0-25.2 10.6t-10.6 25.2v71.4q0 14.5 10.6 25.1t25.2 10.6h71.4q14.5 0 25.1-10.6t10.6-25.1z m0-214.3v-71.4q0-14.5-10.6-25.1t-25.1-10.6h-71.4q-14.6 0-25.2 10.6t-10.6 25.1v71.4q0 14.5 10.6 25.1t25.2 10.6h71.4q14.5 0 25.1-10.6t10.6-25.1z m71.4-89.3v750q0 36.8-26.2 63.1t-63.1 26.2h-892.8q-36.8 0-63.1-26.2t-26.2-63.1v-750q0-36.8 26.2-63t63.1-26.3h892.8q36.9 0 63.1 26.3t26.2 63z" /></svg>