<svg width="785.7" height="1000" xmlns="http://www.w3.org/2000/svg"><path d="m285.7 107.1q0-14.5-10.6-25.1t-25.1-10.6-25.1 10.6-10.6 25.1 10.6 25.2 25.1 10.6 25.1-10.6 10.6-25.2z m500-17.8v178.6q0 8.9-6.7 13.9-4.4 3.9-11.1 3.9-2.3 0-3.9-0.5l-250-53.6q-6.2-1.1-10.1-6.2t-3.9-11.1h-142.9v56.9q62 12.8 102.4 61.9t40.5 113.3v446.5q0 14.5-10.6 25.1t-25.1 10.6h-285.7q-14.5 0-25.1-10.6t-10.6-25.1v-446.5q0-59.1 34.8-106.3t90.2-63.9v-61.9h-17.9q-32.9 0-64.2 13.1t-51 29.6-36.9 37.1-22.6 29.8-7.8 13.7q-9.5 19.5-31.8 19.5-8.9 0-16.2-3.9-12.8-6.7-17.5-20.6t1.9-27.4q2.8-5.5 8.1-14.5t20.9-29.8 33.8-39.1 47.4-37.4 60.6-29.3q-14-23.4-14-48 0-36.8 26.2-63t63.1-26.2 63.1 26.2 26.2 63q0 18.5-7.8 35.8h168.5q0-6.2 3.9-11.2t10.1-6.1l250-53.6q1.6-0.6 3.9-0.6 6.7 0 11.1 3.9 6.7 5.1 6.7 14z" /></svg>