<svg width="785.7" height="1000" xmlns="http://www.w3.org/2000/svg"><path d="m785.7 946.4v35.7q0 7.3-5.3 12.6t-12.5 5.3h-750q-7.3 0-12.6-5.3t-5.3-12.6v-35.7q0-7.2 5.3-12.5t12.6-5.3h750q7.2 0 12.5 5.3t5.3 12.5z m-142.8-589.3q0 43.6-13.7 80.4t-35.7 62.8-48.9 49.1-53.5 43.2-48.9 40.2-35.7 45.5-13.6 53.8q0 53.6 37.3 125l-2.2-0.5 0.6 0.5q-50.3-22.8-89.3-46.3t-77.3-55.8-63.3-68.3-40.5-84-15.3-102.7q0-43.5 13.6-80.4t35.7-62.7 48.9-49.1 53.5-43.3 48.9-40.2 35.7-45.4 13.7-53.9q0-52.5-36.9-125l1.7 0.6-0.6-0.6q50.3 22.9 89.3 46.3t77.3 55.8 63.4 68.4 40.4 84 15.4 102.6z" /></svg>