<svg width="1000.0" height="1000" xmlns="http://www.w3.org/2000/svg"><path d="m464.3 558v-107.1q-101 8.9-214.3 65.3v103.2q114.4-53.6 214.3-61.4z m0-233.2v-110q-96 4.5-214.3 70.4v105.4q120-61.9 214.3-65.8z m464.3 258.3v-102.6q-131.2 64.7-214.3 39.6v-125q-11.2-3.4-21.8-8.4-2.8-1.7-18.4-9.5t-19.2-9.5-17.6-8.3-19.3-8.7-18.1-7.2-20.1-7-19.5-4.7-22.1-4.2-22-2.3-24.6-1.1q-12.8 0-27.3 1.7v123.9h10.6q56.9 0 107.4 16.2t110.2 45.7q10.6 5 21.8 8.4v104.9q23.4 9.5 50.8 9.5 66.9 0 163.5-51.4z m0-238.2v-105.5q-94.3 50.8-170.8 50.8-25.1 0-43.5-4.5v109.4q82.6 23.4 214.3-50.2z m-750-202q0 19.5-9.8 35.7t-25.9 25.6v706.5q0 7.8-5.1 12.8t-12.8 5.1h-35.7q-7.8 0-12.8-5.1t-5.1-12.8v-706.5q-16.2-9.4-25.9-25.6t-9.8-35.7q0-29.6 20.9-50.5t50.5-21 50.5 21 21 50.5z m821.4 35.7v425.8q0 21.7-19.5 31.8-5.6 2.8-9.5 5-121.7 64.7-205.9 64.7-49.1 0-88.2-19.5l-15.6-7.8q-35.7-18.4-55.3-26.8t-50.8-16.2-63.6-7.8q-56.9 0-131.4 24.5t-127.5 57q-8.4 5-18.4 5-8.9 0-17.9-4.5-17.8-10.6-17.8-31.2v-414.1q0-19.5 17.3-30.7 19.5-11.7 43.8-23.7t63.6-29 85.1-27.6 86.5-10.6q62.5 0 116.6 17.3t116.6 47.9q21.3 10.7 49.7 10.7 68.1 0 173-62.5 12.3-6.7 17.3-9.5 17.3-9 34.6 1.1 17.3 11.1 17.3 30.7z" /></svg>