<svg width="1000.0" height="1000" xmlns="http://www.w3.org/2000/svg"><path d="m928.6 583.1v-343.7q-94.3 50.8-170.8 50.8-45.7 0-80.9-17.9-55.8-27.3-102.7-42.7t-99.3-15.3q-96.6 0-224.9 70.9v334.2q136.7-63 241.6-63 30.7 0 57.8 4.1t54.7 14.6 42.9 17.3 46.1 22l15.6 7.8q24.6 12.3 56.4 12.3 66.9 0 163.5-51.4z m-750-440.2q0 19.5-9.8 35.7t-25.9 25.6v706.5q0 7.8-5.1 12.8t-12.8 5.1h-35.7q-7.8 0-12.8-5.1t-5.1-12.8v-706.5q-16.2-9.4-25.9-25.6t-9.8-35.7q0-29.6 20.9-50.5t50.5-21 50.5 21 21 50.5z m821.4 35.7v425.8q0 21.7-19.5 31.8-5.6 2.8-9.5 5-121.7 64.7-205.9 64.7-49.1 0-88.2-19.5l-15.6-7.8q-35.7-18.4-55.3-26.8t-50.8-16.2-63.6-7.8q-56.9 0-131.4 24.5t-127.5 57q-8.4 5-18.4 5-8.9 0-17.9-4.5-17.8-10.6-17.8-31.2v-414.1q0-19.5 17.3-30.7 19.5-11.7 43.8-23.7t63.6-29 85.1-27.6 86.5-10.6q62.5 0 116.6 17.3t116.6 47.9q21.3 10.7 49.7 10.7 68.1 0 173-62.5 12.3-6.7 17.3-9.5 17.3-9 34.6 1.1 17.3 11.1 17.3 30.7z" /></svg>