<svg width="1071.4" height="1000" xmlns="http://www.w3.org/2000/svg"><path d="m993.9 519.5q0-19.5-29.6-19.5h-607.2q-22.3 0-47.7 12t-39.9 29.3l-164 202.6q-10.1 13.4-10.1 22.3 0 19.5 29.6 19.5h607.1q22.4 0 48-12.3t39.7-29.5l164-202.6q10.1-12.3 10.1-21.8z m-636.8-90.9h428.6v-89.3q0-22.3-15.6-38t-38-15.6h-321.4q-22.3 0-37.9-15.6t-15.7-38v-35.7q0-22.3-15.6-37.9t-37.9-15.6h-178.6q-22.3 0-37.9 15.6t-15.7 37.9v476l142.9-175.7q24.5-29.6 64.7-48.9t78.1-19.2z m708.2 90.9q0 34.6-25.7 67l-164.6 202.6q-24 29.5-64.7 48.8t-78.2 19.2h-607.1q-51.3 0-88.2-36.8t-36.8-88.2v-535.7q0-51.3 36.8-88.1t88.2-36.9h178.6q51.3 0 88.1 36.9t36.9 88.1v17.9h303.5q51.4 0 88.2 36.8t36.8 88.2v89.3h107.2q30.1 0 55.2 13.6t37.4 39.4q8.4 17.8 8.4 37.9z" /></svg>