<svg width="714.3" height="1000" xmlns="http://www.w3.org/2000/svg"><path d="m558 242.2l20.7-108.3q2.8-12.8-5-22.3t-19.6-9.5h-397.3q-12.8 0-21.5 9.5t-8.6 20.7v614.4q0 3.9 3.3 0.5l162.4-196.4q12.8-14.5 21.2-18.7t26.8-4.2h133.4q12.2 0 20.6-8.1t10.1-16.5q13.4-72.5 20.6-106.5 2.2-11.8-6.4-22.4t-20.4-10.6h-164q-16.2 0-26.8-10.6t-10.6-26.7v-23.5q0-16.2 10.6-26.5t26.8-10.3h193q10.1 0 19.6-7.6t11.1-16.4z m126.7-123.9q-8.4 40.7-29.8 148.7t-38.8 195.3-19.6 96.9q-3.3 12.2-5 18.1t-7.8 18.1-13.7 18.4-21.5 11.8-32.3 5.5h-151.2q-7.3 0-12.3 5.6-4.5 5-237.7 275.7-12.3 13.9-32.7 15.9t-27.1-3.1q-30.6-12.3-30.6-54.7v-786.8q0-30.7 21.2-57.2t66.9-26.5h495.6q53 0 70.8 29.6t5.6 88.7z m0 0l-88.2 440.9q2.3-9.5 19.6-96.9t38.8-195.3 29.8-148.7z" /></svg>