<svg width="571.4" height="1000" xmlns="http://www.w3.org/2000/svg"><path d="m569.2 634.5v204.8q0 7.8-5 12.8t-12.9 5h-533.4q-7.9 0-12.9-5t-5-12.8v-83.7q0-7.3 5.3-12.6t12.6-5.3h54.1v-213.7h-53q-7.8 0-12.9-5.3t-5-12.6v-73.1q0-7.8 5-12.8t12.9-5h53v-124.5q0-95.4 68.9-157.3t175.5-62q103.2 0 186.9 69.8 5.1 4.4 5.6 11.4t-3.9 12.6l-57.5 70.8q-5 6.2-12.2 6.7-7.3 1.2-12.9-3.9-2.8-2.8-14.5-10.6t-38.5-17.8-51.9-10.1q-47.4 0-76.4 26.3t-29 68.6v120h170.2q7.2 0 12.5 5t5.3 12.8v73.1q0 7.3-5.3 12.6t-12.5 5.3h-170.2v211.5h231v-101q0-7.3 5-12.6t12.8-5.3h90.4q7.9 0 12.9 5.3t5 12.6z" /></svg>