<svg width="1000.0" height="1000" xmlns="http://www.w3.org/2000/svg"><path d="m487.7 914.1v36.8q-116-3.4-214.8-61.1t-157.9-153.8l32.3-18.9q16.2 27.3 40.8 55.2l36.2-31.8q82.6 93.8 205.4 118.3l-9.5 48q36.3 6.7 67.5 7.3z m-333.7-295.8l-46.3 15.6q12.3 33.5 27.3 62.5l-31.8 18.4q-54.7-100.4-54.7-214.8t54.7-214.8l31.8 18.4q-16.7 31.2-27.3 62.5l45.8 15.6q-19.6 55.8-19.6 118.3 0 60.8 20.1 118.3z m698.7 98.8l32.3 18.9q-59.1 96-157.9 153.8t-214.8 61.1v-36.8q31.2-0.6 67.5-7.3l-9.5-48q122.8-24.5 205.4-118.3l36.2 31.8q24.6-27.9 40.8-55.2z m-84.3-309.2l-130 44.7q7.8 23.4 7.8 47.4t-7.8 47.4l129.5 44.7q-17.3 51.3-54.7 94.3l-103.3-90.4q-31.8 37.4-82 47.4l26.8 134.5q-29 5.6-54.7 5.6t-54.7-5.6l26.8-134.5q-50.2-10-82-47.4l-103.3 90.4q-37.4-43-54.7-94.3l129.5-44.7q-7.8-23.4-7.8-47.4t7.8-47.4l-130-44.7q18.4-51.9 55.2-94.3l103.3 90.4q32.9-37.9 82-48l-26.8-133.9q24.6-5.6 54.7-5.6t54.7 5.6l-26.8 133.9q49.1 10.1 82 48l103.3-90.4q36.8 42.4 55.2 94.3z m-280.7-358.8v36.8q-36.2 1.2-67.5 7.3l9.5 48q-122.8 23.4-205.4 117.7l-36.2-31.2q-21.2 23.4-40.8 54.7l-31.8-18.4q59.2-96 157.4-153.8t214.8-61.1z m463.8 450.9q0 114.4-54.7 214.8l-31.8-18.4q15-29 27.3-62.5l-46.3-15.6q20.1-57.5 20.1-118.3 0-62.5-19.6-118.3l45.8-15.6q-10.6-31.3-27.3-62.5l31.8-18.4q54.7 100.4 54.7 214.8z m-67-236l-31.8 18.4q-19.6-31.3-40.8-54.7l-36.2 31.2q-82.6-94.3-205.4-117.7l9.5-48q-31.3-6.1-67.5-7.3v-36.8q116.6 3.4 214.8 61.1t157.4 153.8z m90.9 236q0-96.5-37.6-184.7t-101.3-151.8-151.8-101.3-184.7-37.6-184.7 37.6-151.8 101.3-101.3 151.8-37.6 184.7 37.6 184.7 101.3 151.8 151.8 101.3 184.7 37.6 184.7-37.6 151.8-101.3 101.3-151.8 37.6-184.7z m24.6 0q0 101.6-39.6 194.2t-106.6 159.6-159.6 106.6-194.2 39.6-194.2-39.6-159.6-106.6-106.6-159.6-39.6-194.2 39.6-194.2 106.6-159.6 159.6-106.6 194.2-39.6 194.2 39.6 159.6 106.6 106.6 159.6 39.6 194.2z" /></svg>