<svg width="857.1" height="1000" xmlns="http://www.w3.org/2000/svg"><path d="m219.9 754.5q-4.5 5-11.2-1.7-7.2-6.1-2.2-10.6 4.4-5 11.1 1.7 6.7 6.1 2.3 10.6z m-23.5-34.1q5.1 6.7 0 10.6-4.4 3.4-9.5-3.9t0-10q5.1-3.9 9.5 3.3z m-34-33.5q-2.8 3.9-7.3 1.2-5.5-2.8-3.9-6.7 1.7-2.8 7.3-1.2 5.6 2.8 3.9 6.7z m17.3 19q-3.4 3.9-8.9-1.7-5.1-6.1-1.2-8.9 3.4-3.3 9 1.7 5 6.1 1.1 8.9z m72 62.5q-2.3 6.7-10.6 3.4-9.5-2.3-7.3-8.4t10.6-3.9q8.9 2.8 7.3 8.9z m35.1 2.8q0 6.1-8.9 6.1-9.5 1.2-9.5-6.1 0-6.1 8.9-6.1 9.5-1.1 9.5 6.1z m32.4-5.6q1.1 5.6-7.8 7.8t-10.1-4.4 7.9-8.4q8.9-1.1 10 5z m537.9-533.5v535.8q0 66.4-47.1 113.5t-113.6 47.2h-125q-8.9 0-13.6-0.6t-10.9-2.8-9-8.1-2.7-15.3v-133.4q0-54.1-29.1-79.2 31.8-3.4 57.2-10.1t52.5-21.7 45.2-37.1 29.6-58.6 11.4-84q0-67.5-44.1-115 20.7-50.8-4.4-113.8-15.7-5-45.2 6.1t-51.4 24.6l-21.2 13.4q-51.9-14.5-107.1-14.5t-107.2 14.5q-8.9-6.2-23.7-15.1t-46.6-21.5-48-7.5q-24.5 63-3.9 113.8-44.1 47.5-44.1 115 0 47.4 11.5 83.7t29.3 58.6 44.9 37.4 52.4 21.7 57.2 10.1q-22.3 20.1-27.3 57.5-11.7 5.5-25.1 8.3t-31.8 2.8-36.6-12-30.9-34.9q-10.6-17.8-27.1-29t-27.6-13.4l-11.2-1.6q-11.7 0-16.2 2.5t-2.8 6.4 5.1 7.8 7.2 6.7l3.9 2.8q12.3 5.6 24.3 21.2t17.6 28.4l5.6 12.9q7.2 21.2 24.5 34.3t37.4 16.7 38.8 3.9 31-1.9l12.8-2.2q0 21.2 0.3 57.4t0.2 38q0 12.3-6.1 18.7t-12.3 7.2-18.4 0.9h-125q-66.4 0-113.5-47.2t-47.2-113.5v-535.8q0-66.4 47.2-113.5t113.5-47.2h535.7q66.4 0 113.6 47.2t47.1 113.5z" /></svg>