<svg width="928.6" height="1000" xmlns="http://www.w3.org/2000/svg"><path d="m357.1 678.6q0 22.3-6.9 45.7t-24 42.4-40.5 19-40.4-19-24-42.4-7-45.7 7-45.8 24-42.4 40.4-19 40.5 19 24 42.4 6.9 45.8z m357.2 0q0 22.3-7 45.7t-24 42.4-40.4 19-40.5-19-24-42.4-7-45.7 7-45.8 24-42.4 40.5-19 40.4 19 24 42.4 7 45.8z m89.3 0q0-67-38.5-113.9t-104.4-46.8q-22.9 0-108.8 11.7-39.6 6.1-87.6 6.1t-87.6-6.1q-84.8-11.7-108.8-11.7-65.9 0-104.4 46.8t-38.5 113.9q0 49.1 17.9 85.6t45.2 57.5 68 33.5 78.2 16.5 83.1 3.9h93.8q45.7 0 83.1-3.9t78.1-16.5 68.1-33.5 45.2-57.5 17.9-85.6z m125-98.2q0 115.5-34.1 184.7-21.2 42.9-58.8 74.2t-78.7 48-94.9 26.5-95.7 12.3-93.2 2.5q-43.5 0-79.2-1.7t-82.3-7-85.1-16.7-76.5-28.8-67.5-45.2-48-64.1q-34.6-68.7-34.6-184.7 0-132.3 75.9-221-15.1-45.8-15.1-94.9 0-64.7 28.5-121.6 60.3 0 106 22t105.5 68.9q82-19.5 172.4-19.5 82.6 0 156.3 17.8 58.6-45.7 104.3-67.5t105.5-21.7q28.4 56.9 28.4 121.6 0 48.6-15 93.8 75.9 89.2 75.9 222.1z" /></svg>