<svg width="857.1" height="1000" xmlns="http://www.w3.org/2000/svg"><path d="m857.1 500q0 140.1-81.7 252t-211.2 154.8q-15.1 2.8-22.1-3.9t-6.9-16.7v-117.8q0-54.1-29.1-79.2 31.8-3.4 57.2-10.1t52.5-21.7 45.2-37.1 29.6-58.6 11.4-84q0-67.5-44.1-115 20.7-50.8-4.4-113.8-15.7-5-45.2 6.1t-51.4 24.6l-21.2 13.4q-51.9-14.5-107.1-14.5t-107.2 14.5q-8.9-6.2-23.7-15.1t-46.6-21.5-48-7.5q-24.5 63-3.9 113.8-44.1 47.5-44.1 115 0 47.4 11.5 83.7t29.3 58.6 44.9 37.4 52.4 21.7 57.2 10.1q-22.3 20.1-27.3 57.5-11.7 5.5-25.1 8.3t-31.8 2.8-36.6-12-30.9-34.9q-10.6-17.8-27.1-29t-27.6-13.4l-11.2-1.6q-11.7 0-16.2 2.5t-2.8 6.4 5.1 7.8 7.2 6.7l3.9 2.8q12.3 5.6 24.3 21.2t17.6 28.4l5.6 12.9q7.2 21.2 24.5 34.3t37.4 16.7 38.8 3.9 31-1.9l12.8-2.2q0 21.2 0.3 49.6t0.2 30.2q0 10-7.2 16.7t-22.3 3.9q-129.5-43-211.2-154.8t-81.8-252q0-116.6 57.5-215.1t155.9-156 215.2-57.5 215.1 57.5 156 156 57.4 215.1z" /></svg>