<svg width="928.6" height="1000" xmlns="http://www.w3.org/2000/svg"><path d="m410.2 444.2q0 20.1 17.8 39.3t43.3 38 50.5 41 42.9 58 17.9 79.3q0 50.2-26.8 96.5-40.2 68.1-117.7 100.2t-166.3 32.1q-73.7 0-137.6-23.2t-95.7-76.7q-20.6-33.5-20.6-73.1 0-45.2 24.8-83.7t66.1-64.2q73.1-45.8 225.5-55.8-17.9-23.4-26.5-41.3t-8.7-40.7q0-20.1 11.7-47.5-25.6 2.3-37.9 2.3-82.6 0-139.3-53.9t-56.6-136.4q0-45.8 20.1-88.8t55.2-73.1q43-36.8 101.9-54.6t121.4-17.9h233.2l-77 49.1h-73.1q41.3 35.2 62.5 74.2t21.2 89.3q0 40.2-13.7 72.3t-32.9 51.9-38.8 36.2-33.2 34.4-13.6 36.8z m-81.5-53.6q21.2 0 43.5-9.2t36.8-24.3q29.6-31.8 29.6-88.7 0-32.4-9.5-69.7t-27-72.3-47.2-57.8-65.3-22.8q-23.4 0-46 10.8t-36.6 29.3q-26.2 33-26.2 89.3 0 25.7 5.6 54.4t17.6 57.5 29 51.6 41.8 37.4 53.9 14.5z m1.1 487.2q32.4 0 62.2-7.3t55.3-21.7 40.7-40.8 15.3-60.8q0-13.9-3.9-27.3t-8-23.5-15.1-23.1-16.5-19.6-21.5-19.2-20.3-16.2-23.2-16.7-20.4-14.5q-8.9-1.2-26.7-1.2-29.6 0-58.6 3.9t-60 14-54.2 25.7-38.2 41.5-15 58.9q0 39.1 19.5 68.9t51 46.3 66.4 24.6 71.2 8.1z m452-488.8h118.9v60.2h-118.9v122.2h-58.6v-122.2h-118.3v-60.2h118.3v-121.1h58.6v121.1z" /></svg>