<svg width="1000.0" height="1000" xmlns="http://www.w3.org/2000/svg"><path d="m335.9 327.6q10.6 34 17.3 68.9t9.5 78.9-7.8 88.8-34.6 80.9q-11.7-45.2-37.4-87.6t-53.3-70.9-55.2-50.5-43.8-32.1-18.4-10.6q-34.6-19-45.5-55.8t8.1-71.4 56.3-45.5 72 8.1q77 46.3 132.8 98.8z m181.4-160.2q6.1 14 11.4 25.7t20.4 56.1 23.7 83.9 14.3 100.2 0 114.7-26.6 116.9-58.8 116.4q-28.5 40.1-77 40.1-30.2 0-54.7-17.3-31.8-22.3-38.5-60.8t15.6-70.9q33.5-47.4 45.2-108.8t7.3-111.3-17.9-100.7-21.8-71.5-12.2-29q-17.3-35.1-4.8-72.2t47.7-54.5q19-9.4 41.9-9.4 26.2 0 49.4 13.9t35.4 38.5z m179.1 373.3q-9.5 89.3-40.1 173.6-9.5-73.1-35.2-137.3 13.9-97.1-2.8-201.4-15.1-99.4-52.5-190.9 63.7 50.2 118.4 117.8 5 20.6 8.3 44.6 14.5 99.9 3.9 193.6z m151.8-487.1q5 9.5 13.1 27.6t24.3 65.6 28.2 99.3 19 126.9 2.7 150.2-26.2 167.4-62.8 180.5q-12.2 26.8-36.8 42.1t-53 15.4q-21.8 0-41.3-9-37.4-17.3-51.6-55.8t2.5-75.9q32.4-70.3 50.2-143.6t20.9-133.7-1.9-119.1-14.8-100.8-21.5-77.3-18.1-50.2-8.7-18.1q-18.9-36.3-6.4-75.6t48.8-58.3q20.7-11.2 45.2-11.2 27.4 0 51.1 14.2t37.1 39.4z" /></svg>