<svg width="857.1" height="1000" xmlns="http://www.w3.org/2000/svg"><path d="m462.6 679.7q0 42.4-32.6 62.8t-77.9 20.3q-22.9 0-44.9-5.3t-42.1-15.9-32.4-29.5-12.3-43.6q0-25.6 14-44.6t36.5-28.8 45.8-13.9 47.1-4.2q11.2 0 17.3 1.1 1.2 0.6 12.9 9.2t14.5 10.6 12.8 10.1 13.7 12.3 10.6 12.5 9.5 14.5 5 14.8 2.5 17.6z m-41.3-304.1q0 33.4-18.4 55.5t-51.3 22q-29.6 0-51.9-23.7t-32.1-53.8-9.8-59.2q0-34 17.9-58t51.3-24q29.6 0 52.2 25.1t32.4 56.3 9.7 59.8z m59.2-143.5l49.1-35.7h-147.9q-47.4 0-89.8 17.9t-71.2 54.7-28.7 85.4q0 51.9 36 86.2t88.4 34.3q12.3 0 24-1.7-7.3 16.2-7.3 30.1 0 24.6 22.4 52.5-97.7 6.7-143.4 35.2-26.3 16.1-42.2 40.7t-15.9 53q0 24 10.3 43.3t27.1 31.5 38.5 20.6 43.3 11.8 42.6 3.3q33.5 0 67.3-8.6t63.3-25.7 48-46.1 18.4-65.2q0-27.4-11.1-50t-27.4-37.1-32.3-26.5-27.4-24.6-11.1-24.8 8.6-23.7 20.9-22.1 24.6-23.4 20.9-33.2 8.7-46q0-33.5-12.6-55.6t-40.4-50.5h46.3z m162.4 250h71.4v-35.7h-71.4v-71.4h-35.8v71.4h-71.4v35.7h71.4v89.3h35.8v-89.3z m214.2-250v535.8q0 66.4-47.1 113.5t-113.6 47.2h-535.7q-66.4 0-113.5-47.2t-47.2-113.5v-535.8q0-66.4 47.2-113.5t113.5-47.2h535.7q66.4 0 113.6 47.2t47.1 113.5z" /></svg>