<svg width="714.3" height="1000" xmlns="http://www.w3.org/2000/svg"><path d="m547.4 747.2q0-13.9-3.9-27.3t-8.1-23.5-15-23.1-16.5-19.6-21.5-19.2-20.3-16.2-23.2-16.7-20.4-14.5q-8.9-1.2-27.3-1.2-29.6 0-58.3 3.9t-59.7 14-54.2 25.7-38.2 41.5-15.1 58.9q0 31.3 13.2 56.9t34 42.2 48.5 27.9 55.8 16.1 56.7 4.8q32.4 0 62.2-7.3t55.3-21.7 40.7-40.8 15.3-60.8z m-65.3-478.8q0-32.9-9.4-70t-26.8-72-46.9-57.8-65.3-22.8q-23.4 0-46 10.8t-37.1 29.3q-25.7 33-25.7 89.3 0 25.7 5.6 54.4t17.5 57.5 29.1 51.6 41.8 37.4 53.9 14.5q20.6 0 43.2-9.2t36.6-24.3q29.5-31.2 29.5-88.7z m-62.5-268.4h232.7l-76.4 49.1h-73.7q41.9 35.2 63.1 74.2t21.2 89.3q0 40.2-13.7 72.3t-33.2 51.9-38.8 36.2-32.9 34.4-13.7 36.8q0 20.1 17.9 39.3t43 38 50.5 41 43.2 58 17.9 79.3q0 50.8-27.4 96.5-39.6 68.1-116.9 100.2t-166.6 32.1q-73.6 0-137.5-23.2t-96.3-76.7q-20.1-32.9-20.1-73.1 0-45.2 24.9-83.7t66.1-64.2q73.1-45.8 225.4-55.8-17.8-22.9-26.5-41t-8.6-41q0-22.4 11.7-47.5-25.7 2.3-37.9 2.3-82.6 0-139.3-53.9t-56.6-136.4q0-45.8 20.1-88.8t55.2-73.1q42.4-36.8 101.6-54.6t121.6-17.9z" /></svg>