<svg width="1071.4" height="1000" xmlns="http://www.w3.org/2000/svg"><path d="m330.9 500q-90.4 2.8-147.9 71.4h-74.7q-45.8 0-77.1-22.6t-31.2-66.1q0-197 69.2-197 3.3 0 24.3 11.7t54.4 23.7 66.4 12q37.4 0 74.2-12.8-2.8 20.7-2.8 36.8 0 77.6 45.2 142.9z m597.7 355.5q0 66.9-40.8 105.7t-108.2 38.8h-487.7q-67.6 0-108.3-38.8t-40.7-105.7q0-29.6 1.9-57.8t7.8-60.8 14.8-60.6 24-54.4 34.6-45.2 47.7-29.8 62.2-11.2q5.6 0 24 12t40.8 26.8 59.7 26.8 75.3 12 75.3-12 59.8-26.8 40.7-26.8 24-12q34 0 62.2 11.2t47.7 29.8 34.6 45.2 24 54.4 14.8 60.6 7.8 60.8 2 57.8z m-571.5-712.6q0 59.1-41.8 101t-101 41.8-101-41.8-41.9-101 41.9-101 101-41.9 101 41.9 41.8 101z m392.9 214.2q0 88.8-62.8 151.5t-151.5 62.8-151.5-62.8-62.8-151.5 62.8-151.5 151.5-62.7 151.5 62.7 62.8 151.5z m321.4 125.6q0 43.5-31.2 66.1t-77 22.6h-74.8q-57.5-68.6-147.9-71.4 45.2-65.3 45.2-142.9 0-16.1-2.8-36.8 36.9 12.8 74.2 12.8 33 0 66.4-12t54.5-23.7 24.2-11.7q69.2 0 69.2 197z m-71.4-339.8q0 59.1-41.9 101t-101 41.8-101-41.8-41.8-101 41.8-101 101-41.9 101 41.9 41.9 101z" /></svg>