<svg width="857.1" height="1000" xmlns="http://www.w3.org/2000/svg"><path d="m785.7 535.7q0-46.9-17.8-102.1t-35.8-108.3-17.8-93.2v-17.8h-357.2v17.8q0 19.6-6.7 37.7t-20.6 34.9-25.7 27.9-30.1 27.3q-5 4.5-7.8 6.7-45.2 40.2-80.9 62.5-12.3 7.8-38 21.2-1.7 0.6-12.5 5.9t-20.1 10.3-19.8 11.2-17.1 12-6.4 10.3q0 39.6 17 64.5t54.5 24.8q24 0 47.1-8.4t38-18.4 30.6-18.4 27.1-8.4v321.4q0 27.9 21.5 49.7t49.9 21.8q29.1 0 50.3-21.2t21.2-50.3v-184.7q25.6 19.6 57.4 19.6 38.6 0 66.5-29.6 17.8 10 38.5 10t41-9.7 29.3-26.5q13.4 2.2 31.2 2.2 47.5 0 70.3-27.1t22.9-75.6z m-71.4-428.6q0-14.5-10.6-25.1t-25.1-10.6-25.1 10.6-10.6 25.1 10.6 25.2 25.1 10.6 25.1-10.6 10.6-25.2z m142.8 426.4q0 79.2-43.2 128.3t-121.4 48.6l-2.8-0.6q-42.4 34.1-99.3 34.1-12.3 0-24-1.7-30.1 16.7-66.4 20.6v94.3q0 58.6-42.4 100.8t-101 42.1q-57.5 0-99.9-42.4t-42.4-100.5v-208.7q-30.1 12.3-71.4 12.3-67.6 0-105.2-45.5t-37.7-115.2q0-21.2 9.8-38.8t27.6-30.7 35.1-22.6 40.2-20.6 34.6-18.4q30.7-19.6 72-55.8 1.7-1.2 9.5-7.9t12-10.6 12-11.4 12.5-13.4 10.1-12.5 7.8-13.2 2.5-12v-160.7q0-29.5 20.9-50.5t50.5-20.9h357.2q29.6 0 50.5 20.9t20.9 50.5v160.7q0 33 32.9 124.5 38.5 106 38.5 176.9z" /></svg>