<svg width="857.1" height="1000" xmlns="http://www.w3.org/2000/svg"><path d="m714.3 892.9q0-14.6-10.6-25.2t-25.1-10.6-25.1 10.6-10.6 25.2 10.6 25.1 25.1 10.6 25.1-10.6 10.6-25.1z m71.4-426.4q0-105.5-93.2-105.5-14.5 0-31.2 2.8-9-16.7-29.3-26.5t-41-9.7-38.5 10q-27.9-29.6-66.5-29.6-13.9 0-30.9 5.6t-26.5 14v-184.7q0-29.1-21.2-50.3t-50.3-21.2q-28.4 0-49.9 21.8t-21.5 49.7v321.4q-11.1 0-27.1-8.4t-30.6-18.4-38-18.4-47.1-8.4q-37.4 0-54.5 24.8t-17 64.5q0 13.4 77.6 50.2 24.5 13.4 36.3 20.7 35.7 22.3 80.9 62.5 45.2 39.6 59.1 56.3 31.8 38.5 31.8 78.2v17.8h357.2v-17.8q0-40.2 17.8-93.2t35.8-108 17.8-100.2z m71.4-2.8q0 74.2-38.5 179.7-32.9 91.5-32.9 124.5v160.7q0 29.5-20.9 50.5t-50.5 20.9h-357.2q-29.5 0-50.5-20.9t-20.9-50.5v-160.7q0-5.6-2.5-12t-7.8-13.2-10.1-12.5-12.5-13.4-12-11.4-12-10.6-9.5-7.9q-41.3-36.2-72-55.8-11.7-7.2-34.6-18.4t-40.2-20.6-35.1-22.6-27.6-30.7-9.8-38.8q0-69.8 37.4-115.2t105.5-45.5q37.9 0 71.4 12.3v-208.7q0-58.1 42.4-100.5t99.9-42.4q58.6 0 101 42.1t42.4 100.8v94.3q34.6 2.2 66.4 20.6 11.7-1.7 24-1.7 56.4 0 99.3 33.5 77.6-0.5 122.5 47.5t44.9 126.6z" /></svg>