<svg width="857.1" height="1000" xmlns="http://www.w3.org/2000/svg"><path d="m580.4 678.6q0 18.4-13.2 31.5t-31.5 13.1-31.5-13.1-13.1-31.5 13.1-31.6 31.5-13.1 31.5 13.1 13.2 31.6z m142.8 0q0 18.4-13.1 31.5t-31.5 13.1-31.6-13.1-13.1-31.5 13.1-31.6 31.6-13.1 31.5 13.1 13.1 31.6z m62.5 89.3v-178.6q0-7.3-5.3-12.6t-12.5-5.3h-678.6q-7.3 0-12.6 5.3t-5.3 12.6v178.6q0 7.2 5.3 12.5t12.6 5.3h678.6q7.2 0 12.5-5.3t5.3-12.5z m-686.4-267.9h658.5l-87.6-269q-2.2-7.2-8.9-12t-14.5-4.7h-436.4q-7.8 0-14.5 4.7t-9 12z m757.8 89.3v178.6q0 36.8-26.2 63t-63 26.2h-678.6q-36.8 0-63.1-26.2t-26.2-63v-178.6q0-14 8.9-41.9l110-338.1q9.4-29.6 35.1-48t56.4-18.4h436.4q30.7 0 56.3 18.4t35.2 48l109.9 338.1q8.9 27.9 8.9 41.9z" /></svg>