<svg width="1000.0" height="1000" xmlns="http://www.w3.org/2000/svg"><path d="m928.6 332.6q0-45.2-12-79.8t-30.7-55-45.5-33.2-52.5-17.3-54.6-4.4-62.5 14.2-61.7 35.7-48.3 40.2-33.5 34.3q-10 12.3-27.3 12.3t-27.3-12.3q-13.4-15.6-33.5-34.3t-48.3-40.2-61.7-35.7-62.5-14.2-54.6 4.4-52.5 17.3-45.5 33.2-30.7 55-12 79.8q0 93.7 104.4 198.1l324.2 312.5 323.7-311.9q104.9-105 104.9-198.7z m71.4 0q0 123.3-127.8 251.1l-347.6 334.8q-10.1 10.1-24.6 10.1t-24.6-10.1l-348.2-335.9q-5.5-4.5-15.3-14.5t-31-36.6-37.9-54.4-29.9-67.5-13.1-77q0-122.8 70.9-192t195.8-69.2q34.6 0 70.6 12t67 32.4 53.3 38.2 42.4 38q20.1-20.1 42.4-38t53.3-38.2 67-32.4 70.6-12q125 0 195.8 69.2t70.9 192z" /></svg>