<svg width="928.6" height="1000" xmlns="http://www.w3.org/2000/svg"><path d="m785.7 553.6v267.8q0 14.5-10.6 25.1t-25.1 10.6h-214.3v-214.2h-142.8v214.2h-214.3q-14.5 0-25.1-10.6t-10.6-25.1v-267.8q0-0.6 0.2-1.7t0.3-1.7l320.9-264.5 320.9 264.5q0.5 1.1 0.5 3.4z m124.5-38.5l-34.6 41.3q-4.5 5-11.8 6.1h-1.6q-7.3 0-11.8-3.9l-386.1-322-386.2 322q-6.7 4.5-13.4 3.9-7.2-1.1-11.7-6.1l-34.6-41.3q-4.4-5.6-3.9-13.1t6.1-12l401.3-334.3q17.8-14.5 42.4-14.5t42.4 14.5l136.2 113.8v-108.8q0-7.8 5-12.8t12.8-5h107.2q7.8 0 12.8 5t5 12.8v227.7l122.2 101.6q5.6 4.4 6.2 12t-3.9 13.1z" /></svg>