<svg width="857.1" height="1000" xmlns="http://www.w3.org/2000/svg"><path d="m571.4 767.9v-89.3q0-7.8-5-12.9t-12.8-5h-53.6v-285.7q0-7.8-5-12.8t-12.9-5.1h-178.5q-7.8 0-12.9 5.1t-5 12.8v89.3q0 7.8 5 12.8t12.9 5h53.5v178.6h-53.5q-7.8 0-12.9 5t-5 12.9v89.3q0 7.8 5 12.8t12.9 5h250q7.8 0 12.8-5t5-12.8z m-71.4-500v-89.3q0-7.8-5-12.9t-12.9-5h-107.1q-7.8 0-12.8 5t-5.1 12.9v89.3q0 7.8 5.1 12.8t12.8 5h107.1q7.9 0 12.9-5t5-12.8z m357.1 232.1q0 116.6-57.4 215.1t-156 156-215.1 57.5-215.2-57.5-155.9-156-57.5-215.1 57.5-215.1 155.9-156 215.2-57.5 215.1 57.5 156 156 57.4 215.1z" /></svg>