<svg width="357.1" height="1000" xmlns="http://www.w3.org/2000/svg"><path d="m357.1 750v71.4q0 14.5-10.6 25.1t-25.1 10.6h-285.7q-14.5 0-25.1-10.6t-10.6-25.1v-71.4q0-14.5 10.6-25.1t25.1-10.6h35.7v-214.3h-35.7q-14.5 0-25.1-10.6t-10.6-25.1v-71.4q0-14.6 10.6-25.2t25.1-10.6h214.3q14.5 0 25.1 10.6t10.6 25.2v321.4h35.7q14.5 0 25.1 10.6t10.6 25.1z m-71.4-642.9v107.2q0 14.5-10.6 25.1t-25.1 10.6h-142.9q-14.5 0-25.1-10.6t-10.6-25.1v-107.2q0-14.5 10.6-25.1t25.1-10.6h142.9q14.5 0 25.1 10.6t10.6 25.1z" /></svg>