<svg width="857.1" height="1000" xmlns="http://www.w3.org/2000/svg"><path d="m760 795.8v-361.6h-75.3q11.2 35.1 11.2 73.1 0 70.3-35.7 129.7t-97.1 94-134 34.6q-109.9 0-188-75.6t-78.2-182.7q0-38 11.2-73.1h-78.7v361.6q0 14.5 9.8 24.2t24.3 9.8h596.5q14 0 24-9.8t10-24.2z m-158.4-297.5q0-69.2-50.5-118t-122-48.8q-70.8 0-121.3 48.8t-50.5 118 50.5 118.1 121.3 48.8q71.5 0 122-48.8t50.5-118.1z m158.4-200.9v-92q0-15.7-11.1-27.1t-27.4-11.4h-97.1q-16.1 0-27.3 11.4t-11.2 27.1v92q0 16.2 11.2 27.4t27.3 11.1h97.1q16.2 0 27.4-11.1t11.1-27.4z m97.1-116v637.2q0 45.2-32.3 77.6t-77.6 32.4h-637.3q-45.2 0-77.5-32.4t-32.4-77.6v-637.2q0-45.2 32.4-77.6t77.5-32.4h637.3q45.2 0 77.6 32.4t32.3 77.6z" /></svg>