<svg width="1142.9" height="1000" xmlns="http://www.w3.org/2000/svg"><path d="m816.4 464.3q0 19.5-13.9 33.7t-34.1 14.3h-391.7q-20.1 0-34.1-14.3t-13.9-33.7 13.9-33.8 34.1-14.2h391.7q20.1 0 34.1 14.2t13.9 33.8z m119.4 0q0-48-12.8-94.9h-548q-20.1 0-34-13.9t-14-33.5q0-20.1 14-34.1t34-13.9h506.7q-49.1-79.8-131.1-126.7t-178.6-46.9q-98.8 0-182.8 48.9t-132.8 132.5-48.8 182.5q0 48 12.8 94.9h548q20.1 0 34.1 13.9t13.9 33.5q0 20.1-13.9 34t-34.1 14h-506.7q49.1 79.8 131.4 126.7t178.9 46.8q73.6 0 141.2-28.7t116-77.6 77.6-116.1 29-141.4z m207.1-142.3q0 19.5-14 33.5t-34 13.9h-73.1q9.5 47.5 9.5 94.9 0 93.2-36.6 178.3t-97.9 146.7-146.5 98.3-178.3 36.5q-137.3 0-250.3-74.2t-168.2-195.3h-105.5q-20.1 0-34-14t-14-34q0-19.5 14-33.5t34-13.9h73.7q-9.5-47.5-9.5-94.9 0-93.2 36.5-178.3t98-146.8 146.4-98.2 178.9-36.5q136.7 0 249.7 74.2t168.3 195.3h104.9q20.1 0 34 13.9t14 34.1z" /></svg>