<svg width="857.1" height="1000" xmlns="http://www.w3.org/2000/svg"><path d="m597.1 598.8l-89.3 89.3-84.3 84.8-16.7 16.7q-36.3 35.7-84.5 48.6t-95.7 1.1q-9 39-40.2 64.2t-72 25.1q-47.4 0-80.9-33.8t-33.5-81.2q0-40.2 24.8-71.4t63.4-40.2q-12.3-48 0.5-96.5t49.1-84.9l6.7-6.6 84.3 84.8-6.1 6.1q-20.7 20.7-20.7 49.7t20.7 50.2q20.6 20.6 49.6 20.6t49.7-20.6l16.7-16.7 84.3-84.9 89.8-89.2z m-190.3-380.6l6.7 6.7-84.8 84.8-6.7-6.7q-20.7-20.6-49.7-20.6t-49.6 20.6-20.7 50 20.7 49.9l16.1 16.2 84.9 84.8 89.2 89.3-84.2 84.8-89.9-89.3-84.2-84.8-16.8-16.7q-37.9-37.4-50.2-89t2.8-100.2q-39.1-8.4-64.2-39.6t-25.1-72q0-47.4 33.5-81.2t80.9-33.8q42.4 0 74.5 27.4t38.8 68.6q46.9-11.2 94.6 2t83.4 48.8z m450.3 595.4q0 47.4-33.4 81.2t-81 33.8q-41.2 0-73.1-26.3t-39.6-65.8q-48 15.6-100.1 3.3t-90.2-50.2l-6.1-6.7 84.3-84.8 6.7 6.7q20.6 20.6 49.6 20.6t49.7-20.6 20.6-49.7-20.6-49.6l-16.8-16.8-84.8-84.8-89.3-89.3 84.9-84.8 89.2 89.3 84.9 84.8 16.1 16.7q35.8 35.8 48.9 84t1.4 95.7q42.4 6.2 70.6 38.3t28.1 75z m-1.1-627.2q0 43-28.4 75.3t-70.9 38.5q14.5 47.5 1.7 98.5t-50.3 88.5l-6.6 6.7-84.3-84.9 6.7-6.7q20.6-20.6 20.6-49.6t-20.6-49.7-49.7-20.6-49.6 20.6l-16.8 16.8-84.8 84.8-89.3 89.3-84.8-84.9 89.8-89.2 84.8-84.9 16.2-16.7q37.4-37.4 88.8-50t99.3 2q6.1-41.9 38.2-70.3t75.6-28.5q47.5 0 80.9 33.8t33.5 81.2z" /></svg>