<svg width="1142.9" height="1000" xmlns="http://www.w3.org/2000/svg"><path d="m1004.5 430.8q61.9 25.7 100.1 81.2t38.3 123.6q0 91.5-65.9 156.5t-159 65q-2.3 0-6.4-0.2t-5.9-0.3h-674.7-0.5-1.1-2.8q-94.9-5.6-160.8-70t-65.8-156.6q0-61.4 30.7-113.3t82-82q-6.7-21.8-6.7-45.7 0-64.2 45.8-109.4t111-45.2q53 0 96 32.3 41.9-85.9 124.2-138.4t182.2-52.4q92.6 0 170.7 44.9t123.6 121.9 45.5 168q0 3.4-0.3 10.1t-0.2 10z m-743.3 148.4q0 68.1 46.8 107.7t116.1 39.7q76.5 0 133.9-55.3-8.9-11.1-26.5-31.5t-24.2-28.2q-37.4 36.3-80.4 36.3-30.7 0-52.2-18.7t-21.5-48.8q0-29.6 21.5-48.6t51.1-19q24.5 0 47.1 11.8t40.8 30.6 36.2 41.9 38.5 45.8 43 41.8 54.1 30.7 67.8 11.7q67.6 0 114.2-39.9t46.6-106.3q0-67.5-46.9-107.1t-115.5-39.6q-79.8 0-134.5 54.1 7.8 8.9 16.4 19t19.3 22.3 16.2 18.9q36.8-35.7 79.2-35.7 29 0 51.4 18.5t22.3 46.8q0 31.8-20.7 51.1t-52.4 19.2q-24 0-46.1-11.7t-40.1-30.7-36.6-41.8-38.8-45.8-43.2-41.8-53.9-30.7-66.1-11.7q-68.1 0-115.5 39.3t-47.4 105.7z" /></svg>