<svg width="1071.4" height="1000" xmlns="http://www.w3.org/2000/svg"><path d="m214.3 651.8v53.6q0 8.9-8.9 8.9h-53.6q-8.9 0-8.9-8.9v-53.6q0-8.9 8.9-8.9h53.6q8.9 0 8.9 8.9z m71.4-142.9v53.6q0 8.9-8.9 8.9h-125q-8.9 0-8.9-8.9v-53.6q0-8.9 8.9-8.9h125q8.9 0 8.9 8.9z m-71.4-142.8v53.5q0 9-8.9 9h-53.6q-8.9 0-8.9-9v-53.5q0-9 8.9-9h53.6q8.9 0 8.9 9z m571.4 285.7v53.6q0 8.9-8.9 8.9h-482.2q-8.9 0-8.9-8.9v-53.6q0-8.9 8.9-8.9h482.2q8.9 0 8.9 8.9z m-357.1-142.9v53.6q0 8.9-9 8.9h-53.5q-9 0-9-8.9v-53.6q0-8.9 9-8.9h53.5q9 0 9 8.9z m-71.5-142.8v53.5q0 9-8.9 9h-53.6q-8.9 0-8.9-9v-53.5q0-9 8.9-9h53.6q8.9 0 8.9 9z m214.3 142.8v53.6q0 8.9-8.9 8.9h-53.6q-8.9 0-8.9-8.9v-53.6q0-8.9 8.9-8.9h53.6q8.9 0 8.9 8.9z m-71.4-142.8v53.5q0 9-8.9 9h-53.6q-8.9 0-8.9-9v-53.5q0-9 8.9-9h53.6q8.9 0 8.9 9z m214.3 142.8v53.6q0 8.9-8.9 8.9h-53.6q-8.9 0-8.9-8.9v-53.6q0-8.9 8.9-8.9h53.6q8.9 0 8.9 8.9z m214.3 142.9v53.6q0 8.9-9 8.9h-53.5q-9 0-9-8.9v-53.6q0-8.9 9-8.9h53.5q9 0 9 8.9z m-285.7-285.7v53.5q0 9-9 9h-53.5q-9 0-9-9v-53.5q0-9 9-9h53.5q9 0 9 9z m142.8 0v53.5q0 9-8.9 9h-53.6q-8.9 0-8.9-9v-53.5q0-9 8.9-9h53.6q8.9 0 8.9 9z m142.9 0v196.4q0 8.9-9 8.9h-125q-8.9 0-8.9-8.9v-53.6q0-8.9 8.9-8.9h62.5v-133.9q0-9 9-9h53.5q9 0 9 9z m71.4 419.6v-500h-928.6v500h928.6z m71.4-500v500q0 29.6-20.9 50.5t-50.5 20.9h-928.6q-29.5 0-50.5-20.9t-20.9-50.5v-500q0-29.6 20.9-50.5t50.5-20.9h928.6q29.6 0 50.5 20.9t20.9 50.5z" /></svg>