<svg width="1071.4" height="1000" xmlns="http://www.w3.org/2000/svg"><path d="m232.1 714.3q-36.8 0-63-26.2t-26.2-63.1v-392.9q0-36.8 26.2-63t63-26.2h607.2q36.8 0 63 26.2t26.3 63v392.9q0 36.8-26.3 63.1t-63 26.2h-607.2z m-17.8-482.2v392.9q0 7.3 5.3 12.6t12.5 5.3h607.2q7.2 0 12.5-5.3t5.3-12.6v-392.9q0-7.2-5.3-12.5t-12.5-5.3h-607.2q-7.2 0-12.5 5.3t-5.3 12.5z m767.8 517.9h89.3v53.6q0 22.3-26.2 37.9t-63.1 15.6h-892.8q-36.8 0-63.1-15.6t-26.2-37.9v-53.6h89.3 892.8z m-401.7 53.6q8.9 0 8.9-9t-8.9-8.9h-89.3q-9 0-9 8.9t9 9h89.3z" /></svg>