<svg width="1000.0" height="1000" xmlns="http://www.w3.org/2000/svg"><path d="m714.3 392.9q0-14.6-10.6-25.2t-25.1-10.6q-96 0-177.5 27.7t-144.8 74.7-131.4 122.5q-10.6 11.8-10.6 25.1 0 14.6 10.6 25.2t25.1 10.6q13.4 0 25.1-10.6 15.1-13.4 41.3-39.7t37.4-36.8q76.4-69.2 149.8-98.2t175-29q14.5 0 25.1-10.6t10.6-25.1z m285.7-110.5q0 53-11.2 107.7-25.6 125-102.9 213.7t-199.5 149.5q-119.4 60.3-244.4 60.3-82.6 0-159.6-26.2-8.4-2.8-49.1-23.4t-53.6-20.7q-8.9 0-22.1 17.9t-25.1 39-29.3 39.1-33.4 17.8q-16.8 0-28.5-6.1t-17.3-13.4-15.1-23.4q-1.1-2.3-3.3-6.2t-3.1-5.5-1.7-5.3-0.8-7.6q0-19.5 17.3-41t37.9-36.5 38-31.3 17.3-26.8q0-2.2-7.8-21.2t-9-24.5q-5-28.5-5-58.1 0-64.2 24.3-122.7t66.4-103 95.2-77.6 113.8-53.3q30.7-10 80.9-14.2t100.2-5 99.6-3.4 91.2-13.4 63.4-31.5l16.4-16.4t16.5-15.7 15.1-11.1 20.3-9 24.3-2.5q21.8 0 39.3 25.7t26.5 62.5 13.4 69.2 4.5 53.6z" /></svg>