<svg width="857.1" height="1000" xmlns="http://www.w3.org/2000/svg"><path d="m785.2 460.9q0-24.5-3.9-63.3t-10.1-53.8q-6.7-16.8-9.5-24.6t-5-20.4-2.2-27q0-12.9 2.8-38.3t2.7-37.6q0-20.7-5.5-30.7-2.3-0.6-7.3-0.6-10.6 0-32.4 2.5t-32.9 2.5q-33.5 0-98.2-13.4t-97.7-13.3q-23.9 0-52.7 6.4t-47.4 13.1-50 19q-76.4 30.1-112.7 57.4-53.6 40.8-89 105.8t-49.1 131.7-13.7 138.7q0 22.3 7 66.9t7 67.5q0 12.9-6.2 37.2t-6.1 36.5 6.7 20.4 19 8.1q13.4 0 40.4-6.2t41-6.1q31.9 0 94.6 8.6t94.6 8.7q101 0 158.5-20.1 72-25.1 131.4-85.1t92.7-137 33.2-153.5z m71.4-1.1q0 92.1-39.1 182.8t-109.4 160.7-156.8 100.7q-69.2 24.6-181.9 24.6-31.8 0-94.8-8.1t-94.4-8.1q-13.3 0-40.4 8.1t-41 8.1q-40.8 0-68.9-31t-28.2-71.7q0-13.4 6.1-38t6.2-37.3q0-22.4-7-67.3t-7-67.8q0-61.9 10-121.4t30.5-116.9 56-108.2 83.7-87.1q43.6-32.9 129.5-66.9 108.3-43.6 176.3-43.6 33.5 0 98 13.4t96.8 13.4q10.6 0 31.8-2.8t32.4-2.8q45.2 0 65.8 28.2t20.7 75.1q0 12.8-2.8 37.9t-2.8 38q0 5.5 0.6 10.3t1.6 9.5 2.3 7.5 3.6 8.9 3.6 9.5q8.9 22.3 14 66.1t5 76.2z" /></svg>