<svg width="1000.0" height="1000" xmlns="http://www.w3.org/2000/svg"><path d="m500 0q101.6 0 194.2 39.6t159.6 106.6 106.6 159.6 39.6 194.2-39.6 194.2-106.6 159.6-159.6 106.6-194.2 39.6-194.2-39.6-159.6-106.6-106.6-159.6-39.6-194.2 39.6-194.2 106.6-159.6 159.6-106.6 194.2-39.6z m0 71.4q-106 0-201.5 50.3l108.3 108.2q45.8-15.6 93.2-15.6t93.2 15.6l108.3-108.2q-95.5-50.3-201.5-50.3z m-378.3 630.1l108.2-108.3q-15.6-45.8-15.6-93.2t15.6-93.2l-108.2-108.3q-50.3 95.5-50.3 201.5t50.3 201.5z m378.3 227.1q106 0 201.5-50.3l-108.3-108.2q-45.8 15.6-93.2 15.6t-93.2-15.6l-108.3 108.2q95.5 50.3 201.5 50.3z m0-214.3q88.7 0 151.5-62.8t62.8-151.5-62.8-151.5-151.5-62.8-151.5 62.8-62.8 151.5 62.8 151.5 151.5 62.8z m270.1-121.1l108.2 108.3q50.3-95.5 50.3-201.5t-50.3-201.5l-108.2 108.3q15.6 45.8 15.6 93.2t-15.6 93.2z" /></svg>