<svg width="857.1" height="1000" xmlns="http://www.w3.org/2000/svg"><path d="m132.3 789.1h128.9v-387.3h-128.9v387.3z m137.2-506.7q-0.5-29.1-20.1-48t-51.9-19-52.7 19-20.4 48q0 28.4 19.9 47.7t51.6 19.2h0.5q33 0 53-19.2t20.1-47.7z m326.5 506.7h128.9v-222.1q0-86-40.7-130.1t-107.7-44q-75.9 0-116.7 65.2h1.1v-56.3h-128.9q1.7 36.8 0 387.3h128.9v-216.6q0-21.2 3.9-31.2 8.4-19.5 25.2-33.2t41.3-13.7q64.7 0 64.7 87.6v207.1z m261.1-557v535.8q0 66.4-47.1 113.5t-113.6 47.2h-535.7q-66.4 0-113.5-47.2t-47.2-113.5v-535.8q0-66.4 47.2-113.5t113.5-47.2h535.7q66.4 0 113.6 47.2t47.1 113.5z" /></svg>