<svg width="857.1" height="1000" xmlns="http://www.w3.org/2000/svg"><path d="m370 229.4q-6.2 0.5-8.7 5.8t-4.7 5.3q-2.8 0.6-2.8-2.8 0-6.7 10.6-8.3h5.6z m48.5 7.8q-2.2 0.5-6.4-3.7t-9.8-2.5q13.4-6.1 17.9 1.1 1.7 3.4-1.7 5.1z m-195.8 238.2q-2.3-0.5-3.4 1.7t-2.5 7-3.1 7.5-5.6 7.3q-3.9 5.6-0.5 6.7 2.2 0.5 7-3.9t6.9-10.1q0.6-1.6 1.2-3.9t1.1-3.3 0.8-2.5 0.3-2.3v-1.6t-0.6-1.4-1.6-1.2z m477.1 200.4q0-10.1-30.7-23.5 2.2-8.3 4.2-15.3t2.8-14.5 1.6-12 0.3-12.6-0.5-10.8-2-12.3-2.2-11.5-2.8-13.9-3.1-14.8q-5.6-26.8-26.2-57.5t-40.2-41.8q13.4 11.1 31.8 46.3 48.6 90.4 30.1 155.1-6.1 22.3-27.9 23.5-17.3 2.2-21.4-10.4t-4.5-46.6-6.4-59.7q-5-21.7-10.9-38.5t-10.9-25.4-8.6-13.6-7.3-8.4-4.2-3.9q-7.8-34.6-17.3-57.5t-16.4-31.2-13.1-18.5-8.4-22.3q-2.3-11.7 3.3-29.8t2.5-27.7-24.8-13.9q-8.4-1.7-24.8-10.1t-19.8-8.9q-4.5-0.5-6.2-14.5t4.5-28.5 20.1-15q20.6-1.7 28.4 16.7t2.3 32.4q-6.2 10.6-1.1 14.8t16.7 0.3q7.3-2.3 7.3-20.1v-20.7q-2.8-16.7-7.6-27.9t-11.7-17-13.1-8.4-15.1-4.2q-59.7 4.5-49.6 74.8 0 8.4-0.6 8.4-5-5-16.5-5.9t-18.4 0.3-8.6-2.8q0.5-31.8-9-50.2t-25.1-19q-15-0.5-23.1 15.4t-9.2 33.2q-0.6 8.3 1.9 20.6t7.3 20.9 8.6 7.6q5.6-1.7 8.9-7.8 2.3-5.1-3.9-4.5-3.9 0-8.6-8.1t-5.3-18.7q-0.6-12.3 5-20.6t19-7.8q9.5 0 15.1 11.7t5.3 21.7-0.9 12.3q-12.3 8.4-17.3 16.2-4.4 6.7-15.3 13.1t-11.5 7q-7.2 7.8-8.6 15.1t4.2 10q7.8 4.5 13.9 10.9t8.9 10.6 10.4 7.2 19.8 3.7q26.2 1.1 56.9-8.4 1.1-0.6 12.8-3.9t19.3-5.9 16.5-7.2 11.7-9.8q5-7.8 11.1-4.5 2.8 1.7 3.7 4.8t-1.7 6.7-9.2 5.3q-11.2 3.3-31.6 12t-25.3 10.9q-24.6 10.6-39.1 12.8-14 2.8-44.1-1.1-5.6-1.1-5 1.1t9.5 10.6q13.9 12.8 37.4 12.3 9.4-0.6 20.1-3.9t20-7.8 18.7-9.8 16.8-9.5 13.6-6.7 9.8-1.4 4.8 6.2q0 1.1-0.6 2.5t-2.2 2.8-3.4 2.5-4.7 2.8-5 2.5-5.6 2.8-5.3 2.5q-15.7 7.8-37.7 24.5t-37.1 24-27.4 0.6q-11.7-6.2-35.1-40.8-12.3-17.3-14-12.2-0.5 1.6-0.5 5.5 0 14-8.4 31.6t-16.4 30.9-11.8 32.4 6.5 35.2q-12.9 3.3-34.9 50.2t-26.5 78.7q-1.1 10-0.9 38.5t-3 32.9q-4.5 13.4-16.2 1.7-17.9-17.3-20.1-52.5-1.1-15.6 2.2-31.2 2.3-10.6-0.5-10.1l-2.3 2.8q-20.1 36.3 5.6 92.6 2.8 6.7 14 15.7t13.4 11.1q11.1 12.9 58 50.5t51.9 42.7q8.9 8.4 9.8 21.2t-7.9 24-25.4 12.9q4.5 8.3 16.2 24.8t15.7 30.1 3.9 39.4q25.6-13.4 3.9-51.4-2.3-4.4-5.9-8.9t-5.3-6.7-1.1-3.3q1.7-2.8 7.2-5.3t11.2 1.4q25.7 29 92.6 20 74.3-8.3 98.8-48.5 12.8-21.2 19-16.7 6.7 3.3 5.6 29-0.6 13.9-12.9 51.3-5 12.8-3.3 20.9t13.4 8.7q1.7-10.6 8.1-43t7.5-50.2q1.1-11.7-3.6-41t-4.2-54.2 12.8-39.3q8.4-10 28.5-10 0.5-20.7 19.2-29.6t40.5-5.9 33.5 12.6z m-350.5-461.5q1.7-9.5-1.4-16.8t-6.4-8.3q-5-1.1-5 3.9 1.1 2.8 2.8 3.3 5.6 0 3.9 8.4-1.7 11.2 4.5 11.2 1.6 0 1.6-1.7z m233.8 109.9q-1.1-4.4-3.6-6.4t-7.2-2.8-8.1-3.1q-2.8-1.6-5.3-4.4t-3.9-4.5-3.1-3.6-2.2-2.2-2.3 0.8q-7.8 8.9 3.9 24.3t21.8 17.5q5 0.6 8.1-4.4t1.9-11.2z m-99.3-118.8q0-6.2-2.8-10.9t-6.1-7-5-1.7q-7.8 0.6-3.9 3.9l2.2 1.1q7.8 2.3 10 17.3 0 1.7 4.5-1.1z m30.2-130.1q0-1.1-1.4-2.8t-5.1-3.9-5.3-3.3q-8.3-8.4-13.4-8.4-5 0.6-6.4 4.2t-0.5 7.3-0.3 6.9q-0.6 2.3-3.4 5.9t-3.3 5 1.7 4.8q2.2 1.6 4.4 0t6.2-5.1 8.3-5q0.6-0.5 5.1-0.5t8.3-1.2 5.1-3.9z m315.2 748.4q11.2 6.7 17.3 13.6t6.7 13.4-1.4 12.6-8.6 12.3-13.1 10.8-16.8 10.4-17.5 9.2-17.9 8.6-15.1 7.3q-21.2 10.6-47.7 31.2t-42.1 35.7q-9.5 9-38 10.9t-49.6-8.1q-10.1-5-16.5-13.1t-9.2-14.2-12.3-10.9-26.2-5.3q-24.5-0.6-72.5-0.6-10.6 0-31.8 0.9t-32.4 1.4q-24.6 0.5-44.4 8.3t-29.8 16.8-24.3 15.9-29.9 6.4q-16.1-0.5-61.9-17.3t-81.5-24q-10.6-2.2-28.4-5.3t-27.9-5-22.1-5.3-18.7-8.1-9.5-10.9q-5.5-12.8 3.9-37.1t10.1-30.4q0.5-8.9-2.2-22.3t-5.6-23.7-2.5-20.4 5.8-15.1q7.8-6.7 31.8-7.8t33.5-6.7q16.8-10 23.5-19.5t6.6-28.5q11.8 40.8-17.8 59.2-17.9 11.1-46.3 8.3-19-1.6-24 5.6-7.3 8.4 2.8 31.8 1.1 3.4 4.4 10.1t4.8 10 2.5 9.5 0.5 12.3q0 8.4-9.4 27.3t-7.9 26.8q1.7 9.5 20.7 14.5 11.2 3.4 47.1 10.3t55.6 11.5q13.4 3.3 41.3 12.3t46 12.8 31 2.2q24-3.3 36-15.6t12.8-26.8-4.2-32.6-10.6-29-11.1-20.4q-67.6-106-94.4-135.1-37.9-41.3-63-22.3-6.1 5-8.4-8.3-1.7-9-1.1-21.3 0.6-16.1 5.6-29t13.4-26.2 12.3-23.4q4.4-11.8 14.7-40.2t16.5-43.5 16.7-34.1 21.8-30.1q61.4-79.8 69.2-108.8-6.7-62.5-8.9-173-1.1-50.2 13.4-84.6t59.1-58.3q21.8-11.7 58.1-11.7 29.5-0.6 59.1 7.5t49.7 23.2q31.8 23.4 51 67.8t16.5 82.3q-2.8 53 16.7 119.4 19 63.1 74.3 121.7 30.6 32.9 55.5 90.9t33.2 106.6q4.4 27.4 2.8 47.2t-6.7 30.9-11.2 12.3q-5.6 1.1-13.1 10.6t-15.1 19.8-22.6 18.7-34 7.8q-10.1-0.5-17.6-2.7t-12.5-7.6-7.6-8.6-6.4-11.5-5-10.9q-12.3-20.6-22.9-16.7t-15.6 27.3 3.9 54.2q11.1 39 0.5 108.8-5.5 36.3 10.1 56.1t40.7 18.4 47.5-19.8q32.9-27.4 49.9-37.1t57.8-23.7q29.5-10.1 42.9-20.4t10.4-19.3-14-15.9-28.7-13.1q-18.5-6.1-27.7-26.8t-8.3-40.4 8.6-26.5q0.6 17.3 4.5 31.5t8.1 22.6 11.4 15.9 11.7 10.6 12 7.3 9.2 5.3z" /></svg>