<svg width="1000.0" height="1000" xmlns="http://www.w3.org/2000/svg"><path d="m212.6 904q0 44.7-30.4 70.3t-75.6 25.7q-59.2 0-96-36.8l31.8-49.1q27.4 25.1 59.2 25.1 16.1 0 28.1-8.1t12-23.7q0-35.7-58.6-31.3l-14.5-31.2q4.5-5.6 18.2-24.3t23.7-30.1 20.6-21.5v-0.6q-8.9 0-27 0.6t-27.1 0.5v29.6h-59.1v-84.8h185.8v49.1l-53 64.2q28.4 6.7 45.2 27.3t16.7 49.1z m1.1-349.9v88.8h-202q-3.3-20.1-3.3-30.2 0-28.4 13.1-51.9t31.5-37.9 36.8-26.5 31.6-24.3 13.1-25.1q0-14-8.1-21.5t-22-7.5q-25.7 0-45.2 32.3l-47.5-32.9q13.4-28.4 39.9-44.4t58.9-15.9q40.7 0 68.6 23.2t27.9 62.8q0 27.9-18.9 51t-41.9 36-42.1 28.2-19.8 29.3h70.8v-33.5h58.6z m786.3 178v107.2q0 7.2-5.3 12.5t-12.6 5.3h-678.5q-7.3 0-12.6-5.3t-5.3-12.5v-107.2q0-7.8 5-12.8t12.9-5h678.5q7.3 0 12.6 5.3t5.3 12.5z m-785.7-501.6v55.2h-187v-55.2h59.8q0-22.9 0.2-68.1t0.3-67.5v-6.7h-1.1q-4.5 9.5-27.9 30.1l-39.6-42.4 75.9-70.9h59.1v225.5h60.3z m785.7 215.9v107.2q0 7.2-5.3 12.5t-12.6 5.3h-678.5q-7.3 0-12.6-5.3t-5.3-12.5v-107.2q0-7.8 5-12.8t12.9-5h678.5q7.3 0 12.6 5.3t5.3 12.5z m0-285.7v107.2q0 7.2-5.3 12.5t-12.6 5.3h-678.5q-7.3 0-12.6-5.3t-5.3-12.5v-107.2q0-7.2 5.3-12.5t12.6-5.3h678.5q7.3 0 12.6 5.3t5.3 12.5z" /></svg>