<svg width="1000.0" height="1000" xmlns="http://www.w3.org/2000/svg"><path d="m214.3 785.7q0 44.7-31.3 75.9t-75.9 31.3-75.8-31.3-31.3-75.9 31.3-75.9 75.8-31.2 75.9 31.2 31.3 75.9z m0-285.7q0 44.6-31.3 75.9t-75.9 31.2-75.8-31.2-31.3-75.9 31.3-75.9 75.8-31.2 75.9 31.2 31.3 75.9z m785.7 232.1v107.2q0 7.2-5.3 12.5t-12.6 5.3h-678.5q-7.3 0-12.6-5.3t-5.3-12.5v-107.2q0-7.2 5.3-12.5t12.6-5.3h678.5q7.3 0 12.6 5.3t5.3 12.5z m-785.7-517.8q0 44.6-31.3 75.9t-75.9 31.2-75.8-31.2-31.3-75.9 31.3-75.9 75.8-31.3 75.9 31.3 31.3 75.9z m785.7 232.1v107.2q0 7.2-5.3 12.5t-12.6 5.3h-678.5q-7.3 0-12.6-5.3t-5.3-12.5v-107.2q0-7.2 5.3-12.5t12.6-5.3h678.5q7.3 0 12.6 5.3t5.3 12.5z m0-285.7v107.2q0 7.2-5.3 12.5t-12.6 5.3h-678.5q-7.3 0-12.6-5.3t-5.3-12.5v-107.2q0-7.2 5.3-12.5t12.6-5.3h678.5q7.3 0 12.6 5.3t5.3 12.5z" /></svg>