<svg width="1000.0" height="1000" xmlns="http://www.w3.org/2000/svg"><path d="m214.3 660.7v35.7q0 7.3-5.3 12.6t-12.6 5.3h-35.7q-7.2 0-12.5-5.3t-5.3-12.6v-35.7q0-7.2 5.3-12.5t12.5-5.3h35.7q7.3 0 12.6 5.3t5.3 12.5z m0-142.8v35.7q0 7.2-5.3 12.5t-12.6 5.3h-35.7q-7.2 0-12.5-5.3t-5.3-12.5v-35.7q0-7.3 5.3-12.6t12.5-5.3h35.7q7.3 0 12.6 5.3t5.3 12.6z m0-142.9v35.7q0 7.3-5.3 12.6t-12.6 5.3h-35.7q-7.2 0-12.5-5.3t-5.3-12.6v-35.7q0-7.3 5.3-12.6t12.5-5.3h35.7q7.3 0 12.6 5.3t5.3 12.6z m642.8 285.7v35.7q0 7.3-5.3 12.6t-12.5 5.3h-535.7q-7.3 0-12.6-5.3t-5.3-12.6v-35.7q0-7.2 5.3-12.5t12.6-5.3h535.7q7.2 0 12.5 5.3t5.3 12.5z m0-142.8v35.7q0 7.2-5.3 12.5t-12.5 5.3h-535.7q-7.3 0-12.6-5.3t-5.3-12.5v-35.7q0-7.3 5.3-12.6t12.6-5.3h535.7q7.2 0 12.5 5.3t5.3 12.6z m0-142.9v35.7q0 7.3-5.3 12.6t-12.5 5.3h-535.7q-7.3 0-12.6-5.3t-5.3-12.6v-35.7q0-7.3 5.3-12.6t12.6-5.3h535.7q7.2 0 12.5 5.3t5.3 12.6z m71.5 392.9v-464.3q0-7.3-5.3-12.6t-12.6-5.3h-821.4q-7.3 0-12.6 5.3t-5.3 12.6v464.3q0 7.2 5.3 12.5t12.6 5.3h821.4q7.3 0 12.6-5.3t5.3-12.5z m71.4-607.2v607.2q0 36.8-26.2 63t-63.1 26.2h-821.4q-36.8 0-63.1-26.2t-26.2-63v-607.2q0-36.8 26.2-63t63.1-26.3h821.4q36.8 0 63.1 26.3t26.2 63z" /></svg>