<svg width="1000.0" height="1000" xmlns="http://www.w3.org/2000/svg"><path d="m142.9 732.1v107.2q0 7.2-5.3 12.5t-12.6 5.3h-107.1q-7.3 0-12.6-5.3t-5.3-12.5v-107.2q0-7.2 5.3-12.5t12.6-5.3h107.1q7.3 0 12.6 5.3t5.3 12.5z m0-214.2v107.1q0 7.3-5.3 12.6t-12.6 5.3h-107.1q-7.3 0-12.6-5.3t-5.3-12.6v-107.1q0-7.3 5.3-12.6t12.6-5.3h107.1q7.3 0 12.6 5.3t5.3 12.6z m0-214.3v107.1q0 7.3-5.3 12.6t-12.6 5.3h-107.1q-7.3 0-12.6-5.3t-5.3-12.6v-107.1q0-7.3 5.3-12.6t12.6-5.3h107.1q7.3 0 12.6 5.3t5.3 12.6z m857.1 428.5v107.2q0 7.2-5.3 12.5t-12.6 5.3h-750q-7.2 0-12.5-5.3t-5.3-12.5v-107.2q0-7.2 5.3-12.5t12.5-5.3h750q7.3 0 12.6 5.3t5.3 12.5z m-857.1-642.8v107.1q0 7.3-5.3 12.6t-12.6 5.3h-107.1q-7.3 0-12.6-5.3t-5.3-12.6v-107.1q0-7.3 5.3-12.6t12.6-5.3h107.1q7.3 0 12.6 5.3t5.3 12.6z m857.1 428.6v107.1q0 7.3-5.3 12.6t-12.6 5.3h-750q-7.2 0-12.5-5.3t-5.3-12.6v-107.1q0-7.3 5.3-12.6t12.5-5.3h750q7.3 0 12.6 5.3t5.3 12.6z m0-214.3v107.1q0 7.3-5.3 12.6t-12.6 5.3h-750q-7.2 0-12.5-5.3t-5.3-12.6v-107.1q0-7.3 5.3-12.6t12.5-5.3h750q7.3 0 12.6 5.3t5.3 12.6z m0-214.3v107.1q0 7.3-5.3 12.6t-12.6 5.3h-750q-7.2 0-12.5-5.3t-5.3-12.6v-107.1q0-7.3 5.3-12.6t12.5-5.3h750q7.3 0 12.6 5.3t5.3 12.6z" /></svg>