<svg width="928.6" height="1000" xmlns="http://www.w3.org/2000/svg"><path d="m664.1 324.2l163.5-163.5-59.7-59.7-163.5 163.5z m249.4-163.5q0 15.1-10 25.1l-717.7 717.7q-10 10-25.1 10t-25.1-10l-110.5-110.5q-10-10.1-10-25.1t10-25.2l717.6-717.6q10.1-10 25.2-10t25.1 10l110.5 110.5q10 10 10 25.1z m-753.9-106l54.7 16.7-54.7 16.8-16.7 54.7-16.8-54.7-54.7-16.8 54.7-16.7 16.8-54.7z m195.3 90.4l109.4 33.5-109.4 33.5-33.5 109.3-33.5-109.3-109.3-33.5 109.3-33.5 33.5-109.4z m519 266.7l54.7 16.8-54.7 16.7-16.8 54.7-16.7-54.7-54.7-16.7 54.7-16.8 16.7-54.7z m-357.2-357.1l54.7 16.7-54.7 16.8-16.7 54.7-16.7-54.7-54.7-16.8 54.7-16.7 16.7-54.7z" /></svg>