<svg width="857.1" height="1000" xmlns="http://www.w3.org/2000/svg"><path d="m857.1 464.3v71.4q0 112.2-54.9 202t-152.9 140.4-220.7 50.5-220.7-50.5-152.9-140.4-55-202v-71.4q0-14.5 10.6-25.1t25.1-10.6h214.3q14.5 0 25.1 10.6t10.6 25.1v71.4q0 29 13.1 50.2t29.9 31.8 39.6 16.8 35.7 7.2 24.6 1.2 24.5-1.2 35.7-7.2 39.7-16.8 29.8-31.8 13.1-50.2v-71.4q0-14.5 10.6-25.1t25.1-10.6h214.3q14.5 0 25.1 10.6t10.6 25.1z m-571.4-357.2v214.3q0 14.5-10.6 25.1t-25.1 10.6h-214.3q-14.5 0-25.1-10.6t-10.6-25.1v-214.3q0-14.5 10.6-25.1t25.1-10.6h214.3q14.5 0 25.1 10.6t10.6 25.1z m571.4 0v214.3q0 14.5-10.6 25.1t-25.1 10.6h-214.3q-14.5 0-25.1-10.6t-10.6-25.1v-214.3q0-14.5 10.6-25.1t25.1-10.6h214.3q14.5 0 25.1 10.6t10.6 25.1z" /></svg>