<svg width="1000.0" height="1000" xmlns="http://www.w3.org/2000/svg"><path d="m357.1 603.8v39.1q0 23.4-21.7 32.9-7.3 2.8-14 2.8-15 0-25.1-10.6l-285.7-285.7q-10.6-10.6-10.6-25.2t10.6-25.1l285.7-285.7q16.2-17.3 39.1-7.8 21.7 9.5 21.7 32.9v38.5l-221.5 222.1q-10.6 10.6-10.6 25.1t10.6 25.2z m642.9 21.2q0 32.4-9.5 74.5t-21.5 77-26.8 69.8-22.6 50.5l-11.1 22.3q-4.5 9.5-15.6 9.5-3.4 0-5.1-0.6-13.9-4.5-12.8-19 24-223.2-59.2-315.2-35.7-39.7-95.1-61.7t-149.3-29.3v140.1q0 23.4-21.7 32.9-7.3 2.8-14 2.8-15.1 0-25.1-10.6l-285.7-285.7q-10.6-10.6-10.6-25.2t10.6-25.1l285.7-285.7q16.2-17.3 39.1-7.8 21.7 9.5 21.7 32.9v146.2q229.4 15.7 334.3 123.4 94.3 96.5 94.3 284z" /></svg>