<svg width="1000.0" height="1000" xmlns="http://www.w3.org/2000/svg"><path d="m1000 357.1q0 14.6-10.6 25.2l-285.7 285.7q-10.6 10.6-25.1 10.6t-25.1-10.6-10.6-25.1v-142.9h-125q-54.7 0-98 3.3t-85.9 12-74.2 23.8-58.9 38.7-44.6 56.4-27.1 77.3-9.8 101q0 30.7 2.8 68.6 0 3.4 1.4 13.2t1.4 14.7q0 8.4-4.7 14t-13.2 5.6q-8.9 0-15.6-9.5-3.9-5-7.2-12.3t-7.6-16.7-5.8-13.4q-70.9-159.1-70.9-251.7 0-111 29.6-185.8 90.4-224.9 488.3-224.9h125v-142.9q0-14.5 10.6-25.1t25.1-10.6 25.1 10.6l285.7 285.7q10.6 10.6 10.6 25.1z" /></svg>