<svg width="857.1" height="1000" xmlns="http://www.w3.org/2000/svg"><path d="m731.6 469.9v63.6q0 13.4-7.5 21.2t-21 7.8h-112.7q-13.4 0-21.2-7.8t-7.8-21.2v-63.6q0-13.4 7.8-21.2t21.2-7.9h112.7q13.4 0 21 7.9t7.5 21.2z m-273.5 128.3v-139.5q0-29.6-18.1-47.7t-47.7-18.1h-74.2q-38 0-53.6 29-15.6-29-53.6-29h-72.5q-29.6 0-47.7 18.1t-18.2 47.7v139.5q0 12.3 11.8 12.3h30.7q12.2 0 12.2-12.3v-128.3q0-13.4 7.6-21.2t21.5-7.9h52.4q13.4 0 21.2 7.9t7.8 21.2v128.3q0 12.3 11.7 12.3h30.2q12.3 0 12.3-12.3v-128.3q0-13.4 7.8-21.2t21.2-7.9h54.1q13.4 0 20.9 7.9t7.6 21.2v128.3q0 12.3 12.2 12.3h30.7q11.7 0 11.7-12.3z m328.7-53.6v-85.9q0-29.6-18.4-47.7t-48-18.1h-147.3q-29.6 0-48 18.1t-18.4 47.7v228.8q0 11.7 12.3 11.7h30.7q11.7 0 11.7-11.7v-100.4q17.3 23.4 52.4 23.4h106.6q29.6 0 48-18.1t18.4-47.8z m70.3-343.7v598.2q0 53.6-37.9 91.5t-91.5 38h-598.2q-53.6 0-91.6-38t-37.9-91.5v-598.2q0-53.6 37.9-91.5t91.6-38h598.2q53.6 0 91.5 38t37.9 91.5z" /></svg>