<svg width="1000.0" height="1000" xmlns="http://www.w3.org/2000/svg"><path d="m714.3 625v-107.1q0-7.9-5-12.9t-12.9-5h-125v-125q0-7.8-5-12.8t-12.8-5.1h-107.2q-7.8 0-12.8 5.1t-5 12.8v125h-125q-7.8 0-12.9 5t-5 12.9v107.1q0 7.8 5 12.8t12.9 5.1h125v125q0 7.8 5 12.8t12.8 5h107.2q7.8 0 12.8-5t5-12.8v-125h125q7.8 0 12.9-5.1t5-12.8z m-357.2-410.7h285.8v-71.4h-285.8v71.4z m-214.2 0v714.3h-17.9q-51.3 0-88.2-36.9t-36.8-88.1v-464.3q0-51.4 36.8-88.2t88.2-36.8h17.9z m660.7 0v714.3h-607.2v-714.3h89.3v-89.3q0-22.3 15.6-37.9t38-15.7h321.4q22.3 0 38 15.7t15.6 37.9v89.3h89.3z m196.4 125v464.3q0 51.3-36.8 88.1t-88.2 36.9h-17.9v-714.3h17.9q51.3 0 88.2 36.8t36.8 88.2z" /></svg>