<svg width="857.1" height="1000" xmlns="http://www.w3.org/2000/svg"><path d="m642.9 607.1q0 14.6-10.6 25.2t-25.2 10.6h-357.1q-14.5 0-25.1-10.6t-10.6-25.2 10.6-25.1 25.1-10.6h357.1q14.6 0 25.2 10.6t10.6 25.1z m-285.8-250q0 29.6-20.9 50.5t-50.5 21-50.5-21-20.9-50.5 20.9-50.5 50.5-20.9 50.5 20.9 20.9 50.5z m285.8 0q0 29.6-21 50.5t-50.5 21-50.5-21-20.9-50.5 20.9-50.5 50.5-20.9 50.5 20.9 21 50.5z m142.8 142.9q0-72.5-28.4-138.7t-76.2-113.8-113.9-76.2-138.6-28.4-138.7 28.4-113.8 76.2-76.2 113.8-28.5 138.7 28.5 138.7 76.2 113.8 113.8 76.2 138.7 28.4 138.6-28.4 113.9-76.2 76.2-113.8 28.4-138.7z m71.4 0q0 116.6-57.4 215.1t-156 156-215.1 57.5-215.2-57.5-155.9-156-57.5-215.1 57.5-215.1 155.9-156 215.2-57.5 215.1 57.5 156 156 57.4 215.1z" /></svg>