<svg width="785.7" height="1000" xmlns="http://www.w3.org/2000/svg"><path d="m151.2 527.3l-56.3 56.4q-23.5-57.5-23.5-119.4v-71.4q0-14.6 10.6-25.2t25.1-10.6 25.2 10.6 10.6 25.2v71.4q0 29.6 8.3 63z m621.7-335.9l-201.5 201.5v71.4q0 73.6-52.4 126.1t-126.1 52.5q-30.7 0-60.9-10.6l-53.5 53.5q54.1 28.5 114.4 28.5 103.2 0 176.6-73.4t73.4-176.6v-71.4q0-14.6 10.6-25.2t25.1-10.6 25.1 10.6 10.6 25.2v71.4q0 123.3-82.3 214.6t-203.4 104.6v73.6h142.8q14.5 0 25.1 10.6t10.6 25.2-10.6 25.1-25.1 10.6h-357.1q-14.5 0-25.1-10.6t-10.6-25.1 10.6-25.2 25.1-10.6h142.8v-73.6q-69.7-7.3-131.1-45.2l-141.7 141.7q-5.6 5.6-12.9 5.6t-12.8-5.6l-45.8-45.7q-5.5-5.6-5.5-12.9t5.5-12.8l688.7-688.6q5.5-5.6 12.8-5.6t12.8 5.6l45.8 45.7q5.6 5.6 5.6 12.9t-5.6 12.8z m-212.1-73.7l-346.5 346.6v-285.7q0-73.7 52.4-126.1t126.2-52.5q56.9 0 102.9 32.9t65 84.8z" /></svg>