<svg width="642.9" height="1000" xmlns="http://www.w3.org/2000/svg"><path d="m642.9 392.9v71.4q0 123.3-82.4 214.6t-203.4 104.6v73.6h142.9q14.5 0 25.1 10.6t10.6 25.2-10.6 25.1-25.1 10.6h-357.1q-14.6 0-25.2-10.6t-10.6-25.1 10.6-25.2 25.2-10.6h142.8v-73.6q-121.1-13.4-203.4-104.6t-82.3-214.6v-71.4q0-14.6 10.6-25.2t25.1-10.6 25.1 10.6 10.6 25.2v71.4q0 103.2 73.4 176.6t176.6 73.4 176.6-73.4 73.4-176.6v-71.4q0-14.6 10.6-25.2t25.1-10.6 25.2 10.6 10.6 25.2z m-142.9-214.3v285.7q0 73.6-52.5 126.1t-126.1 52.5-126.1-52.5-52.4-126.1v-285.7q0-73.7 52.4-126.1t126.1-52.5 126.1 52.5 52.5 126.1z" /></svg>