<svg width="785.7" height="1000" xmlns="http://www.w3.org/2000/svg"><path d="m642.9 446.4v35.7q0 7.9-5.1 12.9t-12.8 5h-464.3q-7.8 0-12.8-5t-5-12.9v-35.7q0-7.8 5-12.8t12.8-5h464.3q7.8 0 12.8 5t5.1 12.8z m71.4 250v-464.3q0-36.8-26.2-63t-63.1-26.2h-464.3q-36.8 0-63 26.2t-26.3 63v464.3q0 36.9 26.3 63.1t63 26.2h464.3q36.8 0 63.1-26.2t26.2-63.1z m71.4-464.3v464.3q0 66.4-47.1 113.6t-113.6 47.1h-464.3q-66.4 0-113.5-47.1t-47.2-113.6v-464.3q0-66.4 47.2-113.5t113.5-47.2h464.3q66.4 0 113.6 47.2t47.1 113.5z" /></svg>