<svg width="428.6" height="1000" xmlns="http://www.w3.org/2000/svg"><path d="m258.9 785.7q0-18.4-13.1-31.5t-31.5-13.1-31.5 13.1-13.2 31.5 13.2 31.5 31.5 13.2 31.5-13.2 13.1-31.5z m116.1-89.3v-392.8q0-7.3-5.3-12.6t-12.6-5.3h-285.7q-7.2 0-12.5 5.3t-5.3 12.6v392.8q0 7.3 5.3 12.6t12.5 5.3h285.7q7.3 0 12.6-5.3t5.3-12.6z m-107.1-473.2q0-8.9-9-8.9h-89.3q-8.9 0-8.9 8.9t8.9 8.9h89.3q9 0 9-8.9z m160.7-8.9v571.4q0 29-21.2 50.2t-50.3 21.2h-285.7q-29 0-50.2-21.2t-21.2-50.2v-571.4q0-29 21.2-50.2t50.2-21.2h285.7q29.1 0 50.3 21.2t21.2 50.2z" /></svg>