<svg width="1071.4" height="1000" xmlns="http://www.w3.org/2000/svg"><path d="m428.6 642.9h214.3v-53.6h-71.5v-250h-63.6l-82.6 76.4 43 44.7q23.4-20.7 30.7-31.8h1.1v160.7h-71.4v53.6z m285.7-142.9q0 39.1-11.7 79.2t-33.2 74.8-56.7 56.4-77 21.7-77-21.7-56.6-56.4-33.2-74.8-11.8-79.2 11.8-79.2 33.2-74.8 56.6-56.4 77-21.7 77 21.7 56.7 56.4 33.2 74.8 11.7 79.2z m285.7 142.9v-285.8q-59.2 0-101-41.8t-41.9-101h-642.8q0 59.1-41.9 101t-101 41.8v285.8q59.2 0 101 41.8t41.9 101h642.8q0-59.1 41.9-101t101-41.8z m71.4-464.3v642.8q0 14.5-10.6 25.1t-25.1 10.6h-1000q-14.5 0-25.1-10.6t-10.6-25.1v-642.8q0-14.5 10.6-25.1t25.1-10.6h1000q14.5 0 25.1 10.6t10.6 25.1z" /></svg>