<svg width="857.1" height="1000" xmlns="http://www.w3.org/2000/svg"><path d="m704.2 727.1q-30.1 5-61.3 5-101.6 0-188.1-50.2t-136.7-136.7-50.2-188.1q0-107.1 58-199.2-112.2 33.5-183.3 127.8t-71.2 214.3q0 72.5 28.5 138.7t76.2 113.8 113.8 76.2 138.7 28.4q80.3 0 152.6-34.3t123-95.7z m113.3-47.4q-52.4 113.3-158.2 181.1t-230.7 67.8q-87.1 0-166.3-34.1t-136.7-91.5-91.6-136.7-34-166.3q0-85.4 32.1-163.2t87-134.8 131.5-91.8 161.8-38.2q24.5-1.1 34 21.7 10.1 22.9-8.3 40.2-48 43.6-73.4 101.3t-25.4 121.9q0 82.6 40.7 152.4t110.5 110.5 152.4 40.7q65.8 0 127.2-28.4 22.9-10.1 40.2 7.2 7.8 7.8 9.7 19t-2.5 21.2z" /></svg>