<svg width="1285.7" height="1000" xmlns="http://www.w3.org/2000/svg"><path d="m990 466.5l10 176.4q2.2 38.5-45.8 71.4t-131.1 52.2-180.2 19.2-180.3-19.2-131.1-52.2-45.8-71.4l10.1-176.4 320.3 101q12.2 3.9 26.8 3.9t26.7-3.9z m295.7-180.8q0 12.8-12.3 17.3l-625 196.4q-2.2 0.6-5.5 0.6t-5.6-0.6l-363.9-114.9q-24 19-39.6 62.2t-19 99.6q35.2 20.1 35.2 60.8 0 38.5-32.4 59.8l32.4 241.6q1.1 7.8-4.5 13.9-5 6.2-13.4 6.2h-107.1q-8.4 0-13.4-6.2-5.6-6.1-4.5-13.9l32.4-241.6q-32.4-21.3-32.4-59.8 0-40.7 36.3-61.9 6.2-115.5 54.7-184.2l-185.8-58q-12.3-4.5-12.3-17.3t12.3-17.3l625-196.4q2.2-0.6 5.6-0.6t5.5 0.6l625 196.4q12.3 4.5 12.3 17.3z" /></svg>