<svg width="1142.9" height="1000" xmlns="http://www.w3.org/2000/svg"><path d="m571.4 285.7h-214.3v214.3h214.3v-214.3z m71.5 357.2v71.4h-357.2v-71.4h357.2z m0-428.6v357.1h-357.2v-357.1h357.2z m357.1 428.6v71.4h-285.7v-71.4h285.7z m0-142.9v71.4h-285.7v-71.4h285.7z m0-142.9v71.5h-285.7v-71.5h285.7z m0-142.8v71.4h-285.7v-71.4h285.7z m-857.1 535.7v-535.7h-71.5v535.7q0 14.5 10.6 25.1t25.1 10.6 25.2-10.6 10.6-25.1z m928.5 0v-607.1h-857.1v607.1q0 18.4-6.2 35.7h827.6q14.5 0 25.1-10.6t10.6-25.1z m71.5-678.6v678.6q0 44.6-31.3 75.9t-75.9 31.2h-928.6q-44.6 0-75.8-31.2t-31.3-75.9v-607.1h142.9v-71.5h1000z" /></svg>