<svg width="1000.0" height="1000" xmlns="http://www.w3.org/2000/svg"><path d="m901.2 0q39.1 0 68.4 25.9t29.3 65.1q0 35.1-25.1 84.2-185.3 351-259.5 419.7-54.1 50.7-121.7 50.7-70.3 0-120.8-51.6t-50.5-122.5q0-71.4 51.4-118.3l356-323.1q32.9-30.1 72.5-30.1z m-507.2 577q21.7 42.4 59.4 72.6t84 42.4l0.5 39.6q2.3 118.8-72.2 193.6t-194.5 74.8q-68.6 0-121.6-25.9t-85.1-71.2-48.3-102.1-16.2-122.8q3.9 2.8 22.9 16.8t34.6 24.8 32.9 20.4 25.7 9.4q22.9 0 30.7-20.6 13.9-36.8 32.1-62.8t38.7-42.4 49.1-26.5 57.5-14.2 69.8-5.9z" /></svg>