<svg width="1000.0" height="1000" xmlns="http://www.w3.org/2000/svg"><path d="m428.6 928.6h500v-357.2h-232.2q-22.3 0-37.9-15.6t-15.6-37.9v-232.2h-214.3v642.9z m142.8-803.6v-35.7q0-7.3-5.3-12.6t-12.5-5.3h-392.9q-7.2 0-12.5 5.3t-5.3 12.6v35.7q0 7.3 5.3 12.6t12.5 5.3h392.9q7.2 0 12.5-5.3t5.3-12.6z m142.9 375h166.8l-166.8-166.9v166.9z m285.7 71.4v375q0 22.4-15.6 38t-38 15.6h-535.7q-22.3 0-37.9-15.6t-15.7-38v-89.3h-303.5q-22.4 0-38-15.6t-15.6-37.9v-750q0-22.4 15.6-38t38-15.6h607.1q22.3 0 38 15.6t15.6 38v183q11.7 7.3 20.1 15.6l227.7 227.7q15.6 15.6 26.7 42.4t11.2 49.1z" /></svg>