<svg width="1000.0" height="1000" xmlns="http://www.w3.org/2000/svg"><path d="m620.5 248.9q0-88.7-132.2-88.7h-39.1q-17.8 0-33.2 12t-19.2 29.3l-35.2 154q-1.1 2.8-1.1 8.9 0 13.4 9.5 22t22.9 8.7h29.5q38.5 0 71.7-7.3t62.8-22.8 46.6-45.5 17-70.6z m337.1 84.8q0 147.9-122.8 238.8-122.2 89.9-341.5 89.9h-34q-17.9 0-33 12t-18.9 29.3l-40.8 176.3q-4.4 20.1-22.6 34.3t-38.8 14.3h-118.8q-17.3 0-29.6-11.2t-12.3-28.4q0-5.6 7.3-36.3h84.2q19 0 35.8-13.1t21.2-31.6l40.7-176.3q4.5-18.4 20.9-31.8t35.5-13.4h34q217.6 0 338.7-89.3t121.1-234.9q0-72-28.4-115.5 102.1 51.3 102.1 186.9z m-102.1-103.2q0 147.3-123.4 238.8-121.6 89.9-341.5 89.9h-33.5q-17.8 0-33.2 12.2t-19.2 29.6l-40.7 175.8q-4.5 20.1-22.4 34.3t-38.5 14.2h-119.4q-17.3 0-29.3-10.8t-12-28.8q0-4.4 1.1-11.1l167.4-726.1q4.5-20 22.6-34.3t38.8-14.2h247.8q37.9 0 69.7 2.2t67.3 8.4 63.3 16.7 53.9 28.2 43.2 41.3 27.6 57.8 10.4 75.9z" /></svg>