<svg width="857.1" height="1000" xmlns="http://www.w3.org/2000/svg"><path d="m225.4 618.3l84.9 84.8-29 29h-31.3v-53.5h-53.6v-31.3z m231.1-217.6q7.8 7.2-1.7 16.7l-162.4 162.4q-9.5 9.5-16.7 1.7-7.8-7.3 1.6-16.8l162.4-162.4q9.5-9.4 16.8-1.6z m-152.9 385l303.5-303.6-160.7-160.7-303.5 303.6v160.7h160.7z m339.3-339.3l51.3-51.3q15.6-15.6 15.6-38t-15.6-37.9l-84.8-84.8q-15.6-15.6-38-15.6t-37.9 15.6l-51.4 51.3z m214.2-214.3v535.8q0 66.4-47.1 113.5t-113.6 47.2h-535.7q-66.4 0-113.5-47.2t-47.2-113.5v-535.8q0-66.4 47.2-113.5t113.5-47.2h535.7q66.4 0 113.6 47.2t47.1 113.5z" /></svg>