<svg width="1071.4" height="1000" xmlns="http://www.w3.org/2000/svg"><path d="m357.1 321.4q0 44.7-31.2 75.9t-75.9 31.3-75.9-31.3-31.2-75.9 31.2-75.9 75.9-31.2 75.9 31.2 31.2 75.9z m571.5 214.3v250h-785.7v-107.1l178.5-178.6 89.3 89.3 285.7-285.7z m53.5-392.8h-892.8q-7.3 0-12.6 5.3t-5.3 12.5v678.6q0 7.2 5.3 12.5t12.6 5.3h892.8q7.3 0 12.6-5.3t5.3-12.5v-678.6q0-7.2-5.3-12.5t-12.6-5.3z m89.3 17.8v678.6q0 36.8-26.2 63t-63.1 26.3h-892.8q-36.8 0-63.1-26.3t-26.2-63v-678.6q0-36.8 26.2-63t63.1-26.3h892.8q36.9 0 63.1 26.3t26.2 63z" /></svg>