<svg width="857.1" height="1000" xmlns="http://www.w3.org/2000/svg"><path d="m583.7 569.2q0 35.7-21.2 60.8t-50.8 25.1q-24 0-39-8.3v-154.6q15.6-9.5 39-9.5 29.6 0 50.8 25.4t21.2 61.1z m-191.4-238.8q0 35.7-21.2 61.1t-50.8 25.4q-24 0-39-8.4v-154.6q15.6-9.5 39-9.5 29.6 0 50.8 25.1t21.2 60.9z m313.6 240.5q0-74.8-49.1-127.8t-118.9-53q-11.1 0-21.7 1.6-12.9 43.6-43.5 75.9-48.6 53-117.8 56.4v354.9l117.8-22.9v-114.9q28.4 10.6 65.2 10.6 69.8 0 118.9-53t49.1-127.8z m-191.4-238.3q0-74.8-49.4-127.8t-119.1-53q-41.3 0-78.7 20.1h-103.8v468.7l117.8-22.9v-114.9q30.6 10.6 64.7 10.6 69.7 0 119.1-53t49.4-127.8z m342.6-100.5v535.8q0 66.4-47.1 113.5t-113.6 47.2h-535.7q-66.4 0-113.5-47.2t-47.2-113.5v-535.8q0-66.4 47.2-113.5t113.5-47.2h535.7q66.4 0 113.6 47.2t47.1 113.5z" /></svg>