<svg width="857.1" height="1000" xmlns="http://www.w3.org/2000/svg"><path d="m857.1 500q0 116.6-57.4 215.1t-156 156-215.1 57.5q-62 0-121.7-17.9 32.9-51.9 43.5-91.5 5.1-19 30.2-117.7 11.1 21.7 40.7 37.6t63.6 15.9q67.6 0 120.6-38.2t82-105.2 29-150.7q0-63.6-33.2-119.4t-96.2-90.9-142.3-35.2q-58.6 0-109.4 16.2t-86.2 43-60.9 61.6-37.4 72.3-11.9 74.8q0 58 22.3 102.1t65.3 61.9q16.7 6.7 21.2-11.1 1.1-3.9 4.4-17.3t4.5-16.8q3.3-12.8-6.1-24-28.5-34-28.5-84.2 0-84.3 58.3-144.8t152.6-60.6q84.3 0 131.5 45.8t47.1 118.8q0 94.9-38.2 161.3t-98 66.4q-34 0-54.6-24.3t-12.9-58.3q4.5-19.5 14.8-52.2t16.8-57.4 6.4-42.2q0-27.9-15.1-46.3t-43-18.4q-34.6 0-58.6 31.8t-24 79.2q0 40.8 14 68.1l-55.2 233.3q-9.5 39-7.3 98.8-115-50.8-185.8-156.9t-70.9-236q0-116.6 57.5-215.1t155.9-156 215.2-57.5 215.1 57.5 156 156 57.4 215.1z" /></svg>