<svg width="857.1" height="1000" xmlns="http://www.w3.org/2000/svg"><path d="m660.7 500q0 20.6-17.8 30.7l-303.6 178.6q-8.4 5-17.9 5-8.9 0-17.8-4.5-17.9-10.6-17.9-31.2v-357.2q0-20.6 17.9-31.2 18.4-10.1 35.7 0.5l303.6 178.6q17.8 10.1 17.8 30.7z m71.4 0q0-82.6-40.7-152.3t-110.5-110.5-152.3-40.8-152.4 40.8-110.5 110.5-40.7 152.3 40.7 152.3 110.5 110.5 152.4 40.8 152.3-40.8 110.5-110.5 40.7-152.3z m125 0q0 116.6-57.4 215.1t-156 156-215.1 57.5-215.2-57.5-155.9-156-57.5-215.1 57.5-215.1 155.9-156 215.2-57.5 215.1 57.5 156 156 57.4 215.1z" /></svg>