<svg width="857.1" height="1000" xmlns="http://www.w3.org/2000/svg"><path d="m678.6 535.7v-71.4q0-14.5-10.6-25.1t-25.1-10.6h-142.9v-142.9q0-14.5-10.6-25.1t-25.1-10.6h-71.4q-14.6 0-25.2 10.6t-10.6 25.1v142.9h-142.8q-14.5 0-25.1 10.6t-10.6 25.1v71.4q0 14.5 10.6 25.1t25.1 10.6h142.8v142.9q0 14.5 10.6 25.1t25.2 10.6h71.4q14.5 0 25.1-10.6t10.6-25.1v-142.9h142.9q14.5 0 25.1-10.6t10.6-25.1z m178.5-35.7q0 116.6-57.4 215.1t-156 156-215.1 57.5-215.2-57.5-155.9-156-57.5-215.1 57.5-215.1 155.9-156 215.2-57.5 215.1 57.5 156 156 57.4 215.1z" /></svg>