<svg width="857.1" height="1000" xmlns="http://www.w3.org/2000/svg"><path d="m714.3 535.7v-71.4q0-14.5-10.6-25.1t-25.1-10.6h-178.6v-178.6q0-14.5-10.6-25.1t-25.1-10.6h-71.4q-14.6 0-25.2 10.6t-10.6 25.1v178.6h-178.5q-14.5 0-25.1 10.6t-10.6 25.1v71.4q0 14.5 10.6 25.1t25.1 10.6h178.5v178.6q0 14.5 10.6 25.1t25.2 10.6h71.4q14.5 0 25.1-10.6t10.6-25.1v-178.6h178.6q14.5 0 25.1-10.6t10.6-25.1z m142.8-303.6v535.8q0 66.4-47.1 113.5t-113.6 47.2h-535.7q-66.4 0-113.5-47.2t-47.2-113.5v-535.8q0-66.4 47.2-113.5t113.5-47.2h535.7q66.4 0 113.6 47.2t47.1 113.5z" /></svg>