<svg width="857.1" height="1000" xmlns="http://www.w3.org/2000/svg"><path d="m857.1 500q0 87.1-34 166.3t-91.5 136.7-136.7 91.5-166.3 34.1-166.3-34.1-136.7-91.5-91.6-136.7-34-166.3q0-101.6 44.9-191.4t126.4-150.7q24-17.8 53.3-13.9t46.6 27.9q17.9 23.4 13.7 52.7t-27.6 47.2q-54.7 41.3-84.6 101t-29.8 127.2q0 58 22.6 110.8t61.1 91.2 91.2 61.1 110.8 22.6 110.7-22.6 91.3-61.1 61.1-91.2 22.6-110.8q0-67.5-29.9-127.2t-84.5-101q-23.4-17.9-27.6-47.2t13.6-52.7q17.3-24 46.9-27.9t53 13.9q81.5 60.9 126.4 150.7t44.9 191.4z m-357.1-428.6v357.2q0 29-21.2 50.2t-50.2 21.2-50.3-21.2-21.2-50.2v-357.2q0-29 21.2-50.2t50.3-21.2 50.2 21.2 21.2 50.2z" /></svg>