<svg width="928.6" height="1000" xmlns="http://www.w3.org/2000/svg"><path d="m214.3 857.1h500v-142.8h-500v142.8z m0-357.1h500v-214.3h-89.3q-22.3 0-37.9-15.6t-15.7-38v-89.2h-357.1v357.1z m642.8 35.7q0-14.5-10.6-25.1t-25.1-10.6-25.1 10.6-10.6 25.1 10.6 25.1 25.1 10.6 25.1-10.6 10.6-25.1z m71.5 0v232.2q0 7.2-5.3 12.5t-12.6 5.3h-125v89.3q0 22.3-15.6 37.9t-38 15.7h-535.7q-22.3 0-37.9-15.7t-15.6-37.9v-89.3h-125q-7.3 0-12.6-5.3t-5.3-12.5v-232.2q0-44.1 31.5-75.6t75.6-31.5h35.8v-303.6q0-22.3 15.6-37.9t37.9-15.7h375q22.3 0 49.1 11.2t42.4 26.8l84.9 84.8q15.6 15.6 26.8 42.4t11.1 49.1v142.9h35.7q44.1 0 75.6 31.5t31.6 75.6z" /></svg>