<svg width="785.7" height="1000" xmlns="http://www.w3.org/2000/svg"><path d="m214.3 642.9v71.4h-71.4v-71.4h71.4z m0-428.6v71.4h-71.4v-71.4h71.4z m428.6 0v71.4h-71.5v-71.4h71.5z m-571.5 570.9h214.3v-213.8h-214.3v213.8z m0-428.1h214.3v-214.2h-214.3v214.2z m428.6 0h214.3v-214.2h-214.3v214.2z m-142.9 142.9v357.1h-357.1v-357.1h357.1z m285.8 285.7v71.4h-71.5v-71.4h71.5z m142.8 0v71.4h-71.4v-71.4h71.4z m0-285.7v214.3h-214.3v-71.4h-71.4v214.2h-71.4v-357.1h214.3v71.4h71.4v-71.4h71.4z m-428.6-428.6v357.2h-357.1v-357.2h357.1z m428.6 0v357.2h-357.1v-357.2h357.1z" /></svg>