<svg width="857.1" height="1000" xmlns="http://www.w3.org/2000/svg"><path d="m500 767.9v-107.2q0-7.8-5-12.8t-12.9-5h-107.1q-7.8 0-12.8 5t-5.1 12.8v107.2q0 7.8 5.1 12.8t12.8 5h107.1q7.9 0 12.9-5t5-12.8z m142.9-375q0-49.1-31-91t-77.3-64.7-94.9-22.9q-135.6 0-207 118.8-8.4 13.4 4.5 23.5l73.6 55.8q3.9 3.3 10.6 3.3 9 0 14-6.7 29.6-37.9 48-51.3 18.9-13.4 48-13.4 26.7 0 47.7 14.5t20.9 32.9q0 21.2-11.2 34.1t-37.9 25.1q-35.2 15.6-64.5 48.3t-29.3 70v20.1q0 7.8 5.1 12.8t12.8 5h107.1q7.9 0 12.9-5t5-12.8q0-10.6 12-27.6t30.4-27.7q17.9-10 27.4-15.9t25.6-19.5 24.9-26.8 15.6-33.7 7-45.2z m214.2 107.1q0 116.6-57.4 215.1t-156 156-215.1 57.5-215.2-57.5-155.9-156-57.5-215.1 57.5-215.1 155.9-156 215.2-57.5 215.1 57.5 156 156 57.4 215.1z" /></svg>