<svg width="571.4" height="1000" xmlns="http://www.w3.org/2000/svg"><path d="m392.9 700.9v133.9q0 9-6.7 15.6t-15.7 6.7h-133.9q-8.9 0-15.6-6.7t-6.7-15.6v-133.9q0-8.9 6.7-15.6t15.6-6.7h133.9q9 0 15.7 6.7t6.7 15.6z m176.3-334.8q0 30.1-8.7 56.3t-19.5 42.7-30.7 33.2-32.1 24.3-34 19.8q-22.9 12.8-38.2 36.3t-15.4 37.4q0 9.5-6.7 18.1t-15.6 8.7h-133.9q-8.4 0-14.3-10.4t-5.8-20.9v-25.1q0-46.3 36.3-87.3t79.8-60.6q32.9-15.1 46.8-31.2t14-42.4q0-23.5-26-41.3t-60-17.9q-36.2 0-60.2 16.2-19.6 13.9-59.7 64.2-7.3 8.9-17.3 8.9-6.7 0-14-4.5l-91.5-69.7q-7.3-5.6-8.6-14t3-15.6q89.3-148.4 258.9-148.4 44.7 0 89.9 17.3t81.5 46.3 59.1 71.1 22.9 88.5z" /></svg>