<svg width="928.6" height="1000" xmlns="http://www.w3.org/2000/svg"><path d="m428.6 535.7v214.3q0 44.6-31.3 75.9t-75.9 31.2h-214.3q-44.6 0-75.8-31.2t-31.3-75.9v-392.9q0-58 22.6-110.7t61.1-91.3 91.2-61.1 110.8-22.6h35.7q14.5 0 25.1 10.6t10.6 25.1v71.5q0 14.5-10.6 25.1t-25.1 10.6h-35.7q-59.1 0-101 41.8t-41.8 101v17.9q0 22.3 15.6 37.9t37.9 15.7h125q44.7 0 75.9 31.2t31.3 75.9z m500 0v214.3q0 44.6-31.3 75.9t-75.9 31.2h-214.3q-44.6 0-75.8-31.2t-31.3-75.9v-392.9q0-58 22.6-110.7t61.1-91.3 91.2-61.1 110.8-22.6h35.7q14.5 0 25.1 10.6t10.6 25.1v71.5q0 14.5-10.6 25.1t-25.1 10.6h-35.7q-59.1 0-101 41.8t-41.8 101v17.9q0 22.3 15.6 37.9t37.9 15.7h125q44.7 0 75.9 31.2t31.3 75.9z" /></svg>