<svg width="1000.0" height="1000" xmlns="http://www.w3.org/2000/svg"><path d="m371.7 268.4q-33.5 51.4-76.5 152.4-12.3-25.2-20.6-40.5t-22.6-35.4-28.5-31.6-35.2-19.5-45.4-8.1h-125q-7.9 0-12.9-5t-5-12.8v-107.2q0-7.8 5-12.8t12.9-5h125q139.5 0 228.8 125.5z m628.3 445.9q0 7.8-5 12.8l-178.6 178.6q-5 5-12.8 5-7.3 0-12.6-5.3t-5.3-12.5v-107.2q-17.8 0-47.4 0.3t-45.2 0.6-40.8-0.6-39.6-2.8-35.7-5.9-35.1-10.3-32.4-15.9-32.9-22.3-30.7-29.9-31.3-38.7q32.9-51.9 75.9-152.4 12.3 25.1 20.7 40.5t22.6 35.4 28.4 31.5 35.2 19.6 45.5 8.1h142.8v-107.2q0-7.8 5-12.8t12.9-5q6.7 0 13.4 5.5l178 178.1q5 5 5 12.8z m0-500q0 7.8-5 12.8l-178.6 178.6q-5 5-12.8 5-7.3 0-12.6-5.3t-5.3-12.5v-107.2h-142.8q-26.8 0-48.6 8.4t-38.5 25.1-28.5 34.3-25.1 43.3q-17.8 34.6-43.5 95.4-16.2 36.8-27.6 61.9t-30.2 58.6-35.7 55.8-41.3 46.3-50.2 38.3-59.4 23.4-71.4 9.2h-125q-7.9 0-12.9-5t-5-12.8v-107.2q0-7.8 5-12.8t12.9-5h125q26.7 0 48.5-8.4t38.5-25.1 28.5-34.3 25.1-43.3q17.8-34.6 43.5-95.4 16.2-36.8 27.6-62t30.2-58.6 35.7-55.8 41.3-46.3 50.2-38.2 59.4-23.4 71.5-9.2h142.8v-107.2q0-7.8 5-12.8t12.9-5q6.7 0 13.4 5.5l178 178.1q5 5 5 12.8z" /></svg>