<svg width="1000.0" height="1000" xmlns="http://www.w3.org/2000/svg"><path d="m466.5 652.3l-8.4 205.4-1.1 12.3-234.3-16.2q-20.1-1.7-37.4-17.6t-26.3-36.5q-6.1-15.1-8.1-30.7t2.3-36.3 6.7-30.7 12-35.7 10.6-29.6q43.5 6.7 284 15.6z m-215.9-327l100.4 211.5-82-51.3q-35.2 40.2-62.2 80.6t-40.5 69.8-22 52.7-10.4 35.2l-2.2 11.7-106-199.2q-9.5-14.5-10.1-31.3t3.4-26.2l4.4-10q19.6-35.2 63.7-105l-78.2-48z m686.9 288.5l-104.9 200.4q-6.7 16.2-20.4 25.9t-24.3 11.5l-10 2.2q-39.6 3.9-122.2 6.7l4.5 91.5-128.4-204.8 117.8-202 3.9 96.5q94.8 9 157.9 2.8t94.8-18.4z m-438.1-515.6q-26.2 35.2-147.8 242.8l-176.9-104.4-10.6-6.7 125.5-198.6q11.2-17.3 33.5-25.2t44.6-5.5q13.4 1.1 27.1 6.7t23.4 11.7 23.2 18.4 20.1 19.2 20.1 22.1 17.8 19.5z m365.6 171.3l118.3 202.6q10 20.6 6.9 42.4t-15.3 41.3q-7.3 11.2-18.4 20.7t-21.2 15.6-27.1 12.3-26.2 8.9-28.8 7.8-25.6 6.7q-19-40.2-147.9-243.3l174.7-108.8z m-79.8-126.1l79.2-46.3-122.8 208.1-233.8-11.1 84.3-48q-19-49.7-41.9-92.6t-42.1-69-36-44.6-26.2-25.9l-9.5-7.3 226 0.6q17.3-1.7 32.4 5.8t21.7 15.9l6.2 8.4q21.7 34 62.5 106z" /></svg>