<svg width="1107.1" height="1000" xmlns="http://www.w3.org/2000/svg"><path d="m463.7 537.9q0 31.3-22.6 53.6t-53.8 22.3q-31.8 0-54.7-22.3t-22.9-53.6q0-31.8 23.2-54.6t54.4-22.9 53.8 22.9 22.6 54.6z m257.3-77.5q31.2 0 53.8 22.9t22.6 54.6q0 31.3-22.6 53.6t-53.8 22.3q-31.8 0-54.7-22.3t-22.9-53.6q0-31.8 23.2-54.6t54.4-22.9z m386.1-6.2q0 34.6-17.3 63.7t-46.3 45.7q2.8 18.4 2.8 34.1 0 67.5-38.2 128.6t-110.2 108q-69.8 45.7-159.3 70t-187.3 24.3q-98.2 0-187.7-24.3t-158.8-70q-72-46.9-110.2-107.7t-38.2-128.9q0-16.2 2.8-36.9-26.8-17.3-43-45.5t-16.2-61.1q0-52.4 36.8-89.2t89.3-36.9q46.3 0 82.6 30.7 138.4-88.2 330.4-91.5l74.7-236q2.3-7.9 9.8-12t15.9-2.6l193.6 45.8q12.3-27.9 38.3-45.2t57.2-17.3q42.9 0 73.4 30.4t30.4 73.4-30.4 73.7-73.4 30.6q-42.4 0-72.9-30.1t-30.9-73.1l-175.8-41.3-64.7 204.3q182.4 7.8 312.5 92.6 35.7-32.4 84.2-32.4 52.5 0 89.3 36.9t36.8 89.2z m-178.5-411.2q-25.1 0-43 17.8t-17.9 43 17.9 43 43 17.8 42.9-17.8 17.9-43-17.9-43-42.9-17.8z m-885.6 411.2q0 37.4 28.4 62 27.4-73.1 100.5-131.2-20.1-13.9-45.8-13.9-34.6 0-58.9 24.3t-24.2 58.8z m831.4 344.3q62.5-40.7 95.7-92.6t33.2-108.2-33.2-108-95.7-92.4q-64.7-41.8-148.1-64.4t-175-22.6-174.9 22.6-148.2 64.4q-62.5 40.8-95.7 92.4t-33.2 108 33.2 108.2 95.7 92.6q64.8 41.9 148.2 64.5t174.9 22.6 175-22.6 148.1-64.5z m158-279q31.8-25.6 31.8-65.3 0-34.6-24.3-58.8t-58.9-24.3q-27.3 0-48 15.6 73.1 58.6 99.4 132.8z m-330.4 205.4q6.1-6.1 15.1-6.1t15 6.1 6.2 15.3-6.2 15.4q-55.2 55.2-178 55.2h-1.1q-122.8 0-178-55.2-6.1-6.2-6.1-15.4t6.1-15.3 15.1-6.1 15 6.1q43 43 147.9 43h1.1q104.9 0 147.9-43z" /></svg>