<svg width="857.1" height="1000" xmlns="http://www.w3.org/2000/svg"><path d="m530.1 637.8q3.9-3.9 9.8-3.9t9.8 3.9 3.9 10.1-3.9 10q-36.3 35.7-116.1 35.7h-0.6-0.5q-79.8 0-115.5-35.7-4.5-3.9-4.5-10t4.5-10.1q3.9-3.9 9.7-3.9t9.8 3.9q27.3 28.5 96 28.5h0.5 0.6q68.1 0 96.5-28.5z m-155.7-122.7q0 20.6-14.5 35.7t-35.1 15-35.2-15-14.5-35.7 14.5-35.2 35.2-14.5 35.1 14.5 14.5 35.2z m303.1-243.3q-16.2 0-27.9-11.8t-11.8-27.9q0-16.7 11.8-28.4t27.9-11.7q16.7 0 28.4 11.7t11.7 28.4q0 16.2-11.7 27.9t-28.4 11.8z m1.1-200.4q73.6 0 126.1 52.5t52.4 126.7v498.8q0 74.3-52.4 126.7t-126.1 52.5h-500q-73.7 0-126.1-52.5t-52.5-126.7v-498.8q0-74.3 52.5-126.7t126.1-52.5h500z m58.6 453.2q19.5-7.9 31.8-25.4t12.2-39.4q0-28.4-20-48.8t-48.6-20.4q-33.5 0-54.7 26.8-84.2-59.7-209.2-64.2l46.3-147.8 114.9 27.3q0.6 27.9 20.4 47.4t47.2 19.6q27.9 0 47.9-19.8t20.1-47.8-20.1-47.9-47.9-20.1q-20.1 0-36.9 11.4t-25.1 29.9l-126.7-30.2q-5-1.1-9.7 1.4t-6.4 8.1l-53.1 168.5q-125 2.3-212.6 63.1-20.1-24-51.9-24-28.4 0-48.5 20.4t-20.1 48.8q0 20.6 10.9 37.7t29.3 25.4q-3.9 13.9-3.9 30.1 0 54.7 41.3 101.3t112.4 73.6 155.4 27.1q83.7 0 154.9-27.1t112.4-73.6 41.3-101.3q0-15.1-3.3-30.1z m-195.3-59.2q20.6 0 35.1 14.5t14.5 35.2-14.5 35.7-35.1 15-35.2-15-14.5-35.7 14.5-35.2 35.2-14.5z" /></svg>