<svg width="1071.4" height="1000" xmlns="http://www.w3.org/2000/svg"><path d="m714.3 839.3q0 7.2-5.3 12.5t-12.6 5.3h-535.7q-4.5 0-7.5-1.1t-5-3.9-3.1-4.4-1.7-6.5-0.5-6.4v-7.2-6.2-89.3-232.1h-107.2q-14.5 0-25.1-10.6t-10.6-25.1q0-13.4 8.4-22.9l178.5-214.3q10.6-12.3 27.4-12.3t27.3 12.3l178.6 214.3q8.4 9.5 8.4 22.9 0 14.5-10.6 25.1t-25.1 10.6h-107.2v214.3h321.4q9 0 14 6.1l89.3 107.2q3.9 6.1 3.9 11.7z m357.1-232.2q0 13.4-8.3 22.9l-178.6 214.3q-11.2 12.8-27.4 12.8t-27.3-12.8l-178.6-214.3q-8.3-9.5-8.3-22.9 0-14.5 10.6-25.1t25.1-10.6h107.1v-214.3h-321.4q-8.9 0-14-6.7l-89.3-107.1q-3.9-5-3.9-11.2 0-7.2 5.3-12.5t12.6-5.3h535.7q4.5 0 7.5 1.1t5.1 3.9 3 4.5 1.7 6.4 0.6 6.4v7.3 6.1 89.3 232.1h107.1q14.5 0 25.1 10.6t10.6 25.1z" /></svg>