<svg width="928.6" height="1000" xmlns="http://www.w3.org/2000/svg"><path d="m803.6 250q0-22.3-15.7-37.9t-37.9-15.7-37.9 15.7-15.7 37.9 15.7 37.9 37.9 15.7 37.9-15.7 15.7-37.9z m125-160.7q0 138.9-42.2 240.2t-141.4 201.2q-45.2 44.6-108.8 98.2l-11.2 211.5q-1.1 8.9-8.9 14.5l-214.3 125q-3.9 2.2-8.9 2.2-6.7 0-12.9-5l-35.7-35.7q-7.2-7.8-4.5-17.9l47.5-154-156.8-156.8-154 47.5q-1.7 0.5-5.1 0.5-7.8 0-12.8-5l-35.7-35.7q-9.5-10.6-2.8-21.8l125-214.3q5.6-7.8 14.5-8.9l211.5-11.2q53.6-63.6 98.2-108.8 104.9-104.3 199.8-144t240.5-39.6q7.8 0 13.4 5.3t5.6 12.6z" /></svg>