<svg width="857.1" height="1000" xmlns="http://www.w3.org/2000/svg"><path d="m857.1 142.9v250q0 14.5-10.6 25.1t-25.1 10.6h-250q-23.4 0-32.9-22.3-9.5-21.8 7.8-38.6l77-77q-82.6-76.4-194.7-76.4-58.1 0-110.8 22.6t-91.2 61.1-61.1 91.2-22.6 110.8 22.6 110.8 61.1 91.2 91.2 61.1 110.8 22.6q66.4 0 125.5-29t99.9-82q3.9-5.6 12.9-6.7 7.8 0 13.9 5l76.5 77q5 4.5 5.3 11.4t-4.2 12.6q-60.9 73.7-147.4 114.1t-182.4 40.5q-87.1 0-166.3-34.1t-136.7-91.5-91.6-136.7-34-166.3 34-166.3 91.6-136.7 136.7-91.5 166.3-34.1q82 0 158.7 31t136.5 87.3l72.5-72q16.2-17.3 39.1-7.8 21.7 9.5 21.7 33z" /></svg>