<svg width="857.1" height="1000" xmlns="http://www.w3.org/2000/svg"><path d="m285.7 714.3q0-29.6-20.9-50.5t-50.5-20.9-50.5 20.9-20.9 50.5 20.9 50.5 50.5 20.9 50.5-20.9 20.9-50.5z m195.9 52.4q-7.3-129.4-98.8-220.9t-221-98.8q-7.8-0.6-13.4 5t-5.5 12.8v71.5q0 7.2 4.7 12.2t12 5.6q85.9 6.2 147.3 67.6t67.5 147.3q0.6 7.2 5.6 12t12.3 4.7h71.4q7.3 0 12.9-5.6t5-13.4z m214.3 0.6q-2.8-85.9-31.3-166t-77.8-145.1-114.4-114.4-145.1-77.8-166-31.3q-7.8-0.6-12.9 5-5.5 5.6-5.5 12.9v71.4q0 7.2 5 12.3t12.3 5.5q113.8 3.9 210.9 62.3t155.4 155.4 62.2 210.9q0.6 7.3 5.6 12.3t12.3 5h71.4q7.3 0 12.8-5.6 6.2-5 5.1-12.8z m161.2-535.2v535.8q0 66.4-47.1 113.5t-113.6 47.2h-535.7q-66.4 0-113.5-47.2t-47.2-113.5v-535.8q0-66.4 47.2-113.5t113.5-47.2h535.7q66.4 0 113.6 47.2t47.1 113.5z" /></svg>