<svg width="785.7" height="1000" xmlns="http://www.w3.org/2000/svg"><path d="m214.3 750q0 44.6-31.3 75.9t-75.9 31.2-75.8-31.2-31.3-75.9 31.3-75.9 75.8-31.2 75.9 31.2 31.3 75.9z m285.7 68.6q1.1 15.7-9.5 26.8-10 11.7-26.2 11.7h-75.3q-14 0-24-9.2t-11.2-23.1q-12.3-127.8-103-218.5t-218.4-103q-14-1.1-23.2-11.1t-9.2-24v-75.3q0-16.2 11.7-26.3 9.5-9.5 24-9.5h2.8q89.3 7.3 170.8 45t144.5 101.2q63.6 63.1 101.3 144.6t44.9 170.7z m285.7 1.2q1.1 15-10 26.2-10.1 11.1-25.7 11.1h-79.8q-14.5 0-24.8-9.7t-10.9-23.7q-6.7-120-56.4-228t-129.2-187.5-187.5-129.2-227.9-56.9q-14-0.6-23.7-10.9t-9.8-24.3v-79.8q0-15.6 11.2-25.6 10-10.1 24.5-10.1h1.7q146.2 7.3 279.8 67t237.5 164.1q104.3 103.8 164.1 237.4t66.9 279.9z" /></svg>