<svg width="714.3" height="1000" xmlns="http://www.w3.org/2000/svg"><path d="m582 315.3q0-55.8-36.2-90.4t-95.5-34.6h-178.5v250h178.5q59.2 0 95.5-34.6t36.2-90.4z m132.3 0q0 107.7-70.6 175.8t-182.2 68.1h-189.7v65.8h281.8q7.8 0 12.8 5t5 12.9v71.4q0 7.8-5 12.8t-12.8 5h-281.8v107.2q0 7.8-5.3 12.8t-12.6 5h-93.2q-7.8 0-12.8-5t-5-12.8v-107.2h-125q-7.9 0-12.9-5t-5-12.8v-71.4q0-7.9 5-12.9t12.9-5h125v-65.8h-125q-7.9 0-12.9-5.1t-5-12.8v-83.2q0-7.2 5-12.5t12.9-5.3h125v-351q0-7.8 5-12.8t12.8-5.1h300.8q111.6 0 182.2 68.1t70.6 175.8z" /></svg>