<svg width="501.1" height="1000" xmlns="http://www.w3.org/2000/svg"><path d="m501.1 262.3v56.9q0 7.8-5 12.8t-12.8 5.1h-93.8q-12.8 80.3-72 130.5t-154 61.4q93.2 99.3 256.1 299.1 7.9 9 2.3 19-4.5 10-16.2 10h-108.8q-9 0-14-6.7-170.7-204.8-277.9-318.6-5-5-5-12.3v-70.8q0-7.3 5.3-12.6t12.6-5.3h62.5q73.6 0 118.5-24t57.2-69.7h-238.2q-7.9 0-12.9-5.1t-5-12.8v-56.9q0-7.8 5-12.9t12.9-5h230.4q-31.8-63-149.5-63h-80.9q-7.3 0-12.6-5.3t-5.3-12.6v-74.2q0-7.8 5-12.8t12.9-5.1h464.2q7.9 0 12.9 5.1t5 12.8v56.9q0 7.8-5 12.8t-12.9 5.1h-130q26.2 34 35.7 80.3h95.5q7.8 0 12.8 5t5 12.9z" /></svg>