<svg width="857.1" height="1000" xmlns="http://www.w3.org/2000/svg"><path d="m214.3 857.1h428.6v-214.2h-428.6v214.2z m500 0h71.4v-500q0-7.8-5.6-21.4t-11.1-19.3l-156.8-156.8q-5.6-5.6-19-11.2t-21.8-5.5v232.1q0 22.3-15.6 37.9t-37.9 15.7h-321.5q-22.3 0-37.9-15.7t-15.6-37.9v-232.1h-71.5v714.2h71.5v-232.1q0-22.3 15.6-37.9t37.9-15.7h464.3q22.3 0 38 15.7t15.6 37.9v232.1z m-214.3-517.8v-178.6q0-7.2-5.3-12.5t-12.6-5.3h-107.1q-7.3 0-12.6 5.3t-5.3 12.5v178.6q0 7.2 5.3 12.5t12.6 5.3h107.1q7.3 0 12.6-5.3t5.3-12.5z m357.1 17.8v517.9q0 22.3-15.6 37.9t-37.9 15.7h-750q-22.4 0-38-15.7t-15.6-37.9v-750q0-22.3 15.6-37.9t38-15.7h517.8q22.4 0 49.1 11.2t42.4 26.8l156.3 156.2q15.6 15.7 26.8 42.4t11.1 49.1z" /></svg>