<svg width="857.1" height="1000" xmlns="http://www.w3.org/2000/svg"><path d="m714.3 666.9q0-49.2-34.9-84.3t-84-35.2q-46.9 0-80.9 32.4l-134.5-67q1.1-8.9 1.1-12.8t-1.1-12.8l134.5-67q34 32.4 80.9 32.4 49.1 0 84-35.2t34.9-84.3-34.9-83.9-84-34.9-84.2 34.9-35.2 83.9q0 4 1.1 12.9l-134.5 66.9q-34.6-31.8-80.9-31.8-49.1 0-84 34.9t-34.8 84 34.8 84 84 34.9q46.3 0 80.9-31.8l134.5 66.9q-1.1 8.9-1.1 12.9 0 49.1 35.2 83.9t84.2 34.9 84-34.9 34.9-83.9z m142.8-434.8v535.8q0 66.4-47.1 113.5t-113.6 47.2h-535.7q-66.4 0-113.5-47.2t-47.2-113.5v-535.8q0-66.4 47.2-113.5t113.5-47.2h535.7q66.4 0 113.6 47.2t47.1 113.5z" /></svg>