<svg width="928.6" height="1000" xmlns="http://www.w3.org/2000/svg"><path d="m785.7 551.9v144.5q0 66.4-47.1 113.6t-113.6 47.1h-464.3q-66.4 0-113.5-47.1t-47.2-113.6v-464.3q0-66.4 47.2-113.5t113.5-47.2h142.3v0q7.3 0 12.6 5.3t5.3 12.6q0 15.1-14.5 17.8-43 14.6-74.3 33.5-5.5 2.3-8.9 2.3h-62.5q-36.8 0-63 26.2t-26.3 63v464.3q0 36.9 26.3 63.1t63 26.2h464.3q36.8 0 63.1-26.2t26.2-63.1v-119.4q0-10.6 10-16.2 15.7-7.2 30.2-20.6 8.9-8.9 19.5-4.5 11.7 5 11.7 16.2z m132.3-276.8l-214.3 214.3q-10.1 10.6-25.1 10.6-6.7 0-14-2.8-21.7-9.5-21.7-32.9v-107.2h-89.3q-180.3 0-244.4 73.1-66.5 76.5-41.3 264 1.6 12.8-11.2 19-4.5 1.1-6.7 1.1-8.9 0-14.5-7.3-5.6-7.8-11.7-17.3t-22.1-38.2-27.6-55.5-21.5-63.6-9.7-68.1q0-27.4 1.9-50.8t7.8-50.2 15.6-49.1 26.3-45.5 38.2-41.3 52.7-34.3 69.5-27.1 89-17 109.7-6.1h89.3v-107.2q0-23.4 21.7-32.9 7.3-2.8 14-2.8 14.5 0 25.1 10.6l214.3 214.3q10.6 10.6 10.6 25.1t-10.6 25.1z" /></svg>