<svg width="857.1" height="1000" xmlns="http://www.w3.org/2000/svg"><path d="m553.6 348.2v276.8q0 7.8-5.1 12.8t-12.8 5.1h-89.3q-7.8 0-12.8-5.1t-5-12.8v-276.8q0-62.5-44.7-107.1t-107.1-44.7h-151.8v642.9q0 7.8-5 12.8t-12.9 5h-89.2q-7.9 0-12.9-5t-5-12.8v-750q0-7.8 5-12.8t12.9-5.1h258.9q75.3 0 138.9 37.1t100.8 100.8 37.1 138.9z m214.3-258.9v491.1q0 75.3-37.2 138.9t-100.7 100.7-138.9 37.1h-259q-7.8 0-12.8-5t-5-12.8v-535.7q0-7.8 5-12.9t12.8-5h89.3q7.8 0 12.9 5t5 12.9v428.5h151.8q62.5 0 107.1-44.6t44.7-107.1v-491.1q0-7.8 5-12.8t12.8-5.1h89.3q7.8 0 12.8 5.1t5.1 12.8z" /></svg>