<svg width="928.6" height="1000" xmlns="http://www.w3.org/2000/svg"><path d="m357.1 857.1q0 29.6-20.9 50.5t-50.5 21-50.5-21-20.9-50.5 20.9-50.5 50.5-20.9 50.5 20.9 20.9 50.5z m500 0q0 29.6-20.9 50.5t-50.5 21-50.5-21-20.9-50.5 20.9-50.5 50.5-20.9 50.5 20.9 20.9 50.5z m71.5-607.1v285.7q0 13.4-9 23.7t-22.8 12l-582.6 68.1q0.5 3.9 2.5 12t3.3 14.8 1.4 12.3q0 8.9-13.4 35.7h513.4q14.5 0 25.1 10.6t10.6 25.1-10.6 25.1-25.1 10.6h-571.4q-14.5 0-25.1-10.6t-10.6-25.1q0-7.8 6.1-22t16.5-33.2 11.4-21.3l-98.7-459.2h-113.9q-14.5 0-25.1-10.6t-10.6-25.1 10.6-25.1 25.1-10.6h142.9q8.9 0 15.9 3.6t11.1 8.6 7.3 13.7 4.2 14.8 3 16.5 2.6 14.2h670.2q14.5 0 25.1 10.6t10.6 25.1z" /></svg>