<svg width="1000.0" height="1000" xmlns="http://www.w3.org/2000/svg"><path d="m142.9 803.6v107.1q0 7.8-5.1 12.8t-12.8 5.1h-107.1q-7.9 0-12.9-5.1t-5-12.8v-107.1q0-7.8 5-12.9t12.9-5h107.1q7.8 0 12.8 5t5.1 12.9z m214.2-71.5v178.6q0 7.8-5 12.8t-12.8 5.1h-107.2q-7.8 0-12.8-5.1t-5-12.8v-178.6q0-7.8 5-12.8t12.8-5h107.2q7.8 0 12.8 5t5 12.8z m214.3-142.8v321.4q0 7.8-5 12.8t-12.8 5.1h-107.2q-7.8 0-12.8-5.1t-5-12.8v-321.4q0-7.8 5-12.8t12.8-5.1h107.2q7.8 0 12.8 5.1t5 12.8z m214.3-214.3v535.7q0 7.8-5 12.8t-12.8 5.1h-107.2q-7.8 0-12.8-5.1t-5-12.8v-535.7q0-7.8 5-12.8t12.8-5.1h107.2q7.8 0 12.8 5.1t5 12.8z m214.3-285.7v821.4q0 7.8-5 12.8t-12.9 5.1h-107.1q-7.8 0-12.8-5.1t-5.1-12.8v-821.4q0-7.8 5.1-12.8t12.8-5.1h107.1q7.9 0 12.9 5.1t5 12.8z" /></svg>