<svg width="928.6" height="1000" xmlns="http://www.w3.org/2000/svg"><path d="m357.1 803.6q0 2.2 0.6 11.1t0.3 14.8-1.7 13.1-5.6 10.9-11.4 3.6h-178.6q-66.4 0-113.5-47.1t-47.2-113.6v-392.8q0-66.4 47.2-113.6t113.5-47.1h178.6q7.2 0 12.5 5.3t5.3 12.5q0 2.2 0.6 11.2t0.3 14.8-1.7 13.1-5.6 10.9-11.4 3.6h-178.6q-36.8 0-63 26.2t-26.3 63.1v392.8q0 36.9 26.3 63.1t63 26.2h160.7 6.2 7.2t6.4 0.6 6.5 1.6 4.4 3.1 3.9 5 1.1 7.6z m517.9-303.6q0 14.5-10.6 25.1l-303.6 303.6q-10.6 10.6-25.1 10.6t-25.1-10.6-10.6-25.1v-160.7h-250q-14.5 0-25.1-10.6t-10.6-25.2v-214.2q0-14.6 10.6-25.2t25.1-10.6h250v-160.7q0-14.5 10.6-25.1t25.1-10.6 25.1 10.6l303.6 303.6q10.6 10.6 10.6 25.1z" /></svg>