<svg width="857.1" height="1000" xmlns="http://www.w3.org/2000/svg"><path d="m660.7 500q0 14.5-10.6 25.1l-303.6 303.6q-10.6 10.6-25.1 10.6t-25.1-10.6-10.6-25.1v-160.7h-250q-14.5 0-25.1-10.6t-10.6-25.2v-214.2q0-14.6 10.6-25.2t25.1-10.6h250v-160.7q0-14.5 10.6-25.1t25.1-10.6 25.1 10.6l303.6 303.6q10.6 10.6 10.6 25.1z m196.4-196.4v392.8q0 66.4-47.1 113.6t-113.6 47.1h-178.5q-7.3 0-12.6-5.3t-5.3-12.5q0-2.2-0.6-11.2t-0.2-14.8 1.6-13.1 5.6-10.9 11.5-3.6h178.5q36.9 0 63.1-26.2t26.2-63.1v-392.8q0-36.9-26.2-63.1t-63.1-26.2h-160.7-6.1-7.3t-6.4-0.6-6.4-1.6-4.5-3.1-3.9-5-1.1-7.6q0-2.2-0.6-11.1t-0.2-14.8 1.6-13.1 5.6-10.9 11.5-3.6h178.5q66.4 0 113.6 47.1t47.1 113.6z" /></svg>