<svg width="857.1" height="1000" xmlns="http://www.w3.org/2000/svg"><path d="m654.6 593.2q0-27.9-10.9-51.1t-27.1-38.2-40.7-27.3-46-19-48.9-12.8l-58-13.4q-16.7-3.9-24.6-5.9t-19.5-6.4-16.7-8.9-9.2-11.8-4.2-16.7q0-43 80.3-43 24 0 43 6.7t30.1 15.9 21.2 18.7 22.4 16.2 26.7 6.7q26.3 0 42.2-17.9t15.9-42.9q0-30.7-31.3-55.5t-79.2-37.7-101.6-12.9q-37.9 0-73.6 8.7t-66.7 26.2-49.7 48.6-18.7 71.7q0 34 10.6 59.4t31.3 42.1 44.6 27.1 57.5 18.1l81.5 20.1q50.2 12.3 62.5 20.1 17.8 11.2 17.8 33.5 0 21.8-22.3 36t-58.6 14.2q-28.4 0-51.1-8.9t-36.2-21.5-25.4-25.1-25.7-21.5-30.1-8.9q-27.9 0-42.1 16.7t-14.3 41.9q0 51.3 68.1 87.9t162.4 36.5q40.7 0 78.1-10.3t68.4-29.9 49.4-52.1 18.4-73.4z m202.5 121.1q0 88.7-62.7 151.5t-151.5 62.8q-72.6 0-130.6-44.7-43 9-83.7 9-79.8 0-152.7-31t-125.5-83.7-83.7-125.6-31-152.6q0-40.7 8.9-83.7-44.6-58-44.6-130.6 0-88.7 62.8-151.5t151.5-62.8q72.5 0 130.6 44.7 42.9-9 83.7-9 79.8 0 152.6 31t125.6 83.7 83.7 125.6 30.9 152.6q0 40.7-8.9 83.7 44.6 58 44.6 130.6z" /></svg>