<svg width="1000.0" height="1000" xmlns="http://www.w3.org/2000/svg"><path d="m487.2 412.9q0 46.4-35.5 79.6t-85.1 33.2-85.1-33.2-35.4-79.6q0-46.8 35.4-79.8t85.1-32.9 85.1 32.9 35.5 79.8z m280.1 0q0 46.4-35.2 79.6t-85.3 33.2q-49.7 0-85.1-33.2t-35.5-79.6q0-46.8 35.5-79.8t85.1-32.9q50.2 0 85.3 32.9t35.2 79.8z m125.6 100.5v-372.2q0-48.6-17.9-68.9t-61.9-20.4h-620.6q-46.3 0-62.8 19t-16.4 70.3v375.5q24 12.9 49.4 22.4t45.2 15.6 45.2 10.3 39.6 6.1 39.1 2.3 32.6 0.3 31.5-1.2 24.9-1.1q37.9-0.5 53 15.1 3.3 3.3 5.6 5 14.5 14 34 28.5 3.9-50.8 65.8-48.6 2.8 0 20.4 0.9t24 1.1 25.4 0.5 29.6-0.5 30.4-2.5 34-4.8 34.6-7.5 37.4-10.9 37.7-15.1 40.2-19.2z m90.9-2.8q-67.5 83.2-207.6 140.6 46.9 159.1-12.8 259.5-36.8 63.1-102.1 82.6-58.1 17.9-101.6-8.4-48-28.4-45.7-91.5l-0.6-181.9v-0.6q-4.5-1.1-13.7-3.3t-13.1-2.8l-0.6 188.6q2.3 63.6-46.3 91.5-44.1 26.3-102.1 8.4-65.3-20.1-101.6-83.7-58.5-100.4-12.2-258.4-140.1-57.4-207.6-140.6-14-20.6-2.2-35.2t33.4 0.6q1.7 1.1 6.2 3.9t6.1 4.5v-387.3q0-40.2 26.2-68.6t63.7-28.5h701.4q37.4 0 63.6 28.5t26.2 68.6v387.3l11.8-8.4q21.7-15.1 33.4-0.6t-2.2 35.2z" /></svg>