<svg width="857.1" height="1000" xmlns="http://www.w3.org/2000/svg"><path d="m196.4 785.7v71.4h-196.4v-71.4h196.4z m196.5-71.4q14.5 0 25.1 10.6t10.6 25.1v142.9q0 14.5-10.6 25.1t-25.1 10.6h-142.9q-14.5 0-25.1-10.6t-10.6-25.1v-142.9q0-14.5 10.6-25.1t25.1-10.6h142.9z m89.2-214.3v71.4h-482.1v-71.4h482.1z m-357.1-285.7v71.4h-125v-71.4h125z m732.1 571.4v71.4h-410.7v-71.4h410.7z m-535.7-642.8q14.5 0 25.1 10.6t10.6 25.1v142.8q0 14.5-10.6 25.1t-25.1 10.6h-142.8q-14.5 0-25.1-10.6t-10.6-25.1v-142.8q0-14.5 10.6-25.1t25.1-10.6h142.8z m357.2 285.7q14.5 0 25.1 10.6t10.6 25.1v142.8q0 14.6-10.6 25.2t-25.1 10.6h-142.9q-14.5 0-25.1-10.6t-10.6-25.2v-142.8q0-14.5 10.6-25.1t25.1-10.6h142.9z m178.5 71.4v71.4h-125v-71.4h125z m0-285.7v71.4h-482.1v-71.4h482.1z" /></svg>