<svg width="857.1" height="1000" xmlns="http://www.w3.org/2000/svg"><path d="m632.8 599.9q-20.6 67.5-77 108.8t-127.2 41.3-127.3-41.3-77-108.8q-4.4-14 2.3-27.1t21.2-17.6q13.9-4.4 27 2.3t17.6 21.2q14 44.6 51.6 72.2t84.6 27.7 84.5-27.7 51.6-72.2q4.5-14.5 17.9-21.2t27.3-2.3 20.7 17.6 2.2 27.1z m-275.7-242.8q0 29.6-20.9 50.5t-50.5 21-50.5-21-20.9-50.5 20.9-50.5 50.5-20.9 50.5 20.9 20.9 50.5z m285.8 0q0 29.6-21 50.5t-50.5 21-50.5-21-20.9-50.5 20.9-50.5 50.5-20.9 50.5 20.9 21 50.5z m142.8 142.9q0-72.5-28.4-138.7t-76.2-113.8-113.9-76.2-138.6-28.4-138.7 28.4-113.8 76.2-76.2 113.8-28.5 138.7 28.5 138.7 76.2 113.8 113.8 76.2 138.7 28.4 138.6-28.4 113.9-76.2 76.2-113.8 28.4-138.7z m71.4 0q0 116.6-57.4 215.1t-156 156-215.1 57.5-215.2-57.5-155.9-156-57.5-215.1 57.5-215.1 155.9-156 215.2-57.5 215.1 57.5 156 156 57.4 215.1z" /></svg>