<svg width="1000.0" height="1000" xmlns="http://www.w3.org/2000/svg"><path d="m339.8 455.4l160.2-116.1 160.2 116.1-60.9 187.5h-198.1z m160.2-455.4q101.6 0 194.2 39.6t159.6 106.6 106.6 159.6 39.6 194.2-39.6 194.2-106.6 159.6-159.6 106.6-194.2 39.6-194.2-39.6-159.6-106.6-106.6-159.6-39.6-194.2 39.6-194.2 106.6-159.6 159.6-106.6 194.2-39.6z m345.4 753.3q83.2-113.2 83.2-253.3v-1.7l-56.9 49.7-134-125 35.2-180.3 74.8 6.7q-83.7-114.9-217.1-157.3l29.6 69.2-160.2 88.7-160.2-88.7 29.6-69.2q-133.4 42.4-217.1 157.3l75.4-6.7 34.6 180.3-134 125-56.9-49.7v1.7q0 140.1 83.2 253.3l16.7-73.6 181.9 22.3 77.6 166.3-64.7 38.5q65.3 21.8 133.9 21.8t133.9-21.8l-64.7-38.5 77.6-166.3 181.9-22.3z" /></svg>