<svg width="928.6" height="1000" xmlns="http://www.w3.org/2000/svg"><path d="m664.6 227.7h98.8l-40.2-121.7-6.7-26.2q-1.1-8.9-1.1-11.2h-2.2l-1.7 11.2q0 0.6-2 10t-4.1 16.2z m-253.9 575.9q0 6.7-5.6 13.4l-178 178q-5.6 5-12.8 5-6.7 0-12.8-5l-178.6-178.6q-8.4-8.9-3.9-19.5 4.4-11.2 16.7-11.2h107.2v-767.8q0-7.9 5-12.9t12.8-5h107.2q7.8 0 12.8 5t5 12.9v767.8h107.2q7.8 0 12.8 5t5 12.9z m466.5 66.4v130h-325.9v-50.2l206-295.2q6.7-10.1 11.7-15.1l6.1-5v-1.7q-1.1 0-3.6 0.3t-4.2 0.3q-6.7 1.6-16.7 1.6h-129.5v64.2h-67v-127.8h316.4v49.7l-205.9 295.8q-3.3 4.4-11.7 14.5l-6.1 6.1v1.1l7.8-1.1q5-1.1 16.7-1.1h138.4v-66.4h67.5z m49.7-500.6v59.2h-160.7v-59.2h41.8l-26.2-80.3h-135.6l-26.2 80.3h41.8v59.2h-160.1v-59.2h39l128.4-369.4h90.4l128.3 369.4h39.1z" /></svg>