<svg width="1000.0" height="1000" xmlns="http://www.w3.org/2000/svg"><path d="m678.6 875v107.1q0 7.9-5.1 12.9t-12.8 5h-142.8q-7.9 0-12.9-5t-5-12.9v-107.1q0-7.8 5-12.8t12.9-5.1h142.8q7.8 0 12.8 5.1t5.1 12.8z m-267.9-71.4q0 6.7-5.6 13.4l-178 178q-5.6 5-12.8 5-6.7 0-12.8-5l-178.6-178.6q-8.4-8.9-3.9-19.5 4.4-11.2 16.7-11.2h107.2v-767.8q0-7.9 5-12.9t12.8-5h107.2q7.8 0 12.8 5t5 12.9v767.8h107.2q7.8 0 12.8 5t5 12.9z m375-214.3v107.1q0 7.8-5 12.9t-12.8 5h-250q-7.9 0-12.9-5t-5-12.9v-107.1q0-7.8 5-12.8t12.9-5.1h250q7.8 0 12.8 5.1t5 12.8z m107.2-285.7v107.1q0 7.8-5.1 12.8t-12.8 5.1h-357.1q-7.9 0-12.9-5.1t-5-12.8v-107.1q0-7.8 5-12.9t12.9-5h357.1q7.8 0 12.8 5t5.1 12.9z m107.1-285.7v107.1q0 7.8-5 12.8t-12.9 5.1h-464.2q-7.9 0-12.9-5.1t-5-12.8v-107.1q0-7.9 5-12.9t12.9-5h464.2q7.9 0 12.9 5t5 12.9z" /></svg>