<svg width="1214.3" height="1000" xmlns="http://www.w3.org/2000/svg"><path d="m346 625q-61.4 35.7-149.6 35.7h-71.4v-35.7h-35.7q-7.3 0-12.6-13.1t-5.3-31.5q0-13.4 3.9-27.4-32.3-1.1-53.8-5.8t-21.5-11.5 21.5-11.4 53.8-5.9q-3.9-13.9-3.9-27.3 0-18.4 5.3-31.6t12.6-13.1h35.7v-35.7h71.4q88.2 0 149.6 35.7h621.1q23.4 3.9 59.4 10.1t44.9 7.8q49.7 8.4 83.7 22.6t46.6 26.5 12.6 22.3-12.6 22.3-46.6 26.5-83.7 22.6q-8.9 1.7-44.9 7.9t-59.4 10h-621.1z m624.4-140.6q29.6 20.1 29.6 51.3t-29.6 51.4l45.2 16.7q38-26.8 38-68.1t-38-68.1z m-621.6 149.5h566.4q-121.1 21.2-254.5 44.7-31.8 0-63 13.4t-46.4 26.8l-15.6 13.3-160.7 160.8q-14.5 14.5-39.3 25.1t-50 10.6h-53.6l-51.9-259h16.2q87.6 0 152.4-35.7z m-152.4-232.1h-16.2l51.9-258.9h53.6q25.7 0 50.2 10.6t39.1 25.1l160.7 160.7q2.2 2.2 6.2 5.8t17 12.9 27 16.2 34.4 12.8 40.4 5.9l254.5 44.6h-566.4q-64.8-35.7-152.4-35.7z" /></svg>