<svg width="875.0" height="1000" xmlns="http://www.w3.org/2000/svg"><path d="m276.8 750q0 33.5-23.7 56.9t-56.7 23.5q-33.5 0-56.9-23.5t-23.4-56.9 23.4-56.9 56.9-23.5q33 0 56.7 23.5t23.7 56.9z m241.1 107.1q0 29.6-21 50.5t-50.5 21-50.5-21-20.9-50.5 20.9-50.5 50.5-20.9 50.5 20.9 21 50.5z m-339.3-357.1q0 36.8-26.3 63.1t-63 26.2-63.1-26.2-26.2-63.1 26.2-63.1 63.1-26.2 63 26.2 26.3 63.1z m580.3 250q0 25.7-18.4 44.1t-44.1 18.4-44.1-18.4-18.4-44.1 18.4-44.1 44.1-18.4 44.1 18.4 18.4 44.1z m-464.3-500q0 40.7-28.7 69.5t-69.5 28.7-69.4-28.7-28.8-69.5 28.8-69.5 69.4-28.7 69.5 28.7 28.7 69.5z m259-107.1q0 44.6-31.3 75.9t-75.9 31.2-75.9-31.2-31.2-75.9 31.2-75.9 75.9-31.3 75.9 31.3 31.3 75.9z m303.5 357.1q0 22.3-15.6 37.9t-37.9 15.7-38-15.7-15.6-37.9 15.6-37.9 38-15.7 37.9 15.7 15.6 37.9z m-116-250q0 18.4-13.1 31.5t-31.6 13.1-31.5-13.1-13.1-31.5 13.1-31.5 31.5-13.1 31.6 13.1 13.1 31.5z" /></svg>