<svg width="928.6" height="1000" xmlns="http://www.w3.org/2000/svg"><path d="m634.5 560.3l170.7-165.8-235.4-34.6-105.5-213.1-105.5 213.1-235.5 34.6 170.8 165.8-40.8 234.9 211-111 210.4 111z m294.1-199.3q0 12.3-14.5 26.8l-202.6 197.6 48 279q0.5 3.9 0.5 11.2 0 27.9-22.8 27.9-10.6 0-22.4-6.7l-250.5-131.7-250.6 131.7q-12.2 6.7-22.3 6.7-11.7 0-17.6-8.1t-5.8-19.8q0-3.4 1.1-11.2l48-279-203.1-197.6q-14-15-14-26.8 0-20.6 31.2-25.6l280.2-40.8 125.5-253.9q10.6-22.8 27.4-22.8t27.3 22.8l125.6 253.9 280.1 40.8q31.3 5 31.3 25.6z" /></svg>