<svg width="928.6" height="1000" xmlns="http://www.w3.org/2000/svg"><path d="m661.8 534l143.4-139.5-198.6-29-36.8-5.6-16.8-33.4-88.7-179.7v537.4l32.9 17.3 177.5 93.7-33.5-198.1-6.7-36.8z m252.3-146.2l-202.6 197.6 48 279q2.8 18.4-3.4 28.7t-18.9 10.4q-9.5 0-22.4-6.7l-250.5-131.7-250.6 131.7q-12.8 6.7-22.3 6.7-12.8 0-19-10.4t-3.3-28.7l48-279-203.1-197.6q-17.9-17.8-12.9-33.2t30.1-19.2l280.2-40.8 125.5-253.9q11.2-22.8 27.4-22.8 15.6 0 27.3 22.8l125.6 253.9 280.1 40.8q25.1 3.9 30.2 19.2t-13.4 33.2z" /></svg>