<svg width="1071.4" height="1000" xmlns="http://www.w3.org/2000/svg"><path d="m592.6 397.3v-65.8q0-23.5-16.7-40.2t-40.2-16.7-40.2 16.7-16.7 40.2v341.5q0 97.6-70.3 166.8t-169.1 69.2q-99.3 0-169.4-70t-70-169.4v-148.4h183v146.2q0 24 16.8 40.5t40.2 16.4 40.1-16.4 16.8-40.5v-346q0-95.4 70.6-162.9t168.2-67.5q98.2 0 168.5 68t70.4 164.1v75.9l-108.9 32.4z m295.8 123.9h183v148.4q0 99.4-70 169.4t-169.4 70q-98.7 0-169.1-69.4t-70.3-167.7v-149.6l73.1 34.1 108.9-32.4v150.7q0 23.4 16.7 39.9t40.2 16.4 40.2-16.4 16.7-39.9v-153.5z" /></svg>