<svg width="857.1" height="1000" xmlns="http://www.w3.org/2000/svg"><path d="m483.3 468.2l50.2-15.1v-34.6q0-44.1-32.4-75.3t-77-31.3-77 31-32.4 75.1v157.9q0 11.2-7.8 18.7t-18.4 7.5-18.1-7.5-7.6-18.7v-67h-84.2v68.1q0 45.8 32.1 77.6t77.8 31.8q45.2 0 77.3-31.5t32.1-76.2v-156.3q0-10.6 7.5-18.4t18.7-7.8q10.6 0 18.1 7.8t7.6 18.4v30.2z m185.8 108.8v-68.1h-83.7v70.3q0 11.2-7.6 18.7t-18.6 7.6q-10.7 0-18.2-7.8t-7.5-18.5v-68.6l-50.2 14.5-33.5-15.6v68.6q0 44.7 32.3 76.5t77.6 31.8 77.3-31.8 32.1-77.6z m188-77q0 116.6-57.4 215.1t-156 156-215.1 57.5-215.2-57.5-155.9-156-57.5-215.1 57.5-215.1 155.9-156 215.2-57.5 215.1 57.5 156 156 57.4 215.1z" /></svg>