<svg width="857.1" height="1000" xmlns="http://www.w3.org/2000/svg"><path d="m500.6 764v93.1h-138.4l-88.8-140.6-13.4-23.4q-4.4-5-6.1-11.7h-1.7l-5 11.7q-5.6 11.1-13.9 24.5l-86.5 139.5h-144v-93.1h71.4l110-162.4-103.3-151.8h-76.4v-93.8h154l77.5 127.3q1.2 2.2 12.9 23.4 4.4 5 6.1 11.7h1.7q1.7-5 6.1-11.7l14-23.4 78.1-127.3h143.4v93.8h-69.7l-102.7 149 113.8 165.2h60.9z m356.5 121v115h-286.8l-2.2-15.1q-1.7-25.1-1.7-25.6 0-35.8 14.5-65.3t36.3-48.3 46.9-36.3 46.8-30.4 36.3-30.1 14.5-35.7q0-21.2-16.4-34.9t-39.4-13.7q-28.4 0-54.1 21.8-7.8 6.1-20.1 21.2l-58.6-51.3q14.5-20.7 35.2-36.9 44.6-36.3 104.9-36.3 61.4 0 99.3 33.3t37.9 88.4q0 36.8-19.2 66.1t-46.9 48-55.5 34.9-48.6 35.2-22.8 40.7h129.4v-44.7h70.3z" /></svg>