<svg width="1000.0" height="1000" xmlns="http://www.w3.org/2000/svg"><path d="m821.4 500q0-65.3-25.4-124.7t-68.6-102.7-102.7-68.6-124.7-25.4-124.7 25.4-102.7 68.6-68.6 102.7-25.4 124.7 25.4 124.7 68.6 102.7 102.7 68.6 124.7 25.4 124.7-25.4 102.7-68.6 68.6-102.7 25.4-124.7z m154 154.6q-2.2 8.3-11.1 11.1l-163 53.6v170.8q0 8.9-7.2 14.5-8.4 5.6-16.2 2.2l-162.9-52.4-100.5 138.3q-5.6 7.3-14.5 7.3t-14.5-7.3l-100.5-138.3-162.9 52.4q-7.8 3.4-16.2-2.2-7.2-5.6-7.2-14.5v-170.8l-163-53.6q-8.9-2.8-11.1-11.1-2.8-9.5 2.2-16.2l100.4-138.4-100.4-138.4q-5-7.2-2.2-16.2 2.2-8.3 11.1-11.1l163-53.6v-170.8q0-8.9 7.2-14.5 8.4-5.6 16.2-2.2l162.9 52.4 100.5-138.3q5-6.7 14.5-6.7t14.5 6.7l100.5 138.3 162.9-52.4q7.8-3.4 16.2 2.2 7.2 5.6 7.2 14.5v170.8l163 53.6q8.9 2.8 11.1 11.1 2.8 9-2.2 16.2l-100.4 138.4 100.4 138.4q5 6.7 2.2 16.2z" /></svg>