<svg width="928.6" height="1000" xmlns="http://www.w3.org/2000/svg"><path d="m285.7 767.9v-107.2q0-7.8-5-12.8t-12.8-5h-178.6q-7.8 0-12.8 5t-5.1 12.8v107.2q0 7.8 5.1 12.8t12.8 5h178.6q7.8 0 12.8-5t5-12.8z m0-214.3v-107.2q0-7.8-5-12.8t-12.8-5h-178.6q-7.8 0-12.8 5t-5.1 12.8v107.2q0 7.8 5.1 12.8t12.8 5h178.6q7.8 0 12.8-5t5-12.8z m285.7 214.3v-107.2q0-7.8-5-12.8t-12.8-5h-178.6q-7.8 0-12.8 5t-5.1 12.8v107.2q0 7.8 5.1 12.8t12.8 5h178.6q7.8 0 12.8-5t5-12.8z m-285.7-428.6v-107.2q0-7.8-5-12.8t-12.8-5h-178.6q-7.8 0-12.8 5t-5.1 12.8v107.2q0 7.8 5.1 12.8t12.8 5h178.6q7.8 0 12.8-5t5-12.8z m285.7 214.3v-107.2q0-7.8-5-12.8t-12.8-5h-178.6q-7.8 0-12.8 5t-5.1 12.8v107.2q0 7.8 5.1 12.8t12.8 5h178.6q7.8 0 12.8-5t5-12.8z m285.7 214.3v-107.2q0-7.8-5-12.8t-12.8-5h-178.6q-7.8 0-12.8 5t-5 12.8v107.2q0 7.8 5 12.8t12.8 5h178.6q7.8 0 12.8-5t5-12.8z m-285.7-428.6v-107.2q0-7.8-5-12.8t-12.8-5h-178.6q-7.8 0-12.8 5t-5.1 12.8v107.2q0 7.8 5.1 12.8t12.8 5h178.6q7.8 0 12.8-5t5-12.8z m285.7 214.3v-107.2q0-7.8-5-12.8t-12.8-5h-178.6q-7.8 0-12.8 5t-5 12.8v107.2q0 7.8 5 12.8t12.8 5h178.6q7.8 0 12.8-5t5-12.8z m0-214.3v-107.2q0-7.8-5-12.8t-12.8-5h-178.6q-7.8 0-12.8 5t-5 12.8v107.2q0 7.8 5 12.8t12.8 5h178.6q7.8 0 12.8-5t5-12.8z m71.5-178.6v607.2q0 36.8-26.3 63t-63 26.2h-750q-36.8 0-63.1-26.2t-26.2-63v-607.2q0-36.8 26.2-63t63.1-26.3h750q36.8 0 63 26.3t26.3 63z" /></svg>