<svg width="1071.4" height="1000" xmlns="http://www.w3.org/2000/svg"><path d="m250 250q0-29.6-20.9-50.5t-50.5-20.9-50.5 20.9-21 50.5 21 50.5 50.5 20.9 50.5-20.9 20.9-50.5z m595.4 321.4q0 29.6-20.6 50.3l-274 274.5q-21.8 20.7-50.8 20.7-29.6 0-50.2-20.7l-399-399.5q-21.2-20.7-36-56.4t-14.8-65.3v-232.1q0-29.1 21.2-50.3t50.2-21.2h232.2q29.5 0 65.3 14.8t56.9 36l399 398.4q20.6 21.8 20.6 50.8z m214.3 0q0 29.6-20.6 50.3l-274 274.5q-21.8 20.7-50.8 20.7-20.1 0-32.9-7.9t-29.6-25.1l262.3-262.2q20.6-20.7 20.6-50.3 0-29-20.6-50.8l-399-398.4q-21.2-21.2-57-36t-65.2-14.8h125q29.5 0 65.2 14.8t57 36l399 398.4q20.6 21.8 20.6 50.8z" /></svg>