<svg width="1000.0" height="1000" xmlns="http://www.w3.org/2000/svg"><path d="m571.4 785.7h357.2v-71.4h-357.2v71.4z m-214.3-285.7h571.5v-71.4h-571.5v71.4z m357.2-285.7h214.3v-71.4h-214.3v71.4z m285.7 464.3v142.8q0 14.5-10.6 25.1t-25.1 10.6h-928.6q-14.5 0-25.1-10.6t-10.6-25.1v-142.8q0-14.5 10.6-25.1t25.1-10.6h928.6q14.5 0 25.1 10.6t10.6 25.1z m0-285.7v142.8q0 14.5-10.6 25.1t-25.1 10.6h-928.6q-14.5 0-25.1-10.6t-10.6-25.1v-142.8q0-14.6 10.6-25.2t25.1-10.6h928.6q14.5 0 25.1 10.6t10.6 25.2z m0-285.8v142.9q0 14.5-10.6 25.1t-25.1 10.6h-928.6q-14.5 0-25.1-10.6t-10.6-25.1v-142.9q0-14.5 10.6-25.1t25.1-10.6h928.6q14.5 0 25.1 10.6t10.6 25.1z" /></svg>