<svg width="714.3" height="1000" xmlns="http://www.w3.org/2000/svg"><path d="m469.9 319.2q0 44.6-31.8 76.2t-75.9 31.5q-33.5 0-62-19.5-34.6 37.4-64.2 81.4-137.8 207.1-112.7 479.4 0.6 12.3-6.9 21.5t-19.3 10.3h-2.8q-11.2 0-19.5-7.5t-9.5-18.7q-7.8-70.3-2-138.1t16.5-121.1 30.1-103.8 38.5-86.8 41.3-69.8q34.1-50.2 73.7-92-8.9-19.6-8.9-43 0-44.6 31.5-76.2t76.2-31.5 76.1 31.5 31.6 76.2z m212.6 6.1q0 88.2-43.5 163t-118.6 118.3-163.3 43.5q-35.7 0-73.1-7.8-11.7-2.8-18.1-13.1t-3.6-22.1q2.8-11.1 12.8-17.5t21.8-4.2q28.4 7.2 60.2 7.2 54.2 0 103.8-21.2t85.4-56.9 56.9-85.4 21.2-103.8-21.2-103.8-56.9-85.3-85.4-57-103.8-21.2-103.8 21.2-85.3 57-57 85.3-21.2 103.8q0 63.7 29.1 121.7 5.5 11.1 1.9 22.3t-14.2 16.7-22.1 1.7-17-14.5q-35.7-68.6-35.7-147.9 0-66.4 26-126.6t69.4-103.8 103.8-69.2 126.1-25.7q88.2 0 163.3 43.5t118.6 118.6 43.5 163.2z" /></svg>