<svg width="1000.0" height="1000" xmlns="http://www.w3.org/2000/svg"><path d="m285.7 696.4v107.2q0 22.3-15.6 37.9t-38 15.6h-178.5q-22.3 0-38-15.6t-15.6-37.9v-107.2q0-22.3 15.6-37.9t38-15.6h178.5q22.4 0 38 15.6t15.6 37.9z m0-285.7v107.2q0 22.3-15.6 37.9t-38 15.6h-178.5q-22.3 0-38-15.6t-15.6-37.9v-107.2q0-22.3 15.6-37.9t38-15.7h178.5q22.4 0 38 15.7t15.6 37.9z m714.3 285.7v107.2q0 22.3-15.6 37.9t-38 15.6h-535.7q-22.3 0-37.9-15.6t-15.7-37.9v-107.2q0-22.3 15.7-37.9t37.9-15.6h535.7q22.4 0 38 15.6t15.6 37.9z m-714.3-571.4v107.1q0 22.4-15.6 38t-38 15.6h-178.5q-22.3 0-38-15.6t-15.6-38v-107.1q0-22.3 15.6-37.9t38-15.7h178.5q22.4 0 38 15.7t15.6 37.9z m714.3 285.7v107.2q0 22.3-15.6 37.9t-38 15.6h-535.7q-22.3 0-37.9-15.6t-15.7-37.9v-107.2q0-22.3 15.7-37.9t37.9-15.7h535.7q22.4 0 38 15.7t15.6 37.9z m0-285.7v107.1q0 22.4-15.6 38t-38 15.6h-535.7q-22.3 0-37.9-15.6t-15.7-38v-107.1q0-22.3 15.7-37.9t37.9-15.7h535.7q22.4 0 38 15.7t15.6 37.9z" /></svg>