<svg width="928.6" height="1000" xmlns="http://www.w3.org/2000/svg"><path d="m428.6 571.4v214.3q0 29-21.2 50.2t-50.3 21.2h-285.7q-29 0-50.2-21.2t-21.2-50.2v-214.3q0-29 21.2-50.2t50.2-21.2h285.7q29.1 0 50.3 21.2t21.2 50.2z m0-428.5v214.2q0 29.1-21.2 50.3t-50.3 21.2h-285.7q-29 0-50.2-21.2t-21.2-50.3v-214.2q0-29.1 21.2-50.3t50.2-21.2h285.7q29.1 0 50.3 21.2t21.2 50.3z m500 428.5v214.3q0 29-21.2 50.2t-50.3 21.2h-285.7q-29 0-50.2-21.2t-21.2-50.2v-214.3q0-29 21.2-50.2t50.2-21.2h285.7q29.1 0 50.3 21.2t21.2 50.2z m0-428.5v214.2q0 29.1-21.2 50.3t-50.3 21.2h-285.7q-29 0-50.2-21.2t-21.2-50.3v-214.2q0-29.1 21.2-50.3t50.2-21.2h285.7q29.1 0 50.3 21.2t21.2 50.3z" /></svg>