<svg width="857.1" height="1000" xmlns="http://www.w3.org/2000/svg"><path d="m142.9 250q0-14.5-10.6-25.1t-25.2-10.6-25.1 10.6-10.6 25.1 10.6 25.1 25.1 10.6 25.2-10.6 10.6-25.1z m642.8 321.4q0-19.5-12-45.2t-29.8-26.2q8.3-9.5 13.9-26.5t5.6-31q0-38.5-29.6-66.4 10.1-17.8 10.1-38.5t-9.8-41-26.5-29.3q2.8-16.7 2.8-31.3 0-47.4-27.4-70.3t-75.9-22.8h-71.4q-73.1 0-190.8 40.7-2.8 1.1-16.2 5.9t-19.8 6.9-19.6 6.4-21.2 6.2-18.4 3.6-17.6 1.7h-17.8v357.1h17.8q9 0 19.9 5.1t22.3 15 21.5 19.8 22.3 24.6 19.2 23.7 17.6 22.9 12.8 16.7q30.7 38 43 50.8 22.9 24 33.2 61.1t17 70 21.2 47.5q53.6 0 71.5-26.3t17.8-80.9q0-32.9-26.8-89.5t-26.7-89h196.4q27.9 0 49.7-21.5t21.7-50z m71.4 0.6q0 57.5-42.4 99.9t-100.4 42.4h-98.2q26.8 55.2 26.8 107.1 0 65.9-19.6 103.8-19.5 38.5-56.9 56.7t-84.3 18.1q-28.4 0-50.2-20.6-19-18.5-30.1-45.8t-14.2-50.5-9.8-47.2-17.3-35.7q-26.8-27.9-59.7-70.8-56.4-73.1-76.5-86.5h-152.9q-29.5 0-50.5-21t-20.9-50.5v-357.1q0-29.6 20.9-50.5t50.5-20.9h160.7q12.3 0 77.1-22.4 71.4-24.5 124.4-36.8t111.6-12.3h62.5q78.1 0 126.4 44.1t47.7 120.5v2.8q33.5 43 33.5 99.4 0 12.2-1.7 24 21.2 37.4 21.2 80.3 0 20.1-5 38.5 27.3 41.3 27.3 91z" /></svg>