<svg width="642.9" height="1000" xmlns="http://www.w3.org/2000/svg"><path d="m267.9 482.1v-250q0-7.8-5.1-12.8t-12.8-5-12.8 5-5.1 12.8v250q0 7.9 5.1 12.9t12.8 5 12.8-5 5.1-12.9z m375 196.5q0 14.5-10.6 25.1t-25.2 10.6h-239.4l-28.4 269.5q-1.1 6.7-5.9 11.5t-11.4 4.7h-0.6q-15 0-17.8-15.1l-42.4-270.6h-225.5q-14.5 0-25.1-10.6t-10.6-25.1q0-68.7 43.8-123.6t99.1-55v-285.7q-29.1 0-50.3-21.2t-21.2-50.2 21.2-50.3 50.3-21.2h357.1q29 0 50.2 21.2t21.2 50.3-21.2 50.2-50.2 21.2v285.7q55.2 0 99.1 55t43.8 123.6z" /></svg>