<svg width="857.1" height="1000" xmlns="http://www.w3.org/2000/svg"><path d="m142.9 750q0-14.5-10.6-25.1t-25.2-10.6-25.1 10.6-10.6 25.1 10.6 25.1 25.1 10.6 25.2-10.6 10.6-25.1z m642.8-321.4q0-28.5-21.7-50t-49.7-21.5h-196.4q0-32.3 26.7-89t26.8-89.5q0-54.7-17.8-80.9t-71.5-26.3q-14.5 14.5-21.2 47.5t-17 70-33.2 61.1q-12.3 12.8-43 50.8-2.2 2.8-12.8 16.7t-17.6 22.9-19.2 23.7-22.3 24.6-21.5 19.8-22.3 15-19.9 5.1h-17.8v357.1h17.8q7.3 0 17.6 1.7t18.4 3.6 21.2 6.2 19.6 6.4 19.8 6.9 16.2 5.9q117.7 40.7 190.8 40.7h67.5q107.2 0 107.2-93.1 0-14.6-2.8-31.3 16.7-8.9 26.5-29.3t9.8-41-10.1-38.5q29.6-27.9 29.6-66.4 0-14-5.6-31t-13.9-26.5q17.8-0.6 29.8-26.2t12-45.2z m71.4-0.6q0 49.7-27.3 91 5 18.4 5 38.5 0 42.9-21.2 80.3 1.7 11.8 1.7 24 0 56.4-33.5 99.4 0.6 77.5-47.4 122.4t-126.7 45h-20.1-51.9q-53.6 0-105.7-12.6t-120.8-36.5q-64.8-22.4-77.1-22.4h-160.7q-29.5 0-50.5-20.9t-20.9-50.5v-357.1q0-29.6 20.9-50.5t50.5-21h152.9q20.1-13.3 76.5-86.5 32.3-41.8 59.7-71.4 13.4-13.9 19.8-47.7t17-70.6 34.6-60.3q21.8-20.6 50.2-20.6 46.9 0 84.3 18.1t56.9 56.7 19.6 103.8q0 51.9-26.8 107.1h98.2q58 0 100.4 42.4t42.4 99.9z" /></svg>