<svg width="1000.0" height="1000" xmlns="http://www.w3.org/2000/svg"><path d="m571.4 252.2l176.4 176.4-319.2 319.2-176.4-176.4z m-117.7 546.3l344.8-344.8q10.7-10.6 10.7-25.1t-10.7-25.1l-202-202q-10-10.1-25.1-10.1t-25.1 10.1l-344.8 344.8q-10.7 10.6-10.7 25.1t10.7 25.1l202 202q10 10.1 25.1 10.1t25.1-10.1z m496.1-355.4l-506.2 506.7q-20.6 20.6-50.5 20.6t-50.5-20.6l-70.3-70.3q31.3-31.3 31.3-75.9t-31.3-75.9-75.9-31.3-75.9 31.3l-69.7-70.3q-20.7-20.7-20.7-50.5t20.7-50.5l506.1-505.6q20.7-20.7 50.5-20.7t50.5 20.7l69.8 69.7q-31.3 31.3-31.3 75.9t31.3 75.9 75.9 31.3 75.9-31.3l70.3 69.8q20.6 20.6 20.6 50.5t-20.6 50.5z" /></svg>