<svg width="857.1" height="1000" xmlns="http://www.w3.org/2000/svg"><path d="m612.2 602.1l-81.5 81.5q-5.6 5.6-12.8 5.6t-12.9-5.6l-76.4-76.5-76.5 76.5q-5.6 5.6-12.8 5.6t-12.8-5.6l-81.5-81.5q-5.6-5.6-5.6-12.8t5.6-12.8l76.4-76.5-76.4-76.5q-5.6-5.5-5.6-12.8t5.6-12.8l81.5-81.5q5.5-5.6 12.8-5.6t12.8 5.6l76.5 76.5 76.4-76.5q5.6-5.6 12.9-5.6t12.8 5.6l81.5 81.5q5.5 5.6 5.5 12.8t-5.5 12.8l-76.5 76.5 76.5 76.5q5.5 5.5 5.5 12.8t-5.5 12.8z m119.9-102.1q0-82.6-40.7-152.3t-110.5-110.5-152.3-40.8-152.4 40.8-110.5 110.5-40.7 152.3 40.7 152.3 110.5 110.5 152.4 40.8 152.3-40.8 110.5-110.5 40.7-152.3z m125 0q0 116.6-57.4 215.1t-156 156-215.1 57.5-215.2-57.5-155.9-156-57.5-215.1 57.5-215.1 155.9-156 215.2-57.5 215.1 57.5 156 156 57.4 215.1z" /></svg>