<svg width="1142.9" height="1000" xmlns="http://www.w3.org/2000/svg"><path d="m642.9 500q0-58-22.6-110.8t-61.1-91.2-91.3-61.1-110.8-22.6-110.7 22.6-91.3 61.1-61.1 91.2-22.6 110.8 22.6 110.8 61.1 91.2 91.3 61.1 110.7 22.6 110.8-22.6 91.3-61.1 61.1-91.2 22.6-110.8z m428.5 0q0-58-22.6-110.8t-61.1-91.2-91.2-61.1-110.8-22.6h-215.4q66.4 50.2 105.2 125t38.8 160.7-38.8 160.7-105.2 125h215.4q58.1 0 110.8-22.6t91.2-61.1 61.1-91.2 22.6-110.8z m71.5 0q0 72.5-28.5 138.7t-76.2 113.8-113.8 76.2-138.7 28.4h-428.6q-72.5 0-138.6-28.4t-113.9-76.2-76.1-113.8-28.5-138.7 28.5-138.7 76.1-113.8 113.9-76.2 138.6-28.4h428.6q72.6 0 138.7 28.4t113.8 76.2 76.2 113.8 28.5 138.7z" /></svg>