<svg width="857.1" height="1000" xmlns="http://www.w3.org/2000/svg"><path d="m639 376.7q10 19.5-2.8 36.8l-178.6 250q-10.6 15.1-29 15.1t-29-15.1l-178.6-250q-12.9-17.3-2.8-36.8 9.5-19.6 31.8-19.6h357.1q22.4 0 31.9 19.6z m75.3 391.2v-535.8q0-7.2-5.3-12.5t-12.6-5.3h-535.7q-7.2 0-12.5 5.3t-5.3 12.5v535.8q0 7.2 5.3 12.5t12.5 5.3h535.7q7.3 0 12.6-5.3t5.3-12.5z m142.8-535.8v535.8q0 66.4-47.1 113.5t-113.6 47.2h-535.7q-66.4 0-113.5-47.2t-47.2-113.5v-535.8q0-66.4 47.2-113.5t113.5-47.2h535.7q66.4 0 113.6 47.2t47.1 113.5z" /></svg>