<svg width="857.1" height="1000" xmlns="http://www.w3.org/2000/svg"><path d="m571.4 321.4v357.2q0 14.5-10.6 25.1t-25.1 10.6q-11.1 0-20.6-6.7l-250-178.6q-15.1-10.6-15.1-29t15.1-29l250-178.6q9.5-6.7 20.6-6.7 14.5 0 25.1 10.6t10.6 25.1z m142.9 446.5v-535.8q0-7.2-5.3-12.5t-12.6-5.3h-535.7q-7.2 0-12.5 5.3t-5.3 12.5v535.8q0 7.2 5.3 12.5t12.5 5.3h535.7q7.3 0 12.6-5.3t5.3-12.5z m142.8-535.8v535.8q0 66.4-47.1 113.5t-113.6 47.2h-535.7q-66.4 0-113.5-47.2t-47.2-113.5v-535.8q0-66.4 47.2-113.5t113.5-47.2h535.7q66.4 0 113.6 47.2t47.1 113.5z" /></svg>