<svg width="857.1" height="1000" xmlns="http://www.w3.org/2000/svg"><path d="m839.3 821.4q0 14.5-10.6 25.1t-25.1 10.6h-257.8q0.5 9.5 3.3 48.9t2.8 60.5q0 14-10 23.7t-24 9.8h-178.6q-14 0-24-9.8t-10.1-23.7q0-21.2 2.8-60.5t3.4-48.9h-257.8q-14.5 0-25.1-10.6t-10.6-25.1 10.6-25.1l224.3-224.9h-127.8q-14.5 0-25.1-10.6t-10.6-25.1 10.6-25.1l224.3-224.9h-109.9q-14.5 0-25.1-10.6t-10.6-25.1 10.6-25.1l214.3-214.3q10.6-10.6 25.1-10.6t25.1 10.6l214.3 214.3q10.6 10.6 10.6 25.1t-10.6 25.1-25.1 10.6h-110l224.4 224.9q10.6 10.6 10.6 25.1t-10.6 25.1-25.2 10.6h-127.7l224.3 224.9q10.6 10.6 10.6 25.1z" /></svg>