<svg width="1000.0" height="1000" xmlns="http://www.w3.org/2000/svg"><path d="m357.1 785.7q0-29-21.2-50.2t-50.2-21.2-50.2 21.2-21.2 50.2 21.2 50.2 50.2 21.2 50.2-21.2 21.2-50.2z m-214.2-285.7h214.2v-142.9h-88.1q-7.3 0-12.3 5.1l-108.8 108.8q-5 5-5 12.3v16.7z m714.2 285.7q0-29-21.2-50.2t-50.2-21.2-50.2 21.2-21.2 50.2 21.2 50.2 50.2 21.2 50.2-21.2 21.2-50.2z m142.9-607.1v571.4q0 8.4-2.2 14.8t-7.6 10.3-9.2 6.4-13.1 3.4-12.5 1.1-14.3 0-12.5-0.3q0 59.2-41.9 101t-101 41.9-101-41.9-41.8-101h-214.3q0 59.2-41.9 101t-101 41.9-101-41.9-41.8-101h-35.8q-1.6 0-12.5 0.3t-14.2 0-12.6-1.1-13.1-3.4-9.2-6.4-7.6-10.3-2.2-14.8q0-14.5 10.6-25.1t25.1-10.6v-178.6q0-4.4-0.3-19.5t0-21.2 1.4-19.3 3.7-20.6 7.8-17 12.5-16.8l110.5-110.5q10.6-10.6 28.2-17.8t32.7-7.3h89.2v-107.1q0-14.5 10.6-25.1t25.2-10.6h571.4q14.5 0 25.1 10.6t10.6 25.1z" /></svg>