<svg width="1000.0" height="1000" xmlns="http://www.w3.org/2000/svg"><path d="m250 732.1v107.2q0 7.8-5 12.8t-12.9 5h-107.1q-7.8 0-12.8-5t-5.1-12.8v-107.2q0-7.8 5.1-12.8t12.8-5h107.1q7.9 0 12.9 5t5 12.8z m-107.1-214.2v107.1q0 7.8-5.1 12.8t-12.8 5.1h-107.1q-7.9 0-12.9-5.1t-5-12.8v-107.1q0-7.9 5-12.9t12.9-5h107.1q7.8 0 12.8 5t5.1 12.9z m321.4 214.2v107.2q0 7.8-5 12.8t-12.9 5h-107.1q-7.8 0-12.8-5t-5.1-12.8v-107.2q0-7.8 5.1-12.8t12.8-5h107.1q7.8 0 12.9 5t5 12.8z m-107.2-214.2v107.1q0 7.8-5 12.8t-12.8 5.1h-107.2q-7.8 0-12.8-5.1t-5-12.8v-107.1q0-7.9 5-12.9t12.8-5h107.2q7.8 0 12.8 5t5 12.9z m-320.3-89.3q-15.6 0-26.2-10.6t-10.6-25.7v-72h286.8v72q0 15.1-10.6 25.7t-25.6 10.6h-213.8z m641.8 303.5v107.2q0 7.8-5.1 12.8t-12.8 5h-107.1q-7.8 0-12.9-5t-5-12.8v-107.2q0-7.8 5-12.8t12.9-5h107.1q7.8 0 12.8 5t5.1 12.8z m-107.2-214.2v107.1q0 7.8-5 12.8t-12.8 5.1h-107.2q-7.8 0-12.8-5.1t-5-12.8v-107.1q0-7.9 5-12.9t12.8-5h107.2q7.8 0 12.8 5t5 12.9z m321.5 214.2v107.2q0 7.8-5.1 12.8t-12.8 5h-107.1q-7.9 0-12.9-5t-5-12.8v-107.2q0-7.8 5-12.8t12.9-5h107.1q7.8 0 12.8 5t5.1 12.8z m-107.2-214.2v107.1q0 7.8-5 12.8t-12.8 5.1h-107.2q-7.8 0-12.8-5.1t-5-12.8v-107.1q0-7.9 5-12.9t12.8-5h107.2q7.8 0 12.8 5t5 12.9z m214.3-227.7v7.2h-286.8v-5.5q0-58.1-213.2-57-213.2 0.6-213.2 57v5.5h-286.8v-7.2q0-9.5 4.7-24t19-35.7 36.6-42.2 61.6-42.4 89.3-37.6 125-26.5 163.8-10.4 163.5 10.4 125 26.5 89.6 37.6 61.6 42.4 36.6 42.2 19 35.7 4.7 24z m0 227.7v107.1q0 7.8-5 12.8t-12.9 5.1h-107.1q-7.8 0-12.8-5.1t-5.1-12.8v-107.1q0-7.9 5.1-12.9t12.8-5h107.1q7.9 0 12.9 5t5 12.9z m0-197.6v72q0 15.1-10.6 25.7t-25.7 10.6h-214.3q-15 0-25.6-10.6t-10.6-25.7v-72h286.8z" /></svg>