<svg width="857.1" height="1000" xmlns="http://www.w3.org/2000/svg"><path d="m633.9 815.3l-34.6-102.1q-24.5 12.2-57.4 12.2-20.1 0.6-34.6-5.8t-21.5-17.6-9.8-22.6-2.8-24.3v-222.1h143.4v-108.2h-142.8v-181.9h-104.9q-4.5 0-5.1 5.5-2.8 24.6-9.7 48.6t-21.8 53-43 53-66.1 38v92h72.6v233.3q0 31.8 12 64.2t36.2 61.9 67.6 47.7 98.4 17q38.5-0.5 76.2-13.9t47.7-27.9z m223.2-583.2v535.8q0 66.4-47.1 113.5t-113.6 47.2h-535.7q-66.4 0-113.5-47.2t-47.2-113.5v-535.8q0-66.4 47.2-113.5t113.5-47.2h535.7q66.4 0 113.6 47.2t47.1 113.5z" /></svg>