<svg width="928.6" height="1000" xmlns="http://www.w3.org/2000/svg"><path d="m904 227.7q-37.4 54.7-90.4 93.2 0.6 7.8 0.6 23.4 0 72.6-21.2 144.8t-64.5 138.7-102.9 117.5-144 81.4-180.3 30.4q-151.2 0-276.7-80.9 19.5 2.3 43.5 2.3 125.5 0 223.8-77-58.6-1.2-105-36t-63.6-89q18.4 2.7 34.1 2.7 24 0 47.4-6.1-62.5-12.8-103.5-62.2t-41-114.7v-2.2q37.9 21.2 81.4 22.9-36.8-24.6-58.6-64.2t-21.7-86q0-49.1 24.5-90.9 67.6 83.1 164.4 133.1t207.3 55.5q-4.5-21.2-4.5-41.3 0-74.8 52.8-127.5t127.5-52.7q78.1 0 131.7 56.9 60.8-11.7 114.4-43.5-20.7 64.1-79.3 99.3 51.9-5.6 103.8-27.9z" /></svg>