<svg width="857.1" height="1000" xmlns="http://www.w3.org/2000/svg"><path d="m26.8 124.4q-20.7-1.1-25.1-2.2l-1.7-49.1q7.3-0.6 22.3-0.6 33.5 0 62.5 2.3 73.7 3.9 92.7 3.9 47.9 0 93.7-1.7 64.7-2.2 81.5-2.8 31.2 0 48-1.1l-0.6 7.8 1.1 35.7v5.1q-33.5 5-69.2 5-33.5 0-44.1 13.9-7.2 7.8-7.2 73.7 0 7.2 0.3 18.1t0.2 14.3l0.6 127.7 7.8 156.3q3.4 69.2 28.5 112.7 19.5 32.9 53.6 51.4 49.1 26.2 98.7 26.2 58.1 0 106.6-15.6 31.3-10.1 55.3-28.5 26.7-20.1 36.2-35.7 20.1-31.3 29.6-63.6 11.7-40.8 11.7-127.8 0-44.1-1.9-71.5t-6.2-68.3-7.5-89l-2.2-32.9q-2.8-37.4-13.4-49.1-19-19.6-43-19l-55.8 1.1-7.8-1.7 1.1-48h46.9l114.4 5.6q42.4 1.7 109.4-5.6l10 1.1q3.3 21.3 3.3 28.5 0 3.9-2.2 17.3-25.1 6.7-46.9 7.3-40.7 6.1-44 9.4-8.4 8.4-8.4 22.9 0 3.9 0.8 15.1t0.9 17.3q4.4 10.6 12.2 221 3.4 108.8-8.3 169.6-8.4 42.4-22.9 68.1-21.2 36.3-62.5 68.6-41.9 31.8-101.6 49.7-60.8 18.4-142.3 18.4-93.2 0-158.5-25.7-66.4-26.2-99.9-68-34-42.4-46.3-108.9-8.9-44.6-8.9-132.2v-185.8q0-104.9-9.5-118.9-13.9-20.1-82-21.8z m830.3 786.3v-35.7q0-7.8-5-12.8t-12.8-5.1h-821.4q-7.9 0-12.9 5.1t-5 12.8v35.7q0 7.8 5 12.8t12.9 5.1h821.4q7.8 0 12.8-5.1t5-12.8z" /></svg>