<svg width="928.6" height="1000" xmlns="http://www.w3.org/2000/svg"><path d="m245 709.3l-142.9 142.8q-5.6 5-12.8 5-6.7 0-12.8-5-5.1-5.6-5.1-12.8t5.1-12.8l142.8-142.9q5.6-5 12.8-5t12.9 5q5 5.6 5 12.8t-5 12.9z m94.3 22.8v178.6q0 7.8-5 12.8t-12.9 5.1-12.8-5.1-5-12.8v-178.6q0-7.8 5-12.8t12.8-5 12.9 5 5 12.8z m-125-125q0 7.9-5 12.9t-12.9 5h-178.5q-7.9 0-12.9-5t-5-12.9 5-12.8 12.9-5h178.5q7.8 0 12.9 5t5 12.8z m705.3 71.5q0 66.9-47.4 113.3l-82 81.4q-46.3 46.3-113.3 46.3-67.5 0-113.8-47.4l-186.4-186.9q-11.7-11.8-23.5-31.3l133.4-10 152.4 152.9q15 15 37.9 15.3t37.9-14.8l82.1-81.4q15.6-15.7 15.6-37.4 0-22.3-15.6-38l-152.9-153.4 10-133.4q19.5 11.7 31.3 23.4l187.5 187.5q46.8 48 46.8 113.9z m-344.3-404l-133.3 10-152.4-152.9q-15.6-15.6-37.9-15.6-21.8 0-38 15l-82 81.5q-15.6 15.6-15.6 37.4 0 22.3 15.6 37.9l152.9 152.9-10 134q-19.6-11.7-31.3-23.5l-187.5-187.5q-46.9-48-46.9-113.8 0-67 47.5-113.3l82-81.5q46.3-46.3 113.3-46.3 67.5 0 113.8 47.5l186.4 186.9q11.7 11.7 23.4 31.3z m353.3 46.8q0 7.8-5.1 12.9t-12.8 5h-178.6q-7.8 0-12.8-5t-5-12.9 5-12.8 12.8-5h178.6q7.8 0 12.8 5t5.1 12.8z m-303.6-303.5v178.5q0 7.8-5 12.9t-12.9 5-12.8-5-5-12.9v-178.5q0-7.9 5-12.9t12.8-5 12.9 5 5 12.9z m227.1 84.2l-142.8 142.9q-6.2 5-12.9 5t-12.8-5q-5-5.6-5-12.9t5-12.8l142.9-142.8q5.5-5.1 12.8-5.1t12.8 5.1q5 5.5 5 12.8t-5 12.8z" /></svg>