<svg width="928.6" height="1000" xmlns="http://www.w3.org/2000/svg"><path d="m714.3 821.4q0-14.5-10.6-25.1t-25.1-10.6-25.1 10.6-10.6 25.1 10.6 25.1 25.1 10.6 25.1-10.6 10.6-25.1z m142.8 0q0-14.5-10.6-25.1t-25.1-10.6-25.1 10.6-10.6 25.1 10.6 25.1 25.1 10.6 25.1-10.6 10.6-25.1z m71.5-125v178.6q0 22.3-15.7 37.9t-37.9 15.7h-821.4q-22.4 0-38-15.7t-15.6-37.9v-178.6q0-22.3 15.6-37.9t38-15.6h238.3q11.7 31.2 39.3 51.3t61.7 20.1h142.8q34.1 0 61.7-20.1t39.3-51.3h238.3q22.3 0 37.9 15.6t15.7 37.9z m-181.4-361.6q-9.5 22.3-32.9 22.3h-142.9v250q0 14.6-10.6 25.2t-25.1 10.6h-142.8q-14.6 0-25.2-10.6t-10.6-25.2v-250h-142.8q-23.5 0-32.9-22.3-9.5-21.7 7.8-38.5l250-250q10-10.6 25.1-10.6t25.1 10.6l250 250q17.3 16.8 7.8 38.5z" /></svg>