<svg width="857.1" height="1000" xmlns="http://www.w3.org/2000/svg"><path d="m699.8 355.5q8.9-47.5-11.7-73.7-29.1-36.3-104.4-25.1-9.5 1.7-22.9 7t-32.1 17-36 27.1-33.2 39-24.8 51.1q44.7-3.9 63.3 8.9t14.8 55.3q-2.8 29-29 79.8-24 43.5-39.6 55.2-24.6 17.9-48.6-7.8-12.8-13.4-20.9-36t-10.6-40.7-5.6-46.9-4.7-39.9q-12.8-72-19-91.5-6.7-20.7-19.8-38.5t-28.2-22.4q-31.8-8.9-70.8 14-30.2 17.8-76.2 59.1t-68.4 57v3.9q9 4.4 14.3 14.5t12 11.1q11.7 1.7 30.4-4.7t32.3-5.9 23.2 16.8q6.1 10 10.3 21.5t8.4 26.7 7 22.6q9.5 25.7 29.5 104.4 20.1 81.5 31.8 109.9 23.5 55.3 57.5 69.8 24 6.7 47.5 0.8t42.4-17.6q73.1-42.9 139.5-132.2 58-77.6 96.2-163.2t46.1-126.4z m157.3-123.4v535.8q0 66.4-47.1 113.5t-113.6 47.2h-535.7q-66.4 0-113.5-47.2t-47.2-113.5v-535.8q0-66.4 47.2-113.5t113.5-47.2h535.7q66.4 0 113.6 47.2t47.1 113.5z" /></svg>