<svg width="857.1" height="1000" xmlns="http://www.w3.org/2000/svg"><path d="m835.4 461.5v110.5q-56.4 12.8-110.5 12.8-36.3 75.9-92.4 151.2t-101.2 120.3-71.5 59.4q-44.6 25.1-90.4-1.6-15.6-9.5-33.7-24.3t-47.5-46.6-57.2-71.7-60-102.7-58.8-136.2-51.1-175.5-39.3-217.6h157.9q14.5 121.7 39 222.4t58.4 176.9 67.8 131.4 78.1 108.8q94.3-94.3 160.1-226.5-79.2-40.2-124.4-122.8t-45.2-185.8q0-107.2 58-175.5t158.5-68.4q99.4 0 152.4 58.9t53 166q0 88.7-32.4 159.6-3.9 0.5-10.9 1.7t-25.6 1.1-35.2-3.4-34.6-14.2-28.2-28.7q17.3-57.5 17.3-102.7 0-48.6-16.2-73.7t-44-25.1q-29.6 0-47.5 27.6t-17.8 78.4q0 103.8 58.6 163.8t149 60q34.6 0 67.5-7.8z" /></svg>