<svg width="1000.0" height="1000" xmlns="http://www.w3.org/2000/svg"><path d="m571.4 767.3v-106q0-7.8-5.3-13.1t-12.5-5.3h-107.2q-7.2 0-12.5 5.3t-5.3 13.1v106q0 7.8 5.3 13.1t12.5 5.3h107.2q7.2 0 12.5-5.3t5.3-13.1z m-1.1-208.7l10.1-256.1q0-6.7-5.6-10.6-7.3-6.2-13.4-6.2h-122.8q-6.1 0-13.4 6.2-5.6 3.9-5.6 11.7l9.5 255q0 5.6 5.6 9.2t13.4 3.6h103.2q7.9 0 13.2-3.6t5.8-9.2z m-7.8-521.2l428.6 785.7q19.5 35.2-1.1 70.3-9.5 16.2-26 25.7t-35.4 9.5h-857.2q-18.9 0-35.4-9.5t-26-25.7q-20.6-35.1-1.1-70.3l428.6-785.7q9.5-17.3 26.2-27.4t36.3-10 36.3 10 26.2 27.4z" /></svg>