<svg width="1142.9" height="1000" xmlns="http://www.w3.org/2000/svg"><path d="m323.7 257.3q0-22.9-14-36.9t-36.8-13.9q-24 0-42.4 14.2t-18.4 36.6q0 21.7 18.4 35.9t42.4 14.3q22.9 0 36.8-13.7t14-36.5z m414.6 282.9q0-15.6-14.2-27.9t-36.6-12.3q-15.1 0-27.6 12.6t-12.6 27.6q0 15.6 12.6 28.2t27.6 12.5q22.3 0 36.6-12.3t14.2-28.4z m-131.7-282.9q0-22.9-13.7-36.9t-36.5-13.9q-24 0-42.4 14.2t-18.5 36.6q0 21.7 18.5 35.9t42.4 14.3q22.8 0 36.5-13.7t13.7-36.5z m354.3 282.9q0-15.6-14.5-27.9t-36.2-12.3q-15.1 0-27.7 12.6t-12.5 27.6q0 15.6 12.5 28.2t27.7 12.5q21.7 0 36.2-12.3t14.5-28.4z m-148.4-221.6q-17.3-2.2-39.1-2.2-94.3 0-173.5 43t-124.7 116.3-45.5 160.5q0 43.5 12.8 84.8-19.5 1.7-37.9 1.7-14.5 0-27.9-0.9t-30.7-3.6-24.9-3.9-30.4-5.9-27.9-5.8l-141.1 70.8 40.1-121.6q-161.8-113.3-161.8-273.5 0-94.3 54.4-173.5t147.3-124.7 202.9-45.5q98.2 0 185.5 36.8t146.2 101.9 76.2 145.3z m330.4 313.1q0 65.3-38.3 124.7t-103.5 108l30.7 101-111-60.8q-83.7 20.6-121.7 20.6-94.3 0-173.5-39.3t-124.8-106.9-45.4-147.3 45.4-147.3 124.8-106.9 173.5-39.3q89.9 0 169.1 39.3t126.9 107.2 47.8 147z" /></svg>