<svg width="1000.0" height="1000" xmlns="http://www.w3.org/2000/svg"><path d="m376.7 716.5q11.7-19 6.1-38.5t-25.1-27.9q-19-7.8-40.7-0.5t-33.5 25.6q-12.3 19-7.3 38.2t24 28.2 41.6 1.4 34.9-26.5z m52.4-67.5q4.5-7.3 2-14.8t-9.8-10.3q-7.8-2.8-15.9 0.3t-12 10.3q-9.5 17.3 7.3 25.1 7.8 2.8 16.2-0.3t12.2-10.3z m97.1 59.7q-25.1 56.9-88.1 83.7t-125 6.7q-59.8-19-82.4-70.6t3.7-104.6q26.2-51.9 84.5-77.6t117.5-10.6q61.9 16.2 88.4 66.7t1.4 106.3z m174.1-89.3q-5-53.6-49.6-94.8t-116.4-60.9-153.2-11.7q-124.4 12.8-206.2 79t-73.9 147.6q5 53.5 49.7 94.8t116.3 60.9 153.2 11.7q124.4-12.9 206.2-79t73.9-147.6z m171.9 2.3q0 37.9-20.6 77.8t-60.9 76.4-94 65.6-126.1 46.3-151 17.3-153.4-18.7-134.2-51.9-95.7-84.2-36.3-111.3q0-64.2 38.8-136.8t110.2-143.9q94.3-94.3 190.6-131.7t137.5 3.9q36.3 35.7 11.2 116.6-2.3 7.8-0.6 11.2t5.6 3.9 8.1-0.3 7.5-2l3.4-1.1q77.5-32.9 137.3-32.9t85.3 34q25.1 35.2 0 99.4-1.1 7.2-2.5 11.1t2.5 7 6.7 4.2 9.5 3.3q31.8 10.1 57.5 26.3t44.6 45.4 19 65.1z m-41.3-348.3q23.5 26.3 30.4 60.6t-3.6 65.6q-4.5 12.8-16.5 18.9t-24.8 2.3q-12.8-4.5-19-16.5t-2.2-24.8q11.2-35.2-13.4-62t-59.7-19.5q-13.4 2.8-25.1-4.5t-14-20.6q-2.8-13.4 4.5-24.9t20.6-14.2q33.5-7.2 66.5 3.1t56.3 36.5z m101-90.9q48.6 53.5 62.8 124.1t-7.5 134.8q-5.1 15.1-19 22.3t-29 2.3-22.3-19-2.8-29q15.6-45.8 5.5-96t-44.6-88.2q-34.6-38.5-82.6-53.3t-96.5-4.7q-15.7 3.3-29-5.3t-16.8-24.3 5.3-28.7 24.3-16.5q68.6-14.5 136.1 6.4t116.1 75.1z" /></svg>