<svg width="928.6" height="1000" xmlns="http://www.w3.org/2000/svg"><path d="m570.9 662.4l56.9 113.8q-32.4 99.9-117.2 161.9t-189.2 61.9q-87 0-161-43.2t-117.2-117.2-43.2-161q0-101 58.3-184.2t153.2-117.7l9.5 73.1q-68.1 30.1-108.8 92.3t-40.8 136.5q0 103.2 73.4 176.6t176.6 73.4q70.3 0 129.8-36.3t92-97.9 27.7-132z m305.8 55.8l32.3 63.6-142.8 71.4q-7.3 3.9-16.2 3.9-22.3 0-31.8-19.5l-133.4-266.2h-263.4q-13.4 0-23.7-9.2t-12-22.6l-53.6-434.7q-1.1-8.9 3.4-23.4 7.8-28.5 31.8-46.1t54.1-17.5q36.9 0 63.1 26.2t26.2 63q0 38.5-29 65.6t-67 23.2l20.7 161.2h236v71.5h-227.1l8.9 71.4h253.9q22.4 0 31.9 19.5l127.2 253.9z" /></svg>