<svg width="1142.9" height="1000" xmlns="http://www.w3.org/2000/svg"><path d="m571.4 849.9q-11.1 0-51.9-41t-40.7-52.2q0-17.9 34.9-30.1t57.7-12.3 57.8 12.3 34.9 30.1q0 11.2-40.8 52.2t-51.9 41z m150.7-151.2q-1.1 0-22.3-14t-56.7-27.9-71.7-13.9-71.7 13.9-56.3 27.9-22.6 14q-10.1 0-52.2-41.9t-42.1-51.9q0-7.2 5.5-12.8 43.6-43 109.4-67.5t130-24.6 130.1 24.6 109.3 67.5q5.6 5.6 5.6 12.8 0 10.1-42.1 51.9t-52.2 41.9z m152.3-151.8q-6.1 0-12.8-4.5-75.9-58.6-140.6-86.2t-149.6-27.6q-47.4 0-95.1 12.2t-83.2 29.6-63.3 34.6-44.1 29.6-17.3 12.3q-9.5 0-51.3-41.9t-41.9-51.9q0-6.7 5.6-12.3 73.7-73.6 178.6-114.3t212-40.8 212.1 40.8 178.6 114.3q5.5 5.6 5.5 12.3 0 10.1-41.8 51.9t-51.4 41.9z m151.3-151.3q-6.2 0-12.3-5-99.9-87.6-207.3-132t-234.7-44.3-234.6 44.3-207.3 132q-6.2 5-12.3 5-9.5 0-51.6-41.8t-42.2-51.9q0-7.3 5.6-12.8 104.4-103.8 248.3-160.8t294.1-56.9 294.1 56.9 248.3 160.8q5.6 5.5 5.6 12.8 0 10-42.1 51.9t-51.6 41.8z" /></svg>