<svg width="1000.0" height="1000" xmlns="http://www.w3.org/2000/svg"><path d="m286.8 666.9l45.2-166.9h-88.7l41.9 167.4q0.5 0.6 0.5 1.7t0.6 1.7q0-0.6 0.3-2t0.2-1.9z m64.8-238.3l19.5-71.5h-163l17.9 71.5h125.6z m107.1 0h77.6l-19.6-71.5h-39z m250.6 238.8l43.5-167.4h-90.4l45.2 166.9q0 0.5 0.3 1.9t0.8 2q0-0.6 0.3-1.7t0.3-1.7z m61.9-238.8l18.4-71.5h-165.7l19 71.5h128.3z m228.8 17.8v35.7q0 7.9-5 12.9t-12.9 5h-118.8l-91.5 343.8q-3.9 13.3-17.3 13.3h-88.8q-13.4 0-17.3-13.3l-92.6-343.8h-116.6l-93.2 343.8q-3.9 13.3-17.3 13.3h-88.7q-6.2 0-10.9-3.9t-5.9-9.4l-89.3-343.8h-116q-7.9 0-12.9-5t-5-12.9v-35.7q0-7.8 5-12.8t12.9-5h97.6l-18.4-71.5h-79.2q-7.9 0-12.9-5t-5-12.8v-35.7q0-7.8 5-12.9t12.9-5h60.8l-49.7-192q-2.8-8.3 2.8-15.6 5.6-6.7 14.5-6.7h76.5q14.5 0 17.3 13.4l50.2 200.9h200.3l54.2-200.9q3.9-13.4 17.3-13.4h70.3q13.4 0 17.3 13.4l54.7 200.9h203.6l51.9-200.9q2.8-13.4 17.3-13.4h76.5q8.9 0 14.5 6.7 5.6 7.3 2.8 15.6l-50.8 192h61.9q7.9 0 12.9 5t5 12.9v35.7q0 7.8-5 12.8t-12.9 5h-80.9l-18.9 71.5h99.8q7.9 0 12.9 5t5 12.8z" /></svg>