<svg width="1000.0" height="1000" xmlns="http://www.w3.org/2000/svg"><path d="m70.9 500q0-91 37.4-174.7l204.8 560.9q-109.4-53.1-175.8-156.8t-66.4-229.4z m718.7-21.8q0 10.6-1.4 21.5t-5.6 27.6-6.4 24.6-9.7 32.9-9.8 32.4l-42.4 142.8-155.1-460.9q25.6-1.7 49.1-4.5 10.6-1.1 14.5-10.3t-1.4-17.3-15.9-7.5l-114.4 5.6q-41.9-0.6-112.8-5.6-6.6-0.6-11.4 2.8t-6.4 8.3-0.8 10.4 5 9.2 10.9 4.4l44.6 4.5 67 183-93.8 281.3-156.2-464.3q25.6-1.7 49.1-4.5 10.6-1.1 14.5-10.3t-1.4-17.3-15.9-7.5l-114.4 5.6q-3.9 0-12.8-0.3t-14.6-0.3q58.6-89.3 153.2-141.5t205.1-52.1q82 0 156.5 29.5t133.1 83.2h-5.6q-30.7 0-51.3 22.6t-20.6 53.3q0 6.7 1.1 13.4t2.2 12 4.5 12.8 5 11.7 6.7 12.6 7 11.7 8.1 13.4 7.8 12.8q35.1 59.7 35.1 118.3z m-282.3 59.2l132.2 361q0.6 3.4 2.8 6.2-70.3 24.5-142.3 24.5-62.5 0-121.1-17.8z m368.8-243.3q53 97.1 53 205.9 0 116.6-58 215.1t-155.7 155.4l131.1-378.3q33-94.3 33-154 0-23.5-3.4-44.1z m-376.1-294.1q101.6 0 194.2 39.6t159.6 106.6 106.6 159.6 39.6 194.2-39.6 194.2-106.6 159.6-159.6 106.6-194.2 39.6-194.2-39.6-159.6-106.6-106.6-159.6-39.6-194.2 39.6-194.2 106.6-159.6 159.6-106.6 194.2-39.6z m0 977.1q96.5 0 185-37.9t152.3-101.9 101.9-152.3 37.9-185-37.9-185-101.9-152.3-152.3-101.9-185-37.9-185 37.9-152.3 101.9-101.9 152.3-37.9 185 37.9 185 101.9 152.3 152.3 101.9 185 37.9z" /></svg>