<svg width="928.6" height="1000" xmlns="http://www.w3.org/2000/svg"><path d="m214.3 821.4q0-14.5-10.6-25.1t-25.1-10.6-25.1 10.6-10.6 25.1 10.6 25.1 25.1 10.6 25.1-10.6 10.6-25.1z m359.4-234.3l-380.6 380.5q-20.7 20.7-50.2 20.7-29.1 0-50.8-20.7l-59.2-60.2q-21.2-20.1-21.2-50.3 0-29.5 21.2-50.7l380-380.1q21.8 54.7 63.9 96.9t96.9 63.9z m353.8-242.8q0 21.8-12.9 59.2-26.2 74.7-91.8 121.3t-144.2 46.6q-103.3 0-176.6-73.4t-73.4-176.6 73.4-176.6 176.6-73.4q32.3 0 67.8 9.2t60 26q8.9 6.1 8.9 15.6t-8.9 15.6l-163.5 94.3v125l107.7 59.8q2.7-1.7 44-27.1t75.7-45.2 39.3-19.8q8.4 0 13.1 5.6t4.8 13.9z" /></svg>