<svg width="857.1" height="1000" xmlns="http://www.w3.org/2000/svg"><path d="m382.3 426.9q0-0.6-70.4-123.9-11.7-19-29-19h-102.7q-10 0-14.5 6.2-3.9 6.7 0.6 16.2l69.7 120.5v0.6l-109.3 193q-5 7.8 0 15.7 4.4 7.2 13.4 7.2h103.2q17.3 0 27.9-20.1z m348.2-277.3q-3.9-6.7-13.4-6.7h-104.4q-16.7 0-27.3 19.5l-229.4 406.8q0.6 1.1 146.2 268.4 11.2 19.5 29.1 19.5h102.6q10.1 0 14-6.7 4.4-7.2-0.6-15.6l-145.1-265.6v-0.6l228.3-403.4q4.4-8.9 0-15.6z m126.6 82.5v535.8q0 66.4-47.1 113.5t-113.6 47.2h-535.7q-66.4 0-113.5-47.2t-47.2-113.5v-535.8q0-66.4 47.2-113.5t113.5-47.2h535.7q66.4 0 113.6 47.2t47.1 113.5z" /></svg>