<svg width="857.1" height="1000" xmlns="http://www.w3.org/2000/svg"><path d="m431.4 736v70.9q-0.6 163-3.4 170.2-6.7 17.9-28.4 22.3-30.2 5.1-101.3-21.2t-90.7-49.6q-7.3-8.4-9.5-20.1-0.6-6.7 2.2-14.5 2.3-5.6 19-26.3t101-120.5q0.6 0 33.5-39.1 8.4-10.6 22-13.6t27.7 1.9q13.4 5.6 20.9 16.2t7 23.4z m-83.2-140q-1.7 30.7-29 39l-67 21.8q-153.4 49.1-162.9 49.1-19.5-1.1-30.1-20.1-6.7-13.9-9.5-41.8-4.5-42.4 0.5-92.9t16.8-69.5 31.2-17.9q7.3 0 112.7 43 39.1 16.2 64.2 26.2l46.9 19q12.8 5 19.8 17t6.4 27.1z m461 165.7q-4 30.2-51.1 89.9t-75.6 70.8q-20.7 7.8-35.2-3.9-7.8-5.6-102.7-160.1l-26.2-43q-7.8-11.7-6.4-25.7t10.9-25.6q19.5-24 46.3-14.5 0.6 0.5 66.4 22.3 113.3 36.8 135 44.3t26.3 11.5q15.6 12.3 12.3 34z m-375-352.7q2.7 57-30.2 68.1-32.3 9.5-63.6-39.6l-210.9-333.7q-4.5-19.5 10.6-34.6 22.8-24 115.8-49.9t125.2-17.6q22.4 5.6 27.4 25.1 1.7 10 12.3 170.5t13.4 211.7z m369.4 60.3q1.6 21.8-14.5 32.9-8.4 5.6-183.6 48-37.4 8.4-50.8 12.9l0.5-1.2q-12.8 3.4-25.6-2.2t-20.7-17.8q-16.7-26.3 0-48.6 0.6-0.6 41.9-56.9 69.7-95.4 83.7-113.9t19-21.7q15.6-10.6 36.2-1.1 26.8 12.8 68.7 74.5t45.2 93.4v1.7z" /></svg>