<svg width="857.1" height="1000" xmlns="http://www.w3.org/2000/svg"><path d="m512.8 727.1v-87.6q0-27.9-16.1-27.9-9.5 0-18.5 8.9v125q9 9 18.5 9 16.1 0 16.1-27.4z m102.7-68.1h36.8v-18.9q0-28.5-18.4-28.5t-18.4 28.5v18.9z m-318.6-148.4v39.1h-44.7v236h-41.3v-236h-43.5v-39.1h129.5z m112.1 70.3v204.8h-37.3v-22.3q-21.8 25.1-42.5 25.1-18.4 0-23.4-15.6-3.3-8.9-3.3-30.2v-161.8h36.8v150.7q0 13.4 0.5 14.5 0.6 8.4 8.4 8.4 11.2 0 23.5-17.3v-156.3h37.3z m140.7 62v81.4q0 29-3.9 40.8-6.7 23.4-29.6 23.4-19.5 0-38-22.9v20.1h-37.4v-275.1h37.4v89.8q17.9-22.3 38-22.3 22.9 0 29.6 23.5 3.9 11.7 3.9 41.3z m140 71.9v5.1q0 16.1-1.1 24-1.7 12.2-8.4 22.3-15 22.3-44.6 22.3-29 0-45.2-21.2-11.7-15.1-11.7-48v-72q0-32.9 11.1-48 16.2-21.2 44.7-21.2t43.5 21.2q11.7 15.7 11.7 48v42.4h-74.2v36.3q0 28.5 19 28.5 13.4 0 16.7-14.5 0-0.6 0.3-4t0.3-9.2v-12h37.9z m-251.6-459.8v87.1q0 28.4-17.9 28.4t-17.9-28.4v-87.1q0-29 17.9-29t17.9 29z m297.4 397.9q0-98.8-10.6-145.1-5.6-24.5-24-41t-42.4-19.3q-75.9-8.3-229.9-8.3-153.5 0-229.4 8.3-24.5 2.8-42.7 19.3t-23.7 41q-11.1 48.6-11.1 145.1 0 98.2 11.1 145.1 5.6 24 23.7 40.7t42.2 19.6q76.4 8.3 229.9 8.3t229.9-8.3q24-2.8 42.1-19.6t23.7-40.7q11.2-46.9 11.2-145.1z m-421.3-363.3l50.2-165.2h-41.9l-28.4 108.9-29.6-108.9h-43.5l13.4 38.5t12.8 38.6q19.5 57.4 25.7 88.1v112.2h41.3v-112.2z m161.2 45.2v-72.5q0-32.4-11.7-48.6-16.2-21.2-43.5-21.2-28.5 0-43.5 21.2-11.7 16.2-11.7 48.6v72.5q0 32.4 11.7 48.6 15 21.2 43.5 21.2 27.3 0 43.5-21.2 11.7-15.1 11.7-48.6z m101.1 67h37.3v-206.5h-37.3v157.9q-12.3 17.3-23.5 17.3-8.4 0-8.9-8.9-0.6-1.1-0.6-14.5v-151.8h-37.4v163.5q0 20.7 3.4 30.7 6.1 15.1 24 15.1 20.1 0 43-25.1v22.3z m280.6-169.7v535.8q0 66.4-47.1 113.5t-113.6 47.2h-535.7q-66.4 0-113.5-47.2t-47.2-113.5v-535.8q0-66.4 47.2-113.5t113.5-47.2h535.7q66.4 0 113.6 47.2t47.1 113.5z" /></svg>