<svg width="1000.0" height="1000" xmlns="http://www.w3.org/2000/svg"><path d="m714.3 500q0-20.6-16.8-30.1l-285.7-178.6q-17.3-11.2-36.2-1.1-18.5 10-18.5 31.2v357.2q0 21.2 18.5 31.2 8.9 4.5 17.3 4.5 11.1 0 18.9-5.6l285.7-178.6q16.8-9.5 16.8-30.1z m285.7 0q0 53.6-0.6 83.7t-4.7 76.2-12.6 82.3q-8.9 40.7-38.5 68.6t-69.2 32.4q-123.8 13.9-374.4 13.9t-374.4-13.9q-39.7-4.5-69.5-32.4t-38.8-68.6q-7.8-36.3-12-82.3t-4.7-76.2-0.6-83.7 0.6-83.7 4.7-76.2 12.6-82.3q8.9-40.7 38.5-68.6t69.2-32.4q123.8-13.9 374.4-13.9t374.4 13.9q39.7 4.5 69.5 32.4t38.8 68.6q7.8 36.3 12 82.3t4.7 76.2 0.6 83.7z" /></svg>