<svg width="857.1" height="1000" xmlns="http://www.w3.org/2000/svg"><path d="m541.9 694.2v117.7q0 37.4-21.8 37.4-12.8 0-25.1-12.2v-168q12.3-12.3 25.1-12.3 21.8 0 21.8 37.4z m188.6 0.6v25.6h-50.3v-25.6q0-38 25.2-38t25.1 38z m-539.1-121.7h59.7v-52.5h-174.1v52.5h58.6v317.5h55.8v-317.5z m160.7 317.5h49.7v-275.6h-49.7v210.9q-16.7 23.4-31.8 23.4-10 0-11.7-11.7-0.6-1.7-0.6-19.5v-203.1h-49.6v218.1q0 27.4 4.4 40.8 6.7 20.6 32.4 20.6 26.8 0 56.9-34v30.1z m239.4-82.6v-109.9q0-40.7-5-55.2-9.5-31.3-39.6-31.3-27.9 0-51.9 30.1v-121.1h-49.7v370h49.7v-26.8q25.1 30.7 51.9 30.7 30.1 0 39.6-30.7 5-15 5-55.8z m188.6-5.5v-7.3h-50.7q0 28.5-1.2 34-3.9 20.1-22.3 20.1-25.7 0-25.7-38.5v-48.5h99.9v-57.5q0-44.1-15-64.7-21.8-28.5-59.2-28.5-37.9 0-59.7 28.5-15.6 20.6-15.6 64.7v96.5q0 44.1 16.2 64.8 21.7 28.4 60.2 28.4 40.2 0 60.3-29.5 10-15.1 11.7-30.2 1.1-5 1.1-32.3z m-339.3-509.5v-117.2q0-38.5-23.9-38.5t-24 38.5v117.2q0 39 24 39t23.9-39z m401.3 419.1q0 130.5-14.5 195.3-7.8 32.9-32.4 55.2t-56.9 25.7q-102.7 11.7-309.7 11.7t-309.7-11.7q-32.4-3.4-57.2-25.7t-32.1-55.2q-14.5-62.5-14.5-195.3 0-130.6 14.5-195.4 7.8-32.9 32.3-55.2t57.5-26.2q102.1-11.2 309.2-11.2t309.7 11.2q32.3 3.9 57.2 26.2t32.1 55.2q14.5 62.5 14.5 195.4z m-556.9-712.1h56.9l-67.5 222.7v151.2h-55.8v-151.2q-7.9-41.3-34.1-118.3-20.6-57.5-36.3-104.4h59.2l39.6 146.8z m206.4 185.8v97.7q0 45.2-15.6 65.8-20.6 28.5-59.1 28.5-37.4 0-58.6-28.5-15.7-21.2-15.7-65.8v-97.7q0-44.6 15.7-65.3 21.2-28.4 58.6-28.4 38.5 0 59.1 28.4 15.6 20.7 15.6 65.3z m187-90.4v278.5h-50.8v-30.7q-29.6 34.6-57.5 34.6-25.7 0-32.9-20.7-4.5-13.4-4.5-41.8v-219.9h50.8v204.8q0 18.4 0.6 19.6 1.6 12.2 11.7 12.2 15 0 31.8-24v-212.6h50.8z" /></svg>